M48
; DRILL file {KiCad (5.1.2)-2} date 4/13/2020 12:02:10 PM
; FORMAT={-:-/ absolute / metric / decimal}
; #@! TF.CreationDate,2020-04-13T12:02:10-04:00
; #@! TF.GenerationSoftware,Kicad,Pcbnew,(5.1.2)-2
FMAT,2
METRIC
T1C0.500
T2C0.800
T3C0.900
T4C1.000
T5C1.016
T6C1.100
T7C1.143
T8C2.286
%
G90
G05
T1
X49.53Y-41.35
X53.34Y-41.35
T2
X31.75Y-39.37
X39.37Y-39.37
X31.75Y-43.815
X39.37Y-43.815
X42.545Y-36.195
X42.545Y-43.815
X46.355Y-36.195
X46.355Y-43.815
T3
X27.305Y-6.35
X29.845Y-6.35
X27.305Y-0.635
X29.845Y-0.635
T4
X28.45Y-69.46
X30.99Y-69.46
X33.53Y-69.46
X36.07Y-69.46
T5
X39.37Y-52.07
X39.37Y-54.61
X39.37Y-57.15
X39.37Y-59.69
X39.37Y-62.23
X39.37Y-64.77
X39.37Y-67.31
X48.26Y-53.34
X50.8Y-53.34
X53.34Y-53.34
X55.88Y-53.34
T6
X26.67Y-33.73
X26.67Y-36.27
X26.67Y-38.81
X26.67Y-41.35
X26.67Y-43.89
X26.67Y-46.43
X26.67Y-48.97
X29.21Y-33.73
X29.21Y-48.97
X31.75Y-33.73
X31.75Y-48.97
X34.29Y-33.73
X34.29Y-48.97
X36.83Y-33.73
X36.83Y-48.97
X39.37Y-33.73
X39.37Y-48.97
X41.91Y-33.73
X41.91Y-48.97
X44.45Y-33.73
X44.45Y-48.97
X46.99Y-33.73
X46.99Y-46.43
X46.99Y-48.97
X49.53Y-33.73
X49.53Y-46.43
X49.53Y-48.97
X52.07Y-33.73
X52.07Y-46.43
X52.07Y-48.97
X54.61Y-33.73
X54.61Y-48.97
X57.15Y-33.73
X57.15Y-46.43
X57.15Y-48.97
X59.69Y-33.73
X59.69Y-48.97
T7
X28.575Y-11.43
X28.575Y-19.05
X28.575Y-21.59
X28.575Y-29.21
X46.545Y-31.115
X50.355Y-27.305
X50.355Y-31.115
X54.165Y-31.115
X57.975Y-31.115
T8
X33.02Y0.0
X59.69Y-65.278
X33.02Y-25.4
X27.94Y-53.34
T0
M30
