G04 #@! TF.GenerationSoftware,KiCad,Pcbnew,(5.1.2)-2*
G04 #@! TF.CreationDate,2020-04-13T12:01:29-04:00*
G04 #@! TF.ProjectId,TeensyLC_DRV8871_MPRLS_Qwiic_v01,5465656e-7379-44c4-935f-445256383837,rev?*
G04 #@! TF.SameCoordinates,Original*
G04 #@! TF.FileFunction,Legend,Top*
G04 #@! TF.FilePolarity,Positive*
%FSLAX46Y46*%
G04 Gerber Fmt 4.6, Leading zero omitted, Abs format (unit mm)*
G04 Created by KiCad (PCBNEW (5.1.2)-2) date 2020-04-13 12:01:29*
%MOMM*%
%LPD*%
G04 APERTURE LIST*
%ADD10C,0.120000*%
%ADD11C,0.150000*%
G04 APERTURE END LIST*
D10*
X60941000Y-65278000D02*
G75*
G03X60941000Y-65278000I-1251000J0D01*
G01*
X34271000Y0D02*
G75*
G03X34271000Y0I-1251000J0D01*
G01*
X34271000Y-25400000D02*
G75*
G03X34271000Y-25400000I-1251000J0D01*
G01*
X29191000Y-53340000D02*
G75*
G03X29191000Y-53340000I-1251000J0D01*
G01*
X44450000Y-50800000D02*
X59690000Y-50800000D01*
X62230000Y-53340000D02*
X62230000Y-72390000D01*
X59690000Y-74930000D02*
X44450000Y-74930000D01*
X41910000Y-72390000D02*
X41910000Y-54610000D01*
X41910000Y-54610000D02*
X41910000Y-53340000D01*
X41910000Y-53340000D02*
G75*
G02X44450000Y-50800000I2540000J0D01*
G01*
X59690000Y-50800000D02*
G75*
G02X62230000Y-53340000I0J-2540000D01*
G01*
X62230000Y-72390000D02*
G75*
G02X59690000Y-74930000I-2540000J0D01*
G01*
X44450000Y-74930000D02*
G75*
G02X41910000Y-72390000I0J2540000D01*
G01*
X44196000Y-74930000D02*
X44196000Y-67945000D01*
X44196000Y-67945000D02*
X51181000Y-67945000D01*
X44196000Y-74930000D02*
X50419000Y-74930000D01*
X51181000Y-74930000D02*
X51181000Y-67945000D01*
D11*
X60960000Y-37540001D02*
X62230000Y-37540001D01*
X62230000Y-37540001D02*
X62230000Y-45160001D01*
X62230000Y-45160001D02*
X60960000Y-45160001D01*
X49530000Y-36270001D02*
X45720000Y-36270001D01*
X45720000Y-36270001D02*
X45720000Y-38810001D01*
X27940000Y-38810001D02*
X30480000Y-38810001D01*
X30480000Y-38810001D02*
X30480000Y-43890001D01*
X55880000Y-37540001D02*
X60960000Y-37540001D01*
X52070000Y-36270001D02*
X52070000Y-38810001D01*
X55880000Y-45160001D02*
X60960000Y-45160001D01*
X27940000Y-43890001D02*
X27940000Y-38810001D01*
X25400000Y-50240001D02*
X25400000Y-32460001D01*
X54610000Y-38810001D02*
X54610000Y-36270001D01*
X30480000Y-43890001D02*
X27940000Y-43890001D01*
X52070000Y-38810001D02*
X54610000Y-38810001D01*
X45720000Y-38810001D02*
X49530000Y-38810001D01*
X54610000Y-36270001D02*
X52070000Y-36270001D01*
X25400000Y-32460001D02*
X60960000Y-32460001D01*
X60960000Y-32460001D02*
X60960000Y-50240001D01*
X49530000Y-38810001D02*
X49530000Y-36270001D01*
X55880000Y-37540001D02*
X55880000Y-45160001D01*
X60960000Y-50240001D02*
X25400000Y-50240001D01*
D10*
X29845000Y-17780000D02*
X27305000Y-17780000D01*
X29845000Y-12700000D02*
X29845000Y-17780000D01*
X27305000Y-12700000D02*
X29845000Y-12700000D01*
X27305000Y-17780000D02*
X27305000Y-12700000D01*
X29845000Y-27940000D02*
X27305000Y-27940000D01*
X29845000Y-22860000D02*
X29845000Y-27940000D01*
X27305000Y-22860000D02*
X29845000Y-22860000D01*
X27305000Y-27940000D02*
X27305000Y-22860000D01*
X30247335Y443608D02*
G75*
G03X27015000Y600516I-1672335J-1078608D01*
G01*
X30247335Y-1713608D02*
G75*
G02X27015000Y-1870516I-1672335J1078608D01*
G01*
X29616130Y444837D02*
G75*
G03X27534039Y445000I-1041130J-1079837D01*
G01*
X29616130Y-1714837D02*
G75*
G02X27534039Y-1715000I-1041130J1079837D01*
G01*
X27015000Y601000D02*
X27015000Y445000D01*
X27015000Y-1715000D02*
X27015000Y-1871000D01*
X27015000Y-7430000D02*
X27015000Y-7586000D01*
X27015000Y-5114000D02*
X27015000Y-5270000D01*
X29616130Y-7429837D02*
G75*
G02X27534039Y-7430000I-1041130J1079837D01*
G01*
X29616130Y-5270163D02*
G75*
G03X27534039Y-5270000I-1041130J-1079837D01*
G01*
X30247335Y-7428608D02*
G75*
G02X27015000Y-7585516I-1672335J1078608D01*
G01*
X30247335Y-5271392D02*
G75*
G03X27015000Y-5114484I-1672335J-1078608D01*
G01*
X38830000Y-40740000D02*
X38830000Y-40410000D01*
X32290000Y-40740000D02*
X38830000Y-40740000D01*
X32290000Y-40410000D02*
X32290000Y-40740000D01*
X38830000Y-38000000D02*
X38830000Y-38330000D01*
X32290000Y-38000000D02*
X38830000Y-38000000D01*
X32290000Y-38330000D02*
X32290000Y-38000000D01*
X32290000Y-42775000D02*
X32290000Y-42445000D01*
X32290000Y-42445000D02*
X38830000Y-42445000D01*
X38830000Y-42445000D02*
X38830000Y-42775000D01*
X32290000Y-44855000D02*
X32290000Y-45185000D01*
X32290000Y-45185000D02*
X38830000Y-45185000D01*
X38830000Y-45185000D02*
X38830000Y-44855000D01*
X47395000Y-36735000D02*
X47725000Y-36735000D01*
X47725000Y-36735000D02*
X47725000Y-43275000D01*
X47725000Y-43275000D02*
X47395000Y-43275000D01*
X45315000Y-36735000D02*
X44985000Y-36735000D01*
X44985000Y-36735000D02*
X44985000Y-43275000D01*
X44985000Y-43275000D02*
X45315000Y-43275000D01*
X41175000Y-43275000D02*
X41505000Y-43275000D01*
X41175000Y-36735000D02*
X41175000Y-43275000D01*
X41505000Y-36735000D02*
X41175000Y-36735000D01*
X43915000Y-43275000D02*
X43585000Y-43275000D01*
X43915000Y-36735000D02*
X43915000Y-43275000D01*
X43585000Y-36735000D02*
X43915000Y-36735000D01*
X44005500Y-31115000D02*
X60515500Y-31115000D01*
X60515500Y-31115000D02*
X60515500Y-23495000D01*
X60515500Y-23495000D02*
X44005500Y-23495000D01*
X44005500Y-23495000D02*
X44005500Y-31115000D01*
X25400000Y-66040000D02*
X25400000Y-53340000D01*
X27940000Y-50800000D02*
X39370000Y-50800000D01*
X41910000Y-53340000D02*
X41910000Y-66040000D01*
X39370000Y-68580000D02*
X27940000Y-68580000D01*
X27940000Y-68580000D02*
G75*
G02X25400000Y-66040000I0J2540000D01*
G01*
X25400000Y-53340000D02*
G75*
G02X27940000Y-50800000I2540000J0D01*
G01*
X39370000Y-50800000D02*
G75*
G02X41910000Y-53340000I0J-2540000D01*
G01*
X41910000Y-66040000D02*
G75*
G02X39370000Y-68580000I-2540000J0D01*
G01*
X36450000Y-70570000D02*
X36450000Y-70900000D01*
X37400000Y-73560000D02*
X37400000Y-70900000D01*
X37340000Y-68190000D02*
X37340000Y-69460000D01*
X36150000Y-73560000D02*
X36150000Y-79560000D01*
X32260000Y-70900000D02*
X32260000Y-73560000D01*
X35690000Y-79560000D02*
X35690000Y-73560000D01*
X28830000Y-70502929D02*
X28830000Y-70900000D01*
X36270000Y-73560000D02*
X36270000Y-79560000D01*
X33910000Y-79560000D02*
X33150000Y-79560000D01*
X36070000Y-68190000D02*
X37340000Y-68190000D01*
X33150000Y-70502929D02*
X33150000Y-70900000D01*
X28070000Y-70502929D02*
X28070000Y-70900000D01*
X28830000Y-73560000D02*
X28830000Y-79560000D01*
X29720000Y-70900000D02*
X29720000Y-73560000D01*
X30610000Y-70502929D02*
X30610000Y-70900000D01*
X30610000Y-79560000D02*
X30610000Y-73560000D01*
X33910000Y-70502929D02*
X33910000Y-70900000D01*
X33910000Y-73560000D02*
X33910000Y-79560000D01*
X36030000Y-73560000D02*
X36030000Y-79560000D01*
X36390000Y-73560000D02*
X36390000Y-79560000D01*
X37400000Y-70900000D02*
X27120000Y-70900000D01*
X35690000Y-70570000D02*
X35690000Y-70900000D01*
X27120000Y-73560000D02*
X37400000Y-73560000D01*
X31370000Y-79560000D02*
X30610000Y-79560000D01*
X28070000Y-79560000D02*
X28070000Y-73560000D01*
X28830000Y-79560000D02*
X28070000Y-79560000D01*
X31370000Y-70502929D02*
X31370000Y-70900000D01*
X31370000Y-73560000D02*
X31370000Y-79560000D01*
X35910000Y-73560000D02*
X35910000Y-79560000D01*
X33150000Y-79560000D02*
X33150000Y-73560000D01*
X36450000Y-73560000D02*
X36450000Y-79560000D01*
X34800000Y-70900000D02*
X34800000Y-73560000D01*
X35790000Y-73560000D02*
X35790000Y-79560000D01*
X36450000Y-79560000D02*
X35690000Y-79560000D01*
X27120000Y-70900000D02*
X27120000Y-73560000D01*
D11*
X58356666Y-67980380D02*
X58023333Y-67504190D01*
X57785238Y-67980380D02*
X57785238Y-66980380D01*
X58166190Y-66980380D01*
X58261428Y-67028000D01*
X58309047Y-67075619D01*
X58356666Y-67170857D01*
X58356666Y-67313714D01*
X58309047Y-67408952D01*
X58261428Y-67456571D01*
X58166190Y-67504190D01*
X57785238Y-67504190D01*
X58785238Y-67456571D02*
X59118571Y-67456571D01*
X59261428Y-67980380D02*
X58785238Y-67980380D01*
X58785238Y-66980380D01*
X59261428Y-66980380D01*
X60023333Y-67456571D02*
X59690000Y-67456571D01*
X59690000Y-67980380D02*
X59690000Y-66980380D01*
X60166190Y-66980380D01*
X60690000Y-66980380D02*
X60690000Y-67218476D01*
X60451904Y-67123238D02*
X60690000Y-67218476D01*
X60928095Y-67123238D01*
X60547142Y-67408952D02*
X60690000Y-67218476D01*
X60832857Y-67408952D01*
X61451904Y-66980380D02*
X61451904Y-67218476D01*
X61213809Y-67123238D02*
X61451904Y-67218476D01*
X61690000Y-67123238D01*
X61309047Y-67408952D02*
X61451904Y-67218476D01*
X61594761Y-67408952D01*
X31686666Y-2702380D02*
X31353333Y-2226190D01*
X31115238Y-2702380D02*
X31115238Y-1702380D01*
X31496190Y-1702380D01*
X31591428Y-1750000D01*
X31639047Y-1797619D01*
X31686666Y-1892857D01*
X31686666Y-2035714D01*
X31639047Y-2130952D01*
X31591428Y-2178571D01*
X31496190Y-2226190D01*
X31115238Y-2226190D01*
X32115238Y-2178571D02*
X32448571Y-2178571D01*
X32591428Y-2702380D02*
X32115238Y-2702380D01*
X32115238Y-1702380D01*
X32591428Y-1702380D01*
X33353333Y-2178571D02*
X33020000Y-2178571D01*
X33020000Y-2702380D02*
X33020000Y-1702380D01*
X33496190Y-1702380D01*
X34020000Y-1702380D02*
X34020000Y-1940476D01*
X33781904Y-1845238D02*
X34020000Y-1940476D01*
X34258095Y-1845238D01*
X33877142Y-2130952D02*
X34020000Y-1940476D01*
X34162857Y-2130952D01*
X34781904Y-1702380D02*
X34781904Y-1940476D01*
X34543809Y-1845238D02*
X34781904Y-1940476D01*
X35020000Y-1845238D01*
X34639047Y-2130952D02*
X34781904Y-1940476D01*
X34924761Y-2130952D01*
X31686666Y-28102380D02*
X31353333Y-27626190D01*
X31115238Y-28102380D02*
X31115238Y-27102380D01*
X31496190Y-27102380D01*
X31591428Y-27150000D01*
X31639047Y-27197619D01*
X31686666Y-27292857D01*
X31686666Y-27435714D01*
X31639047Y-27530952D01*
X31591428Y-27578571D01*
X31496190Y-27626190D01*
X31115238Y-27626190D01*
X32115238Y-27578571D02*
X32448571Y-27578571D01*
X32591428Y-28102380D02*
X32115238Y-28102380D01*
X32115238Y-27102380D01*
X32591428Y-27102380D01*
X33353333Y-27578571D02*
X33020000Y-27578571D01*
X33020000Y-28102380D02*
X33020000Y-27102380D01*
X33496190Y-27102380D01*
X34020000Y-27102380D02*
X34020000Y-27340476D01*
X33781904Y-27245238D02*
X34020000Y-27340476D01*
X34258095Y-27245238D01*
X33877142Y-27530952D02*
X34020000Y-27340476D01*
X34162857Y-27530952D01*
X34781904Y-27102380D02*
X34781904Y-27340476D01*
X34543809Y-27245238D02*
X34781904Y-27340476D01*
X35020000Y-27245238D01*
X34639047Y-27530952D02*
X34781904Y-27340476D01*
X34924761Y-27530952D01*
X26606666Y-56042380D02*
X26273333Y-55566190D01*
X26035238Y-56042380D02*
X26035238Y-55042380D01*
X26416190Y-55042380D01*
X26511428Y-55090000D01*
X26559047Y-55137619D01*
X26606666Y-55232857D01*
X26606666Y-55375714D01*
X26559047Y-55470952D01*
X26511428Y-55518571D01*
X26416190Y-55566190D01*
X26035238Y-55566190D01*
X27035238Y-55518571D02*
X27368571Y-55518571D01*
X27511428Y-56042380D02*
X27035238Y-56042380D01*
X27035238Y-55042380D01*
X27511428Y-55042380D01*
X28273333Y-55518571D02*
X27940000Y-55518571D01*
X27940000Y-56042380D02*
X27940000Y-55042380D01*
X28416190Y-55042380D01*
X28940000Y-55042380D02*
X28940000Y-55280476D01*
X28701904Y-55185238D02*
X28940000Y-55280476D01*
X29178095Y-55185238D01*
X28797142Y-55470952D02*
X28940000Y-55280476D01*
X29082857Y-55470952D01*
X29701904Y-55042380D02*
X29701904Y-55280476D01*
X29463809Y-55185238D02*
X29701904Y-55280476D01*
X29940000Y-55185238D01*
X29559047Y-55470952D02*
X29701904Y-55280476D01*
X29844761Y-55470952D01*
X51308095Y-75652380D02*
X51308095Y-76461904D01*
X51355714Y-76557142D01*
X51403333Y-76604761D01*
X51498571Y-76652380D01*
X51689047Y-76652380D01*
X51784285Y-76604761D01*
X51831904Y-76557142D01*
X51879523Y-76461904D01*
X51879523Y-75652380D01*
X52308095Y-75747619D02*
X52355714Y-75700000D01*
X52450952Y-75652380D01*
X52689047Y-75652380D01*
X52784285Y-75700000D01*
X52831904Y-75747619D01*
X52879523Y-75842857D01*
X52879523Y-75938095D01*
X52831904Y-76080952D01*
X52260476Y-76652380D01*
X52879523Y-76652380D01*
X42418095Y-33817381D02*
X42418095Y-34626905D01*
X42465714Y-34722143D01*
X42513333Y-34769762D01*
X42608571Y-34817381D01*
X42799047Y-34817381D01*
X42894285Y-34769762D01*
X42941904Y-34722143D01*
X42989523Y-34626905D01*
X42989523Y-33817381D01*
X43989523Y-34817381D02*
X43418095Y-34817381D01*
X43703809Y-34817381D02*
X43703809Y-33817381D01*
X43608571Y-33960239D01*
X43513333Y-34055477D01*
X43418095Y-34103096D01*
X48982380Y-45366191D02*
X48982380Y-44794762D01*
X49982380Y-45080477D02*
X48982380Y-45080477D01*
X48982380Y-44556667D02*
X48982380Y-43937620D01*
X49363333Y-44270953D01*
X49363333Y-44128096D01*
X49410952Y-44032858D01*
X49458571Y-43985239D01*
X49553809Y-43937620D01*
X49791904Y-43937620D01*
X49887142Y-43985239D01*
X49934761Y-44032858D01*
X49982380Y-44128096D01*
X49982380Y-44413810D01*
X49934761Y-44509048D01*
X49887142Y-44556667D01*
X49887142Y-43509048D02*
X49934761Y-43461429D01*
X49982380Y-43509048D01*
X49934761Y-43556667D01*
X49887142Y-43509048D01*
X49982380Y-43509048D01*
X49982380Y-42509048D02*
X49982380Y-43080477D01*
X49982380Y-42794762D02*
X48982380Y-42794762D01*
X49125238Y-42890001D01*
X49220476Y-42985239D01*
X49268095Y-43080477D01*
X41846666Y-47950380D02*
X41513333Y-47474190D01*
X41275238Y-47950380D02*
X41275238Y-46950380D01*
X41656190Y-46950380D01*
X41751428Y-46998000D01*
X41799047Y-47045619D01*
X41846666Y-47140857D01*
X41846666Y-47283714D01*
X41799047Y-47378952D01*
X41751428Y-47426571D01*
X41656190Y-47474190D01*
X41275238Y-47474190D01*
X42275238Y-47426571D02*
X42608571Y-47426571D01*
X42751428Y-47950380D02*
X42275238Y-47950380D01*
X42275238Y-46950380D01*
X42751428Y-46950380D01*
X43513333Y-47426571D02*
X43180000Y-47426571D01*
X43180000Y-47950380D02*
X43180000Y-46950380D01*
X43656190Y-46950380D01*
X44180000Y-46950380D02*
X44180000Y-47188476D01*
X43941904Y-47093238D02*
X44180000Y-47188476D01*
X44418095Y-47093238D01*
X44037142Y-47378952D02*
X44180000Y-47188476D01*
X44322857Y-47378952D01*
X44941904Y-46950380D02*
X44941904Y-47188476D01*
X44703809Y-47093238D02*
X44941904Y-47188476D01*
X45180000Y-47093238D01*
X44799047Y-47378952D02*
X44941904Y-47188476D01*
X45084761Y-47378952D01*
X52792380Y-45366191D02*
X52792380Y-44794762D01*
X53792380Y-45080477D02*
X52792380Y-45080477D01*
X52792380Y-44556667D02*
X52792380Y-43937620D01*
X53173333Y-44270953D01*
X53173333Y-44128096D01*
X53220952Y-44032858D01*
X53268571Y-43985239D01*
X53363809Y-43937620D01*
X53601904Y-43937620D01*
X53697142Y-43985239D01*
X53744761Y-44032858D01*
X53792380Y-44128096D01*
X53792380Y-44413810D01*
X53744761Y-44509048D01*
X53697142Y-44556667D01*
X53697142Y-43509048D02*
X53744761Y-43461429D01*
X53792380Y-43509048D01*
X53744761Y-43556667D01*
X53697142Y-43509048D01*
X53792380Y-43509048D01*
X52887619Y-43080477D02*
X52840000Y-43032858D01*
X52792380Y-42937620D01*
X52792380Y-42699524D01*
X52840000Y-42604286D01*
X52887619Y-42556667D01*
X52982857Y-42509048D01*
X53078095Y-42509048D01*
X53220952Y-42556667D01*
X53792380Y-43128096D01*
X53792380Y-42509048D01*
X29106761Y-16001904D02*
X29154380Y-15859047D01*
X29154380Y-15620952D01*
X29106761Y-15525714D01*
X29059142Y-15478095D01*
X28963904Y-15430476D01*
X28868666Y-15430476D01*
X28773428Y-15478095D01*
X28725809Y-15525714D01*
X28678190Y-15620952D01*
X28630571Y-15811428D01*
X28582952Y-15906666D01*
X28535333Y-15954285D01*
X28440095Y-16001904D01*
X28344857Y-16001904D01*
X28249619Y-15954285D01*
X28202000Y-15906666D01*
X28154380Y-15811428D01*
X28154380Y-15573333D01*
X28202000Y-15430476D01*
X29154380Y-14478095D02*
X29154380Y-15049523D01*
X29154380Y-14763809D02*
X28154380Y-14763809D01*
X28297238Y-14859047D01*
X28392476Y-14954285D01*
X28440095Y-15049523D01*
X29106761Y-26161904D02*
X29154380Y-26019047D01*
X29154380Y-25780952D01*
X29106761Y-25685714D01*
X29059142Y-25638095D01*
X28963904Y-25590476D01*
X28868666Y-25590476D01*
X28773428Y-25638095D01*
X28725809Y-25685714D01*
X28678190Y-25780952D01*
X28630571Y-25971428D01*
X28582952Y-26066666D01*
X28535333Y-26114285D01*
X28440095Y-26161904D01*
X28344857Y-26161904D01*
X28249619Y-26114285D01*
X28202000Y-26066666D01*
X28154380Y-25971428D01*
X28154380Y-25733333D01*
X28202000Y-25590476D01*
X28249619Y-25209523D02*
X28202000Y-25161904D01*
X28154380Y-25066666D01*
X28154380Y-24828571D01*
X28202000Y-24733333D01*
X28249619Y-24685714D01*
X28344857Y-24638095D01*
X28440095Y-24638095D01*
X28582952Y-24685714D01*
X29154380Y-25257142D01*
X29154380Y-24638095D01*
X25931904Y1872619D02*
X25931904Y2872619D01*
X26170000Y2872619D01*
X26312857Y2825000D01*
X26408095Y2729761D01*
X26455714Y2634523D01*
X26503333Y2444047D01*
X26503333Y2301190D01*
X26455714Y2110714D01*
X26408095Y2015476D01*
X26312857Y1920238D01*
X26170000Y1872619D01*
X25931904Y1872619D01*
X27455714Y1872619D02*
X26884285Y1872619D01*
X27170000Y1872619D02*
X27170000Y2872619D01*
X27074761Y2729761D01*
X26979523Y2634523D01*
X26884285Y2586904D01*
X25931904Y-4008380D02*
X25931904Y-3008380D01*
X26170000Y-3008380D01*
X26312857Y-3056000D01*
X26408095Y-3151238D01*
X26455714Y-3246476D01*
X26503333Y-3436952D01*
X26503333Y-3579809D01*
X26455714Y-3770285D01*
X26408095Y-3865523D01*
X26312857Y-3960761D01*
X26170000Y-4008380D01*
X25931904Y-4008380D01*
X26884285Y-3103619D02*
X26931904Y-3056000D01*
X27027142Y-3008380D01*
X27265238Y-3008380D01*
X27360476Y-3056000D01*
X27408095Y-3103619D01*
X27455714Y-3198857D01*
X27455714Y-3294095D01*
X27408095Y-3436952D01*
X26836666Y-4008380D01*
X27455714Y-4008380D01*
X32599333Y-37536380D02*
X32266000Y-37060190D01*
X32027904Y-37536380D02*
X32027904Y-36536380D01*
X32408857Y-36536380D01*
X32504095Y-36584000D01*
X32551714Y-36631619D01*
X32599333Y-36726857D01*
X32599333Y-36869714D01*
X32551714Y-36964952D01*
X32504095Y-37012571D01*
X32408857Y-37060190D01*
X32027904Y-37060190D01*
X33551714Y-37536380D02*
X32980285Y-37536380D01*
X33266000Y-37536380D02*
X33266000Y-36536380D01*
X33170761Y-36679238D01*
X33075523Y-36774476D01*
X32980285Y-36822095D01*
X32345333Y-41897380D02*
X32012000Y-41421190D01*
X31773904Y-41897380D02*
X31773904Y-40897380D01*
X32154857Y-40897380D01*
X32250095Y-40945000D01*
X32297714Y-40992619D01*
X32345333Y-41087857D01*
X32345333Y-41230714D01*
X32297714Y-41325952D01*
X32250095Y-41373571D01*
X32154857Y-41421190D01*
X31773904Y-41421190D01*
X32726285Y-40992619D02*
X32773904Y-40945000D01*
X32869142Y-40897380D01*
X33107238Y-40897380D01*
X33202476Y-40945000D01*
X33250095Y-40992619D01*
X33297714Y-41087857D01*
X33297714Y-41183095D01*
X33250095Y-41325952D01*
X32678666Y-41897380D01*
X33297714Y-41897380D01*
X44902380Y-35980666D02*
X44426190Y-36314000D01*
X44902380Y-36552095D02*
X43902380Y-36552095D01*
X43902380Y-36171142D01*
X43950000Y-36075904D01*
X43997619Y-36028285D01*
X44092857Y-35980666D01*
X44235714Y-35980666D01*
X44330952Y-36028285D01*
X44378571Y-36075904D01*
X44426190Y-36171142D01*
X44426190Y-36552095D01*
X43902380Y-35647333D02*
X43902380Y-35028285D01*
X44283333Y-35361619D01*
X44283333Y-35218761D01*
X44330952Y-35123523D01*
X44378571Y-35075904D01*
X44473809Y-35028285D01*
X44711904Y-35028285D01*
X44807142Y-35075904D01*
X44854761Y-35123523D01*
X44902380Y-35218761D01*
X44902380Y-35504476D01*
X44854761Y-35599714D01*
X44807142Y-35647333D01*
X41092380Y-35980666D02*
X40616190Y-36314000D01*
X41092380Y-36552095D02*
X40092380Y-36552095D01*
X40092380Y-36171142D01*
X40140000Y-36075904D01*
X40187619Y-36028285D01*
X40282857Y-35980666D01*
X40425714Y-35980666D01*
X40520952Y-36028285D01*
X40568571Y-36075904D01*
X40616190Y-36171142D01*
X40616190Y-36552095D01*
X40425714Y-35123523D02*
X41092380Y-35123523D01*
X40044761Y-35361619D02*
X40759047Y-35599714D01*
X40759047Y-34980666D01*
X51665261Y-42997380D02*
X51331928Y-42521190D01*
X51093833Y-42997380D02*
X51093833Y-41997380D01*
X51474785Y-41997380D01*
X51570023Y-42045000D01*
X51617642Y-42092619D01*
X51665261Y-42187857D01*
X51665261Y-42330714D01*
X51617642Y-42425952D01*
X51570023Y-42473571D01*
X51474785Y-42521190D01*
X51093833Y-42521190D01*
X51950976Y-41997380D02*
X52284309Y-42997380D01*
X52617642Y-41997380D01*
X53474785Y-42997380D02*
X52903357Y-42997380D01*
X53189071Y-42997380D02*
X53189071Y-41997380D01*
X53093833Y-42140238D01*
X52998595Y-42235476D01*
X52903357Y-42283095D01*
X42632380Y-60451904D02*
X43441904Y-60451904D01*
X43537142Y-60404285D01*
X43584761Y-60356666D01*
X43632380Y-60261428D01*
X43632380Y-60070952D01*
X43584761Y-59975714D01*
X43537142Y-59928095D01*
X43441904Y-59880476D01*
X42632380Y-59880476D01*
X42632380Y-59499523D02*
X42632380Y-58880476D01*
X43013333Y-59213809D01*
X43013333Y-59070952D01*
X43060952Y-58975714D01*
X43108571Y-58928095D01*
X43203809Y-58880476D01*
X43441904Y-58880476D01*
X43537142Y-58928095D01*
X43584761Y-58975714D01*
X43632380Y-59070952D01*
X43632380Y-59356666D01*
X43584761Y-59451904D01*
X43537142Y-59499523D01*
X31623095Y-84542380D02*
X31623095Y-85351904D01*
X31670714Y-85447142D01*
X31718333Y-85494761D01*
X31813571Y-85542380D01*
X32004047Y-85542380D01*
X32099285Y-85494761D01*
X32146904Y-85447142D01*
X32194523Y-85351904D01*
X32194523Y-84542380D01*
X33099285Y-84875714D02*
X33099285Y-85542380D01*
X32861190Y-84494761D02*
X32623095Y-85209047D01*
X33242142Y-85209047D01*
M02*
