G04 #@! TF.GenerationSoftware,KiCad,Pcbnew,(5.1.2)-2*
G04 #@! TF.CreationDate,2020-04-13T12:01:29-04:00*
G04 #@! TF.ProjectId,TeensyLC_DRV8871_MPRLS_Qwiic_v01,5465656e-7379-44c4-935f-445256383837,rev?*
G04 #@! TF.SameCoordinates,Original*
G04 #@! TF.FileFunction,Copper,L1,Top*
G04 #@! TF.FilePolarity,Positive*
%FSLAX46Y46*%
G04 Gerber Fmt 4.6, Leading zero omitted, Abs format (unit mm)*
G04 Created by KiCad (PCBNEW (5.1.2)-2) date 2020-04-13 12:01:29*
%MOMM*%
%LPD*%
G04 APERTURE LIST*
%ADD10C,2.540000*%
%ADD11C,1.778000*%
%ADD12C,1.600000*%
%ADD13C,1.900000*%
%ADD14R,1.600000X1.600000*%
%ADD15C,1.905000*%
%ADD16R,1.800000X1.800000*%
%ADD17C,1.800000*%
%ADD18O,1.600000X1.600000*%
%ADD19C,2.032000*%
%ADD20O,1.700000X1.700000*%
%ADD21R,1.700000X1.700000*%
%ADD22C,0.250000*%
%ADD23C,0.508000*%
%ADD24C,0.254000*%
G04 APERTURE END LIST*
D10*
X59690000Y-65278000D03*
X33020000Y0D03*
X33020000Y-25400000D03*
X27940000Y-53340000D03*
D11*
X48260000Y-53340000D03*
X50800000Y-53340000D03*
X53340000Y-53340000D03*
X55880000Y-53340000D03*
D12*
X26670000Y-46430001D03*
X26670000Y-36270001D03*
X26670000Y-33730001D03*
X46990000Y-48970001D03*
X54610000Y-48970001D03*
X57150000Y-46430001D03*
X26670000Y-43890001D03*
X49530000Y-46430001D03*
X57150000Y-48970001D03*
X46990000Y-46430001D03*
X39370000Y-48970001D03*
X29210000Y-48970001D03*
X31750000Y-48970001D03*
X49530000Y-48970001D03*
X52070000Y-48970001D03*
X29210000Y-33730001D03*
X31750000Y-33730001D03*
X59690000Y-48970001D03*
X26670000Y-48970001D03*
X26670000Y-41350001D03*
X26670000Y-38810001D03*
X36830000Y-48970001D03*
X34290000Y-48970001D03*
X41910000Y-48970001D03*
X44450000Y-48970001D03*
X52070000Y-46430001D03*
X49530000Y-33730001D03*
X36830000Y-33730001D03*
X34290000Y-33730001D03*
D13*
X53340000Y-41350001D03*
D12*
X57150000Y-33730001D03*
X52070000Y-33730001D03*
X46990000Y-33730001D03*
X54610000Y-33730001D03*
X41910000Y-33730001D03*
D14*
X59690000Y-33730001D03*
D12*
X39370000Y-33730001D03*
X44450000Y-33730001D03*
D13*
X49530000Y-41350001D03*
D15*
X28575000Y-11430000D03*
X28575000Y-19050000D03*
X28575000Y-21590000D03*
X28575000Y-29210000D03*
D16*
X27305000Y-635000D03*
D17*
X29845000Y-635000D03*
X29845000Y-6350000D03*
D16*
X27305000Y-6350000D03*
D18*
X39370000Y-39370000D03*
D12*
X31750000Y-39370000D03*
X31750000Y-43815000D03*
D18*
X39370000Y-43815000D03*
D12*
X46355000Y-36195000D03*
D18*
X46355000Y-43815000D03*
X42545000Y-43815000D03*
D12*
X42545000Y-36195000D03*
D19*
X46545500Y-31115000D03*
X50355500Y-31115000D03*
X54165500Y-31115000D03*
X57975500Y-31115000D03*
X50355500Y-27305000D03*
D11*
X39370000Y-67310000D03*
X39370000Y-64770000D03*
X39370000Y-62230000D03*
X39370000Y-59690000D03*
X39370000Y-57150000D03*
X39370000Y-54610000D03*
X39370000Y-52070000D03*
D20*
X30990000Y-69460000D03*
D21*
X36070000Y-69460000D03*
D20*
X28450000Y-69460000D03*
X33530000Y-69460000D03*
D22*
X28530001Y-3010001D02*
X27305000Y-1785000D01*
X28530001Y-6848003D02*
X28530001Y-3010001D01*
X30335001Y-8653003D02*
X28530001Y-6848003D01*
X30335001Y-36823631D02*
X30335001Y-8653003D01*
X27305000Y-1785000D02*
X27305000Y-635000D01*
X31750000Y-38238630D02*
X30335001Y-36823631D01*
X31750000Y-39370000D02*
X31750000Y-38238630D01*
X35089999Y-32930002D02*
X34290000Y-33730001D01*
X35089999Y-9781997D02*
X35089999Y-32930002D01*
X29845000Y-635000D02*
X29845000Y-4536998D01*
X29845000Y-4536998D02*
X35089999Y-9781997D01*
X34639989Y-30840012D02*
X31750000Y-33730001D01*
X34639989Y-10128989D02*
X34639989Y-30840012D01*
X31966001Y-7455001D02*
X34639989Y-10128989D01*
X29845000Y-6350000D02*
X30950001Y-7455001D01*
X30950001Y-7455001D02*
X31966001Y-7455001D01*
X27305000Y-7500000D02*
X27305000Y-6350000D01*
X27297499Y-7507501D02*
X27305000Y-7500000D01*
X27297499Y-32692498D02*
X27297499Y-7507501D01*
X27795001Y-33190000D02*
X27297499Y-32692498D01*
X27795001Y-39860001D02*
X27795001Y-33190000D01*
X31750000Y-43815000D02*
X27795001Y-39860001D01*
X56350001Y-49770000D02*
X56350001Y-50762001D01*
X57150000Y-48970001D02*
X56350001Y-49770000D01*
X42545000Y-36195000D02*
X46355000Y-36195000D01*
X55409999Y-38772999D02*
X55409999Y-48170002D01*
X52832000Y-36195000D02*
X55409999Y-38772999D01*
X46355000Y-36195000D02*
X52832000Y-36195000D01*
X29527499Y-20637501D02*
X28575000Y-21590000D01*
X29852501Y-20312499D02*
X29527499Y-20637501D01*
X29852501Y-18436799D02*
X29852501Y-20312499D01*
X28575000Y-17159298D02*
X29852501Y-18436799D01*
X28575000Y-11430000D02*
X28575000Y-17159298D01*
X50355500Y-31115000D02*
X54165500Y-31115000D01*
X55409999Y-48170002D02*
X54610000Y-48970001D01*
X41910000Y-48260000D02*
X41910000Y-48970001D01*
X46355000Y-43815000D02*
X41910000Y-48260000D01*
X41910000Y-57150000D02*
X39370000Y-59690000D01*
X41910000Y-48970001D02*
X41910000Y-57150000D01*
X42545000Y-45795001D02*
X39370000Y-48970001D01*
X42545000Y-43815000D02*
X42545000Y-45795001D01*
X38481001Y-56261001D02*
X39370000Y-57150000D01*
X38155999Y-55935999D02*
X38481001Y-56261001D01*
X38155999Y-51487279D02*
X38155999Y-55935999D01*
X39370000Y-50273278D02*
X38155999Y-51487279D01*
X39370000Y-48970001D02*
X39370000Y-50273278D01*
X34290000Y-42784998D02*
X34290000Y-47838631D01*
X45575001Y-34270002D02*
X44775004Y-35069999D01*
X34290000Y-47838631D02*
X34290000Y-48970001D01*
X44775004Y-35069999D02*
X42004999Y-35069999D01*
X45575001Y-33522339D02*
X45575001Y-34270002D01*
X46545500Y-32551840D02*
X45575001Y-33522339D01*
X42004999Y-35069999D02*
X34290000Y-42784998D01*
X46545500Y-31115000D02*
X46545500Y-32551840D01*
X56959501Y-30099001D02*
X57975500Y-31115000D01*
X56634499Y-29773999D02*
X56959501Y-30099001D01*
X49323341Y-29773999D02*
X56634499Y-29773999D01*
X47982340Y-31115000D02*
X49323341Y-29773999D01*
X46545500Y-31115000D02*
X47982340Y-31115000D01*
D23*
X59690000Y-50101371D02*
X59690000Y-48970001D01*
D22*
X49148999Y-54228999D02*
X48260000Y-53340000D01*
X49474001Y-54554001D02*
X49148999Y-54228999D01*
X56462721Y-54554001D02*
X49474001Y-54554001D01*
X58275001Y-52741721D02*
X56462721Y-54554001D01*
X58275001Y-40365181D02*
X58275001Y-52741721D01*
X50909990Y-35109991D02*
X53019810Y-35109990D01*
X53019810Y-35109990D02*
X58275001Y-40365181D01*
X49530000Y-33730001D02*
X50909990Y-35109991D01*
X52014001Y-52125999D02*
X51688999Y-52451001D01*
X55860008Y-49384995D02*
X53119004Y-52125999D01*
X51688999Y-52451001D02*
X50800000Y-53340000D01*
X55860008Y-38586598D02*
X55860008Y-49384995D01*
X53119004Y-52125999D02*
X52014001Y-52125999D01*
X52833410Y-35560000D02*
X55860008Y-38586598D01*
X48819999Y-35560000D02*
X52833410Y-35560000D01*
X46990000Y-33730001D02*
X48819999Y-35560000D01*
D24*
G36*
X49485978Y-25892140D02*
G01*
X49388282Y-26158177D01*
X50355500Y-27125395D01*
X51322718Y-26158177D01*
X51225022Y-25892140D01*
X51048288Y-25806000D01*
X59919001Y-25806000D01*
X59919000Y-32365059D01*
X59917036Y-32385000D01*
X59924875Y-32464590D01*
X59948090Y-32541121D01*
X59951317Y-32547158D01*
X58890000Y-32547158D01*
X58815311Y-32554514D01*
X58743492Y-32576300D01*
X58677304Y-32611679D01*
X58619289Y-32659290D01*
X58571678Y-32717305D01*
X58536299Y-32783493D01*
X58514513Y-32855312D01*
X58507157Y-32930001D01*
X58507157Y-34530001D01*
X58514513Y-34604690D01*
X58536299Y-34676509D01*
X58571678Y-34742697D01*
X58619289Y-34800712D01*
X58677304Y-34848323D01*
X58743492Y-34883702D01*
X58815311Y-34905488D01*
X58890000Y-34912844D01*
X60490000Y-34912844D01*
X60564689Y-34905488D01*
X60636508Y-34883702D01*
X60702696Y-34848323D01*
X60760711Y-34800712D01*
X60808322Y-34742697D01*
X60843701Y-34676509D01*
X60865487Y-34604690D01*
X60872843Y-34530001D01*
X60872843Y-32930001D01*
X60865487Y-32855312D01*
X60845978Y-32791000D01*
X61824000Y-32791000D01*
X61824001Y-65385136D01*
X61781449Y-65819115D01*
X61661181Y-66217464D01*
X61465831Y-66584862D01*
X61202845Y-66907315D01*
X60882226Y-67172554D01*
X60516204Y-67370461D01*
X60118708Y-67493506D01*
X59685863Y-67539000D01*
X43199941Y-67539000D01*
X43180000Y-67537036D01*
X43160060Y-67539000D01*
X43160059Y-67539000D01*
X43100410Y-67544875D01*
X43023879Y-67568090D01*
X42953347Y-67605790D01*
X42891526Y-67656526D01*
X42840790Y-67718347D01*
X42803090Y-67788879D01*
X42779875Y-67865410D01*
X42772036Y-67945000D01*
X42774001Y-67964951D01*
X42774000Y-73254000D01*
X27959854Y-73254000D01*
X27525885Y-73211449D01*
X27127536Y-73091181D01*
X26760138Y-72895831D01*
X26437685Y-72632845D01*
X26172446Y-72312226D01*
X25974539Y-71946204D01*
X25851494Y-71548708D01*
X25806000Y-71115863D01*
X25806000Y-69460000D01*
X27213044Y-69460000D01*
X27236812Y-69701318D01*
X27307202Y-69933363D01*
X27421509Y-70147216D01*
X27575340Y-70334660D01*
X27762784Y-70488491D01*
X27976637Y-70602798D01*
X28208682Y-70673188D01*
X28389528Y-70691000D01*
X28510472Y-70691000D01*
X28691318Y-70673188D01*
X28923363Y-70602798D01*
X29137216Y-70488491D01*
X29324660Y-70334660D01*
X29478491Y-70147216D01*
X29592798Y-69933363D01*
X29663188Y-69701318D01*
X29686956Y-69460000D01*
X29753044Y-69460000D01*
X29776812Y-69701318D01*
X29847202Y-69933363D01*
X29961509Y-70147216D01*
X30115340Y-70334660D01*
X30302784Y-70488491D01*
X30516637Y-70602798D01*
X30748682Y-70673188D01*
X30929528Y-70691000D01*
X31050472Y-70691000D01*
X31231318Y-70673188D01*
X31463363Y-70602798D01*
X31677216Y-70488491D01*
X31864660Y-70334660D01*
X32018491Y-70147216D01*
X32132798Y-69933363D01*
X32203188Y-69701318D01*
X32226956Y-69460000D01*
X32293044Y-69460000D01*
X32316812Y-69701318D01*
X32387202Y-69933363D01*
X32501509Y-70147216D01*
X32655340Y-70334660D01*
X32842784Y-70488491D01*
X33056637Y-70602798D01*
X33288682Y-70673188D01*
X33469528Y-70691000D01*
X33590472Y-70691000D01*
X33771318Y-70673188D01*
X34003363Y-70602798D01*
X34217216Y-70488491D01*
X34404660Y-70334660D01*
X34558491Y-70147216D01*
X34583065Y-70101242D01*
X34581928Y-70310000D01*
X34594188Y-70434482D01*
X34630498Y-70554180D01*
X34689463Y-70664494D01*
X34768815Y-70761185D01*
X34865506Y-70840537D01*
X34975820Y-70899502D01*
X35095518Y-70935812D01*
X35220000Y-70948072D01*
X35784250Y-70945000D01*
X35943000Y-70786250D01*
X35943000Y-69587000D01*
X36197000Y-69587000D01*
X36197000Y-70786250D01*
X36355750Y-70945000D01*
X36920000Y-70948072D01*
X37044482Y-70935812D01*
X37164180Y-70899502D01*
X37274494Y-70840537D01*
X37371185Y-70761185D01*
X37450537Y-70664494D01*
X37509502Y-70554180D01*
X37545812Y-70434482D01*
X37558072Y-70310000D01*
X37555000Y-69745750D01*
X37396250Y-69587000D01*
X36197000Y-69587000D01*
X35943000Y-69587000D01*
X35923000Y-69587000D01*
X35923000Y-69333000D01*
X35943000Y-69333000D01*
X35943000Y-68133750D01*
X36197000Y-68133750D01*
X36197000Y-69333000D01*
X37396250Y-69333000D01*
X37555000Y-69174250D01*
X37558072Y-68610000D01*
X37545812Y-68485518D01*
X37509502Y-68365820D01*
X37450537Y-68255506D01*
X37371185Y-68158815D01*
X37274494Y-68079463D01*
X37164180Y-68020498D01*
X37044482Y-67984188D01*
X36920000Y-67971928D01*
X36355750Y-67975000D01*
X36197000Y-68133750D01*
X35943000Y-68133750D01*
X35784250Y-67975000D01*
X35220000Y-67971928D01*
X35095518Y-67984188D01*
X34975820Y-68020498D01*
X34865506Y-68079463D01*
X34768815Y-68158815D01*
X34689463Y-68255506D01*
X34630498Y-68365820D01*
X34594188Y-68485518D01*
X34581928Y-68610000D01*
X34583065Y-68818758D01*
X34558491Y-68772784D01*
X34404660Y-68585340D01*
X34217216Y-68431509D01*
X34003363Y-68317202D01*
X33771318Y-68246812D01*
X33590472Y-68229000D01*
X33469528Y-68229000D01*
X33288682Y-68246812D01*
X33056637Y-68317202D01*
X32842784Y-68431509D01*
X32655340Y-68585340D01*
X32501509Y-68772784D01*
X32387202Y-68986637D01*
X32316812Y-69218682D01*
X32293044Y-69460000D01*
X32226956Y-69460000D01*
X32203188Y-69218682D01*
X32132798Y-68986637D01*
X32018491Y-68772784D01*
X31864660Y-68585340D01*
X31677216Y-68431509D01*
X31463363Y-68317202D01*
X31231318Y-68246812D01*
X31050472Y-68229000D01*
X30929528Y-68229000D01*
X30748682Y-68246812D01*
X30516637Y-68317202D01*
X30302784Y-68431509D01*
X30115340Y-68585340D01*
X29961509Y-68772784D01*
X29847202Y-68986637D01*
X29776812Y-69218682D01*
X29753044Y-69460000D01*
X29686956Y-69460000D01*
X29663188Y-69218682D01*
X29592798Y-68986637D01*
X29478491Y-68772784D01*
X29324660Y-68585340D01*
X29137216Y-68431509D01*
X28923363Y-68317202D01*
X28691318Y-68246812D01*
X28510472Y-68229000D01*
X28389528Y-68229000D01*
X28208682Y-68246812D01*
X27976637Y-68317202D01*
X27762784Y-68431509D01*
X27575340Y-68585340D01*
X27421509Y-68772784D01*
X27307202Y-68986637D01*
X27236812Y-69218682D01*
X27213044Y-69460000D01*
X25806000Y-69460000D01*
X25806000Y-64644916D01*
X38100000Y-64644916D01*
X38100000Y-64895084D01*
X38148805Y-65140445D01*
X38244541Y-65371571D01*
X38383527Y-65579578D01*
X38560422Y-65756473D01*
X38768429Y-65895459D01*
X38999555Y-65991195D01*
X39244916Y-66040000D01*
X38999555Y-66088805D01*
X38768429Y-66184541D01*
X38560422Y-66323527D01*
X38383527Y-66500422D01*
X38244541Y-66708429D01*
X38148805Y-66939555D01*
X38100000Y-67184916D01*
X38100000Y-67435084D01*
X38148805Y-67680445D01*
X38244541Y-67911571D01*
X38383527Y-68119578D01*
X38560422Y-68296473D01*
X38768429Y-68435459D01*
X38999555Y-68531195D01*
X39244916Y-68580000D01*
X39495084Y-68580000D01*
X39740445Y-68531195D01*
X39971571Y-68435459D01*
X40179578Y-68296473D01*
X40356473Y-68119578D01*
X40495459Y-67911571D01*
X40591195Y-67680445D01*
X40640000Y-67435084D01*
X40640000Y-67184916D01*
X40591195Y-66939555D01*
X40495459Y-66708429D01*
X40356473Y-66500422D01*
X40179578Y-66323527D01*
X39971571Y-66184541D01*
X39740445Y-66088805D01*
X39495084Y-66040000D01*
X39740445Y-65991195D01*
X39971571Y-65895459D01*
X40179578Y-65756473D01*
X40356473Y-65579578D01*
X40495459Y-65371571D01*
X40591195Y-65140445D01*
X40596178Y-65115391D01*
X58039000Y-65115391D01*
X58039000Y-65440609D01*
X58102447Y-65759579D01*
X58226903Y-66060042D01*
X58407585Y-66330451D01*
X58637549Y-66560415D01*
X58907958Y-66741097D01*
X59208421Y-66865553D01*
X59527391Y-66929000D01*
X59852609Y-66929000D01*
X60171579Y-66865553D01*
X60472042Y-66741097D01*
X60742451Y-66560415D01*
X60972415Y-66330451D01*
X61153097Y-66060042D01*
X61277553Y-65759579D01*
X61341000Y-65440609D01*
X61341000Y-65115391D01*
X61277553Y-64796421D01*
X61153097Y-64495958D01*
X60972415Y-64225549D01*
X60742451Y-63995585D01*
X60472042Y-63814903D01*
X60171579Y-63690447D01*
X59852609Y-63627000D01*
X59527391Y-63627000D01*
X59208421Y-63690447D01*
X58907958Y-63814903D01*
X58637549Y-63995585D01*
X58407585Y-64225549D01*
X58226903Y-64495958D01*
X58102447Y-64796421D01*
X58039000Y-65115391D01*
X40596178Y-65115391D01*
X40640000Y-64895084D01*
X40640000Y-64644916D01*
X40591195Y-64399555D01*
X40495459Y-64168429D01*
X40356473Y-63960422D01*
X40179578Y-63783527D01*
X39971571Y-63644541D01*
X39957712Y-63638800D01*
X40017359Y-63617816D01*
X40164273Y-63539289D01*
X40246626Y-63286231D01*
X39370000Y-62409605D01*
X38493374Y-63286231D01*
X38575727Y-63539289D01*
X38782808Y-63638585D01*
X38768429Y-63644541D01*
X38560422Y-63783527D01*
X38383527Y-63960422D01*
X38244541Y-64168429D01*
X38148805Y-64399555D01*
X38100000Y-64644916D01*
X25806000Y-64644916D01*
X25806000Y-62296988D01*
X37840092Y-62296988D01*
X37882557Y-62594171D01*
X37982184Y-62877359D01*
X38060711Y-63024273D01*
X38313769Y-63106626D01*
X39190395Y-62230000D01*
X39549605Y-62230000D01*
X40426231Y-63106626D01*
X40679289Y-63024273D01*
X40809086Y-62753582D01*
X40883580Y-62462770D01*
X40899908Y-62163012D01*
X40857443Y-61865829D01*
X40757816Y-61582641D01*
X40679289Y-61435727D01*
X40426231Y-61353374D01*
X39549605Y-62230000D01*
X39190395Y-62230000D01*
X38313769Y-61353374D01*
X38060711Y-61435727D01*
X37930914Y-61706418D01*
X37856420Y-61997230D01*
X37840092Y-62296988D01*
X25806000Y-62296988D01*
X25806000Y-53177391D01*
X26289000Y-53177391D01*
X26289000Y-53502609D01*
X26352447Y-53821579D01*
X26476903Y-54122042D01*
X26657585Y-54392451D01*
X26887549Y-54622415D01*
X27157958Y-54803097D01*
X27458421Y-54927553D01*
X27777391Y-54991000D01*
X28102609Y-54991000D01*
X28421579Y-54927553D01*
X28722042Y-54803097D01*
X28992451Y-54622415D01*
X29222415Y-54392451D01*
X29403097Y-54122042D01*
X29527553Y-53821579D01*
X29591000Y-53502609D01*
X29591000Y-53177391D01*
X29527553Y-52858421D01*
X29403097Y-52557958D01*
X29222415Y-52287549D01*
X28992451Y-52057585D01*
X28722042Y-51876903D01*
X28421579Y-51752447D01*
X28102609Y-51689000D01*
X27777391Y-51689000D01*
X27458421Y-51752447D01*
X27157958Y-51876903D01*
X26887549Y-52057585D01*
X26657585Y-52287549D01*
X26476903Y-52557958D01*
X26352447Y-52858421D01*
X26289000Y-53177391D01*
X25806000Y-53177391D01*
X25806000Y-51487279D01*
X37647552Y-51487279D01*
X37649999Y-51512125D01*
X37650000Y-55911143D01*
X37647552Y-55935999D01*
X37657321Y-56035191D01*
X37686254Y-56130573D01*
X37703869Y-56163527D01*
X37733241Y-56218478D01*
X37796473Y-56295526D01*
X37815780Y-56311371D01*
X38188392Y-56683983D01*
X38148805Y-56779555D01*
X38100000Y-57024916D01*
X38100000Y-57275084D01*
X38148805Y-57520445D01*
X38244541Y-57751571D01*
X38383527Y-57959578D01*
X38560422Y-58136473D01*
X38768429Y-58275459D01*
X38999555Y-58371195D01*
X39244916Y-58420000D01*
X38999555Y-58468805D01*
X38768429Y-58564541D01*
X38560422Y-58703527D01*
X38383527Y-58880422D01*
X38244541Y-59088429D01*
X38148805Y-59319555D01*
X38100000Y-59564916D01*
X38100000Y-59815084D01*
X38148805Y-60060445D01*
X38244541Y-60291571D01*
X38383527Y-60499578D01*
X38560422Y-60676473D01*
X38768429Y-60815459D01*
X38782288Y-60821200D01*
X38722641Y-60842184D01*
X38575727Y-60920711D01*
X38493374Y-61173769D01*
X39370000Y-62050395D01*
X40246626Y-61173769D01*
X40164273Y-60920711D01*
X39957192Y-60821415D01*
X39971571Y-60815459D01*
X40179578Y-60676473D01*
X40356473Y-60499578D01*
X40495459Y-60291571D01*
X40591195Y-60060445D01*
X40640000Y-59815084D01*
X40640000Y-59564916D01*
X40591195Y-59319555D01*
X40551608Y-59223984D01*
X42250222Y-57525370D01*
X42269527Y-57509527D01*
X42332759Y-57432479D01*
X42379745Y-57344575D01*
X42408678Y-57249193D01*
X42416000Y-57174854D01*
X42416000Y-57174847D01*
X42418447Y-57150001D01*
X42416000Y-57125155D01*
X42416000Y-50038713D01*
X42469413Y-50016589D01*
X42662843Y-49887343D01*
X42827342Y-49722844D01*
X42956588Y-49529414D01*
X43045614Y-49314486D01*
X43091000Y-49086319D01*
X43091000Y-48853683D01*
X43269000Y-48853683D01*
X43269000Y-49086319D01*
X43314386Y-49314486D01*
X43403412Y-49529414D01*
X43532658Y-49722844D01*
X43697157Y-49887343D01*
X43890587Y-50016589D01*
X44105515Y-50105615D01*
X44333682Y-50151001D01*
X44566318Y-50151001D01*
X44794485Y-50105615D01*
X45009413Y-50016589D01*
X45202843Y-49887343D01*
X45367342Y-49722844D01*
X45496588Y-49529414D01*
X45585614Y-49314486D01*
X45631000Y-49086319D01*
X45631000Y-48853683D01*
X45809000Y-48853683D01*
X45809000Y-49086319D01*
X45854386Y-49314486D01*
X45943412Y-49529414D01*
X46072658Y-49722844D01*
X46237157Y-49887343D01*
X46430587Y-50016589D01*
X46645515Y-50105615D01*
X46873682Y-50151001D01*
X47106318Y-50151001D01*
X47334485Y-50105615D01*
X47549413Y-50016589D01*
X47742843Y-49887343D01*
X47907342Y-49722844D01*
X48036588Y-49529414D01*
X48125614Y-49314486D01*
X48171000Y-49086319D01*
X48171000Y-48853683D01*
X48349000Y-48853683D01*
X48349000Y-49086319D01*
X48394386Y-49314486D01*
X48483412Y-49529414D01*
X48612658Y-49722844D01*
X48777157Y-49887343D01*
X48970587Y-50016589D01*
X49185515Y-50105615D01*
X49413682Y-50151001D01*
X49646318Y-50151001D01*
X49874485Y-50105615D01*
X50089413Y-50016589D01*
X50282843Y-49887343D01*
X50447342Y-49722844D01*
X50576588Y-49529414D01*
X50665614Y-49314486D01*
X50711000Y-49086319D01*
X50711000Y-48853683D01*
X50889000Y-48853683D01*
X50889000Y-49086319D01*
X50934386Y-49314486D01*
X51023412Y-49529414D01*
X51152658Y-49722844D01*
X51317157Y-49887343D01*
X51510587Y-50016589D01*
X51725515Y-50105615D01*
X51953682Y-50151001D01*
X52186318Y-50151001D01*
X52414485Y-50105615D01*
X52629413Y-50016589D01*
X52822843Y-49887343D01*
X52987342Y-49722844D01*
X53116588Y-49529414D01*
X53205614Y-49314486D01*
X53251000Y-49086319D01*
X53251000Y-48853683D01*
X53205614Y-48625516D01*
X53116588Y-48410588D01*
X52987342Y-48217158D01*
X52822843Y-48052659D01*
X52629413Y-47923413D01*
X52414485Y-47834387D01*
X52186318Y-47789001D01*
X51953682Y-47789001D01*
X51725515Y-47834387D01*
X51510587Y-47923413D01*
X51317157Y-48052659D01*
X51152658Y-48217158D01*
X51023412Y-48410588D01*
X50934386Y-48625516D01*
X50889000Y-48853683D01*
X50711000Y-48853683D01*
X50665614Y-48625516D01*
X50576588Y-48410588D01*
X50447342Y-48217158D01*
X50282843Y-48052659D01*
X50089413Y-47923413D01*
X49874485Y-47834387D01*
X49646318Y-47789001D01*
X49413682Y-47789001D01*
X49185515Y-47834387D01*
X48970587Y-47923413D01*
X48777157Y-48052659D01*
X48612658Y-48217158D01*
X48483412Y-48410588D01*
X48394386Y-48625516D01*
X48349000Y-48853683D01*
X48171000Y-48853683D01*
X48125614Y-48625516D01*
X48036588Y-48410588D01*
X47907342Y-48217158D01*
X47742843Y-48052659D01*
X47549413Y-47923413D01*
X47334485Y-47834387D01*
X47106318Y-47789001D01*
X46873682Y-47789001D01*
X46645515Y-47834387D01*
X46430587Y-47923413D01*
X46237157Y-48052659D01*
X46072658Y-48217158D01*
X45943412Y-48410588D01*
X45854386Y-48625516D01*
X45809000Y-48853683D01*
X45631000Y-48853683D01*
X45585614Y-48625516D01*
X45496588Y-48410588D01*
X45367342Y-48217158D01*
X45202843Y-48052659D01*
X45009413Y-47923413D01*
X44794485Y-47834387D01*
X44566318Y-47789001D01*
X44333682Y-47789001D01*
X44105515Y-47834387D01*
X43890587Y-47923413D01*
X43697157Y-48052659D01*
X43532658Y-48217158D01*
X43403412Y-48410588D01*
X43314386Y-48625516D01*
X43269000Y-48853683D01*
X43091000Y-48853683D01*
X43045614Y-48625516D01*
X42956588Y-48410588D01*
X42827342Y-48217158D01*
X42747888Y-48137704D01*
X44571909Y-46313683D01*
X45809000Y-46313683D01*
X45809000Y-46546319D01*
X45854386Y-46774486D01*
X45943412Y-46989414D01*
X46072658Y-47182844D01*
X46237157Y-47347343D01*
X46430587Y-47476589D01*
X46645515Y-47565615D01*
X46873682Y-47611001D01*
X47106318Y-47611001D01*
X47334485Y-47565615D01*
X47549413Y-47476589D01*
X47742843Y-47347343D01*
X47907342Y-47182844D01*
X48036588Y-46989414D01*
X48125614Y-46774486D01*
X48171000Y-46546319D01*
X48171000Y-46313683D01*
X48349000Y-46313683D01*
X48349000Y-46546319D01*
X48394386Y-46774486D01*
X48483412Y-46989414D01*
X48612658Y-47182844D01*
X48777157Y-47347343D01*
X48970587Y-47476589D01*
X49185515Y-47565615D01*
X49413682Y-47611001D01*
X49646318Y-47611001D01*
X49874485Y-47565615D01*
X50089413Y-47476589D01*
X50282843Y-47347343D01*
X50447342Y-47182844D01*
X50576588Y-46989414D01*
X50665614Y-46774486D01*
X50711000Y-46546319D01*
X50711000Y-46313683D01*
X50889000Y-46313683D01*
X50889000Y-46546319D01*
X50934386Y-46774486D01*
X51023412Y-46989414D01*
X51152658Y-47182844D01*
X51317157Y-47347343D01*
X51510587Y-47476589D01*
X51725515Y-47565615D01*
X51953682Y-47611001D01*
X52186318Y-47611001D01*
X52414485Y-47565615D01*
X52629413Y-47476589D01*
X52822843Y-47347343D01*
X52987342Y-47182844D01*
X53116588Y-46989414D01*
X53205614Y-46774486D01*
X53251000Y-46546319D01*
X53251000Y-46313683D01*
X53205614Y-46085516D01*
X53116588Y-45870588D01*
X52987342Y-45677158D01*
X52822843Y-45512659D01*
X52629413Y-45383413D01*
X52414485Y-45294387D01*
X52186318Y-45249001D01*
X51953682Y-45249001D01*
X51725515Y-45294387D01*
X51510587Y-45383413D01*
X51317157Y-45512659D01*
X51152658Y-45677158D01*
X51023412Y-45870588D01*
X50934386Y-46085516D01*
X50889000Y-46313683D01*
X50711000Y-46313683D01*
X50665614Y-46085516D01*
X50576588Y-45870588D01*
X50447342Y-45677158D01*
X50282843Y-45512659D01*
X50089413Y-45383413D01*
X49874485Y-45294387D01*
X49646318Y-45249001D01*
X49413682Y-45249001D01*
X49185515Y-45294387D01*
X48970587Y-45383413D01*
X48777157Y-45512659D01*
X48612658Y-45677158D01*
X48483412Y-45870588D01*
X48394386Y-46085516D01*
X48349000Y-46313683D01*
X48171000Y-46313683D01*
X48125614Y-46085516D01*
X48036588Y-45870588D01*
X47907342Y-45677158D01*
X47742843Y-45512659D01*
X47549413Y-45383413D01*
X47334485Y-45294387D01*
X47106318Y-45249001D01*
X46873682Y-45249001D01*
X46645515Y-45294387D01*
X46430587Y-45383413D01*
X46237157Y-45512659D01*
X46072658Y-45677158D01*
X45943412Y-45870588D01*
X45854386Y-46085516D01*
X45809000Y-46313683D01*
X44571909Y-46313683D01*
X45957140Y-44928452D01*
X46123484Y-44978912D01*
X46296984Y-44996000D01*
X46413016Y-44996000D01*
X46586516Y-44978912D01*
X46809136Y-44911381D01*
X47014303Y-44801717D01*
X47194134Y-44654134D01*
X47341717Y-44474303D01*
X47451381Y-44269136D01*
X47518912Y-44046516D01*
X47541714Y-43815000D01*
X47518912Y-43583484D01*
X47451381Y-43360864D01*
X47341717Y-43155697D01*
X47194134Y-42975866D01*
X47014303Y-42828283D01*
X46809136Y-42718619D01*
X46586516Y-42651088D01*
X46413016Y-42634000D01*
X46296984Y-42634000D01*
X46123484Y-42651088D01*
X45900864Y-42718619D01*
X45695697Y-42828283D01*
X45515866Y-42975866D01*
X45368283Y-43155697D01*
X45258619Y-43360864D01*
X45191088Y-43583484D01*
X45168286Y-43815000D01*
X45191088Y-44046516D01*
X45241548Y-44212860D01*
X41633557Y-47820852D01*
X41565515Y-47834387D01*
X41350587Y-47923413D01*
X41157157Y-48052659D01*
X40992658Y-48217158D01*
X40863412Y-48410588D01*
X40774386Y-48625516D01*
X40729000Y-48853683D01*
X40729000Y-49086319D01*
X40774386Y-49314486D01*
X40863412Y-49529414D01*
X40992658Y-49722844D01*
X41157157Y-49887343D01*
X41350587Y-50016589D01*
X41404000Y-50038713D01*
X41404001Y-56940407D01*
X39836016Y-58508392D01*
X39740445Y-58468805D01*
X39495084Y-58420000D01*
X39740445Y-58371195D01*
X39971571Y-58275459D01*
X40179578Y-58136473D01*
X40356473Y-57959578D01*
X40495459Y-57751571D01*
X40591195Y-57520445D01*
X40640000Y-57275084D01*
X40640000Y-57024916D01*
X40591195Y-56779555D01*
X40495459Y-56548429D01*
X40356473Y-56340422D01*
X40179578Y-56163527D01*
X39971571Y-56024541D01*
X39740445Y-55928805D01*
X39495084Y-55880000D01*
X39740445Y-55831195D01*
X39971571Y-55735459D01*
X40179578Y-55596473D01*
X40356473Y-55419578D01*
X40495459Y-55211571D01*
X40591195Y-54980445D01*
X40640000Y-54735084D01*
X40640000Y-54484916D01*
X40591195Y-54239555D01*
X40495459Y-54008429D01*
X40356473Y-53800422D01*
X40179578Y-53623527D01*
X39971571Y-53484541D01*
X39740445Y-53388805D01*
X39495084Y-53340000D01*
X39740445Y-53291195D01*
X39971571Y-53195459D01*
X40179578Y-53056473D01*
X40356473Y-52879578D01*
X40495459Y-52671571D01*
X40591195Y-52440445D01*
X40640000Y-52195084D01*
X40640000Y-51944916D01*
X40591195Y-51699555D01*
X40495459Y-51468429D01*
X40356473Y-51260422D01*
X40179578Y-51083527D01*
X39971571Y-50944541D01*
X39740445Y-50848805D01*
X39548287Y-50810583D01*
X39710220Y-50648650D01*
X39729527Y-50632805D01*
X39792759Y-50555757D01*
X39839745Y-50467853D01*
X39868678Y-50372471D01*
X39876000Y-50298132D01*
X39878448Y-50273278D01*
X39876000Y-50248424D01*
X39876000Y-50038713D01*
X39929413Y-50016589D01*
X40122843Y-49887343D01*
X40287342Y-49722844D01*
X40416588Y-49529414D01*
X40505614Y-49314486D01*
X40551000Y-49086319D01*
X40551000Y-48853683D01*
X40505614Y-48625516D01*
X40483490Y-48572103D01*
X42885220Y-46170373D01*
X42904527Y-46154528D01*
X42967759Y-46077480D01*
X43014745Y-45989576D01*
X43043678Y-45894194D01*
X43051000Y-45819855D01*
X43051000Y-45819848D01*
X43053447Y-45795002D01*
X43051000Y-45770156D01*
X43051000Y-44883659D01*
X43204303Y-44801717D01*
X43384134Y-44654134D01*
X43531717Y-44474303D01*
X43641381Y-44269136D01*
X43708912Y-44046516D01*
X43731714Y-43815000D01*
X43708912Y-43583484D01*
X43641381Y-43360864D01*
X43531717Y-43155697D01*
X43384134Y-42975866D01*
X43204303Y-42828283D01*
X42999136Y-42718619D01*
X42776516Y-42651088D01*
X42603016Y-42634000D01*
X42486984Y-42634000D01*
X42313484Y-42651088D01*
X42090864Y-42718619D01*
X41885697Y-42828283D01*
X41705866Y-42975866D01*
X41558283Y-43155697D01*
X41448619Y-43360864D01*
X41381088Y-43583484D01*
X41358286Y-43815000D01*
X41381088Y-44046516D01*
X41448619Y-44269136D01*
X41558283Y-44474303D01*
X41705866Y-44654134D01*
X41885697Y-44801717D01*
X42039001Y-44883659D01*
X42039001Y-45585408D01*
X39767898Y-47856511D01*
X39714485Y-47834387D01*
X39486318Y-47789001D01*
X39253682Y-47789001D01*
X39025515Y-47834387D01*
X38810587Y-47923413D01*
X38617157Y-48052659D01*
X38452658Y-48217158D01*
X38323412Y-48410588D01*
X38234386Y-48625516D01*
X38189000Y-48853683D01*
X38189000Y-49086319D01*
X38234386Y-49314486D01*
X38323412Y-49529414D01*
X38452658Y-49722844D01*
X38617157Y-49887343D01*
X38810587Y-50016589D01*
X38864001Y-50038714D01*
X38864001Y-50063685D01*
X37815784Y-51111903D01*
X37796472Y-51127752D01*
X37733240Y-51204800D01*
X37686254Y-51292705D01*
X37657321Y-51388087D01*
X37649999Y-51462426D01*
X37649999Y-51462433D01*
X37647552Y-51487279D01*
X25806000Y-51487279D01*
X25806000Y-49776186D01*
X25917157Y-49887343D01*
X26110587Y-50016589D01*
X26325515Y-50105615D01*
X26553682Y-50151001D01*
X26786318Y-50151001D01*
X27014485Y-50105615D01*
X27229413Y-50016589D01*
X27422843Y-49887343D01*
X27587342Y-49722844D01*
X27716588Y-49529414D01*
X27805614Y-49314486D01*
X27851000Y-49086319D01*
X27851000Y-48853683D01*
X28029000Y-48853683D01*
X28029000Y-49086319D01*
X28074386Y-49314486D01*
X28163412Y-49529414D01*
X28292658Y-49722844D01*
X28457157Y-49887343D01*
X28650587Y-50016589D01*
X28865515Y-50105615D01*
X29093682Y-50151001D01*
X29326318Y-50151001D01*
X29554485Y-50105615D01*
X29769413Y-50016589D01*
X29962843Y-49887343D01*
X30127342Y-49722844D01*
X30256588Y-49529414D01*
X30345614Y-49314486D01*
X30391000Y-49086319D01*
X30391000Y-48853683D01*
X30569000Y-48853683D01*
X30569000Y-49086319D01*
X30614386Y-49314486D01*
X30703412Y-49529414D01*
X30832658Y-49722844D01*
X30997157Y-49887343D01*
X31190587Y-50016589D01*
X31405515Y-50105615D01*
X31633682Y-50151001D01*
X31866318Y-50151001D01*
X32094485Y-50105615D01*
X32309413Y-50016589D01*
X32502843Y-49887343D01*
X32667342Y-49722844D01*
X32796588Y-49529414D01*
X32885614Y-49314486D01*
X32931000Y-49086319D01*
X32931000Y-48853683D01*
X32885614Y-48625516D01*
X32796588Y-48410588D01*
X32667342Y-48217158D01*
X32502843Y-48052659D01*
X32309413Y-47923413D01*
X32094485Y-47834387D01*
X31866318Y-47789001D01*
X31633682Y-47789001D01*
X31405515Y-47834387D01*
X31190587Y-47923413D01*
X30997157Y-48052659D01*
X30832658Y-48217158D01*
X30703412Y-48410588D01*
X30614386Y-48625516D01*
X30569000Y-48853683D01*
X30391000Y-48853683D01*
X30345614Y-48625516D01*
X30256588Y-48410588D01*
X30127342Y-48217158D01*
X29962843Y-48052659D01*
X29769413Y-47923413D01*
X29554485Y-47834387D01*
X29326318Y-47789001D01*
X29093682Y-47789001D01*
X28865515Y-47834387D01*
X28650587Y-47923413D01*
X28457157Y-48052659D01*
X28292658Y-48217158D01*
X28163412Y-48410588D01*
X28074386Y-48625516D01*
X28029000Y-48853683D01*
X27851000Y-48853683D01*
X27805614Y-48625516D01*
X27716588Y-48410588D01*
X27587342Y-48217158D01*
X27422843Y-48052659D01*
X27229413Y-47923413D01*
X27014485Y-47834387D01*
X26786318Y-47789001D01*
X26553682Y-47789001D01*
X26325515Y-47834387D01*
X26110587Y-47923413D01*
X25917157Y-48052659D01*
X25806000Y-48163816D01*
X25806000Y-47236186D01*
X25917157Y-47347343D01*
X26110587Y-47476589D01*
X26325515Y-47565615D01*
X26553682Y-47611001D01*
X26786318Y-47611001D01*
X27014485Y-47565615D01*
X27229413Y-47476589D01*
X27422843Y-47347343D01*
X27587342Y-47182844D01*
X27716588Y-46989414D01*
X27805614Y-46774486D01*
X27851000Y-46546319D01*
X27851000Y-46313683D01*
X27805614Y-46085516D01*
X27716588Y-45870588D01*
X27587342Y-45677158D01*
X27422843Y-45512659D01*
X27229413Y-45383413D01*
X27014485Y-45294387D01*
X26786318Y-45249001D01*
X26553682Y-45249001D01*
X26325515Y-45294387D01*
X26110587Y-45383413D01*
X25917157Y-45512659D01*
X25806000Y-45623816D01*
X25806000Y-44696186D01*
X25917157Y-44807343D01*
X26110587Y-44936589D01*
X26325515Y-45025615D01*
X26553682Y-45071001D01*
X26786318Y-45071001D01*
X27014485Y-45025615D01*
X27229413Y-44936589D01*
X27422843Y-44807343D01*
X27587342Y-44642844D01*
X27716588Y-44449414D01*
X27805614Y-44234486D01*
X27851000Y-44006319D01*
X27851000Y-43773683D01*
X27805614Y-43545516D01*
X27716588Y-43330588D01*
X27587342Y-43137158D01*
X27422843Y-42972659D01*
X27229413Y-42843413D01*
X27014485Y-42754387D01*
X26786318Y-42709001D01*
X26553682Y-42709001D01*
X26325515Y-42754387D01*
X26110587Y-42843413D01*
X25917157Y-42972659D01*
X25806000Y-43083816D01*
X25806000Y-42156186D01*
X25917157Y-42267343D01*
X26110587Y-42396589D01*
X26325515Y-42485615D01*
X26553682Y-42531001D01*
X26786318Y-42531001D01*
X27014485Y-42485615D01*
X27229413Y-42396589D01*
X27422843Y-42267343D01*
X27587342Y-42102844D01*
X27716588Y-41909414D01*
X27805614Y-41694486D01*
X27851000Y-41466319D01*
X27851000Y-41233683D01*
X27805614Y-41005516D01*
X27716588Y-40790588D01*
X27587342Y-40597158D01*
X27422843Y-40432659D01*
X27229413Y-40303413D01*
X27014485Y-40214387D01*
X26786318Y-40169001D01*
X26553682Y-40169001D01*
X26325515Y-40214387D01*
X26110587Y-40303413D01*
X25917157Y-40432659D01*
X25806000Y-40543816D01*
X25806000Y-39616186D01*
X25917157Y-39727343D01*
X26110587Y-39856589D01*
X26325515Y-39945615D01*
X26553682Y-39991001D01*
X26786318Y-39991001D01*
X27014485Y-39945615D01*
X27229413Y-39856589D01*
X27289001Y-39816774D01*
X27289001Y-39835155D01*
X27286554Y-39860001D01*
X27289001Y-39884847D01*
X27289001Y-39884854D01*
X27296323Y-39959193D01*
X27325256Y-40054575D01*
X27372242Y-40142480D01*
X27435474Y-40219528D01*
X27454786Y-40235377D01*
X30636510Y-43417102D01*
X30614386Y-43470515D01*
X30569000Y-43698682D01*
X30569000Y-43931318D01*
X30614386Y-44159485D01*
X30703412Y-44374413D01*
X30832658Y-44567843D01*
X30997157Y-44732342D01*
X31190587Y-44861588D01*
X31405515Y-44950614D01*
X31633682Y-44996000D01*
X31866318Y-44996000D01*
X32094485Y-44950614D01*
X32309413Y-44861588D01*
X32502843Y-44732342D01*
X32667342Y-44567843D01*
X32796588Y-44374413D01*
X32885614Y-44159485D01*
X32931000Y-43931318D01*
X32931000Y-43698682D01*
X32885614Y-43470515D01*
X32796588Y-43255587D01*
X32667342Y-43062157D01*
X32502843Y-42897658D01*
X32309413Y-42768412D01*
X32094485Y-42679386D01*
X31866318Y-42634000D01*
X31633682Y-42634000D01*
X31405515Y-42679386D01*
X31352102Y-42701510D01*
X28301001Y-39650410D01*
X28301001Y-34491187D01*
X28457157Y-34647343D01*
X28650587Y-34776589D01*
X28865515Y-34865615D01*
X29093682Y-34911001D01*
X29326318Y-34911001D01*
X29554485Y-34865615D01*
X29769413Y-34776589D01*
X29829001Y-34736773D01*
X29829001Y-36798785D01*
X29826554Y-36823631D01*
X29829001Y-36848477D01*
X29829001Y-36848484D01*
X29836323Y-36922823D01*
X29865256Y-37018205D01*
X29912242Y-37106110D01*
X29975474Y-37183158D01*
X29994786Y-37199007D01*
X31147788Y-38352010D01*
X30997157Y-38452658D01*
X30832658Y-38617157D01*
X30703412Y-38810587D01*
X30614386Y-39025515D01*
X30569000Y-39253682D01*
X30569000Y-39486318D01*
X30614386Y-39714485D01*
X30703412Y-39929413D01*
X30832658Y-40122843D01*
X30997157Y-40287342D01*
X31190587Y-40416588D01*
X31405515Y-40505614D01*
X31633682Y-40551000D01*
X31866318Y-40551000D01*
X32094485Y-40505614D01*
X32309413Y-40416588D01*
X32502843Y-40287342D01*
X32667342Y-40122843D01*
X32796588Y-39929413D01*
X32885614Y-39714485D01*
X32931000Y-39486318D01*
X32931000Y-39253682D01*
X32885614Y-39025515D01*
X32796588Y-38810587D01*
X32667342Y-38617157D01*
X32502843Y-38452658D01*
X32309413Y-38323412D01*
X32256000Y-38301288D01*
X32256000Y-38263484D01*
X32258448Y-38238630D01*
X32248678Y-38139437D01*
X32219745Y-38044055D01*
X32184486Y-37978091D01*
X32172759Y-37956151D01*
X32109527Y-37879103D01*
X32090220Y-37863258D01*
X30841001Y-36614040D01*
X30841001Y-34491187D01*
X30997157Y-34647343D01*
X31190587Y-34776589D01*
X31405515Y-34865615D01*
X31633682Y-34911001D01*
X31866318Y-34911001D01*
X32094485Y-34865615D01*
X32309413Y-34776589D01*
X32502843Y-34647343D01*
X32667342Y-34482844D01*
X32796588Y-34289414D01*
X32885614Y-34074486D01*
X32931000Y-33846319D01*
X32931000Y-33613683D01*
X32885614Y-33385516D01*
X32863490Y-33332103D01*
X34584000Y-31611593D01*
X34584000Y-32584345D01*
X34406318Y-32549001D01*
X34173682Y-32549001D01*
X33945515Y-32594387D01*
X33730587Y-32683413D01*
X33537157Y-32812659D01*
X33372658Y-32977158D01*
X33243412Y-33170588D01*
X33154386Y-33385516D01*
X33109000Y-33613683D01*
X33109000Y-33846319D01*
X33154386Y-34074486D01*
X33243412Y-34289414D01*
X33372658Y-34482844D01*
X33537157Y-34647343D01*
X33730587Y-34776589D01*
X33945515Y-34865615D01*
X34173682Y-34911001D01*
X34406318Y-34911001D01*
X34634485Y-34865615D01*
X34849413Y-34776589D01*
X35042843Y-34647343D01*
X35207342Y-34482844D01*
X35336588Y-34289414D01*
X35425614Y-34074486D01*
X35471000Y-33846319D01*
X35471000Y-33613683D01*
X35425614Y-33385516D01*
X35403490Y-33332103D01*
X35430219Y-33305374D01*
X35449526Y-33289529D01*
X35512758Y-33212481D01*
X35559744Y-33124577D01*
X35588677Y-33029195D01*
X35595999Y-32954856D01*
X35595999Y-32954849D01*
X35598446Y-32930003D01*
X35595999Y-32905157D01*
X35595999Y-32791000D01*
X36109572Y-32791000D01*
X36077157Y-32812659D01*
X35912658Y-32977158D01*
X35783412Y-33170588D01*
X35694386Y-33385516D01*
X35649000Y-33613683D01*
X35649000Y-33846319D01*
X35694386Y-34074486D01*
X35783412Y-34289414D01*
X35912658Y-34482844D01*
X36077157Y-34647343D01*
X36270587Y-34776589D01*
X36485515Y-34865615D01*
X36713682Y-34911001D01*
X36946318Y-34911001D01*
X37174485Y-34865615D01*
X37389413Y-34776589D01*
X37582843Y-34647343D01*
X37747342Y-34482844D01*
X37876588Y-34289414D01*
X37965614Y-34074486D01*
X38011000Y-33846319D01*
X38011000Y-33613683D01*
X37965614Y-33385516D01*
X37876588Y-33170588D01*
X37747342Y-32977158D01*
X37582843Y-32812659D01*
X37550428Y-32791000D01*
X38649572Y-32791000D01*
X38617157Y-32812659D01*
X38452658Y-32977158D01*
X38323412Y-33170588D01*
X38234386Y-33385516D01*
X38189000Y-33613683D01*
X38189000Y-33846319D01*
X38234386Y-34074486D01*
X38323412Y-34289414D01*
X38452658Y-34482844D01*
X38617157Y-34647343D01*
X38810587Y-34776589D01*
X39025515Y-34865615D01*
X39253682Y-34911001D01*
X39486318Y-34911001D01*
X39714485Y-34865615D01*
X39929413Y-34776589D01*
X40122843Y-34647343D01*
X40287342Y-34482844D01*
X40416588Y-34289414D01*
X40505614Y-34074486D01*
X40551000Y-33846319D01*
X40551000Y-33613683D01*
X40505614Y-33385516D01*
X40416588Y-33170588D01*
X40287342Y-32977158D01*
X40122843Y-32812659D01*
X40090428Y-32791000D01*
X41189572Y-32791000D01*
X41157157Y-32812659D01*
X40992658Y-32977158D01*
X40863412Y-33170588D01*
X40774386Y-33385516D01*
X40729000Y-33613683D01*
X40729000Y-33846319D01*
X40774386Y-34074486D01*
X40863412Y-34289414D01*
X40992658Y-34482844D01*
X41157157Y-34647343D01*
X41350587Y-34776589D01*
X41514798Y-34844608D01*
X33949785Y-42409622D01*
X33930473Y-42425471D01*
X33867241Y-42502519D01*
X33820255Y-42590424D01*
X33791322Y-42685806D01*
X33784000Y-42760145D01*
X33784000Y-42760152D01*
X33781553Y-42784998D01*
X33784000Y-42809844D01*
X33784001Y-47813768D01*
X33784000Y-47813778D01*
X33784000Y-47901289D01*
X33730587Y-47923413D01*
X33537157Y-48052659D01*
X33372658Y-48217158D01*
X33243412Y-48410588D01*
X33154386Y-48625516D01*
X33109000Y-48853683D01*
X33109000Y-49086319D01*
X33154386Y-49314486D01*
X33243412Y-49529414D01*
X33372658Y-49722844D01*
X33537157Y-49887343D01*
X33730587Y-50016589D01*
X33945515Y-50105615D01*
X34173682Y-50151001D01*
X34406318Y-50151001D01*
X34634485Y-50105615D01*
X34849413Y-50016589D01*
X35042843Y-49887343D01*
X35207342Y-49722844D01*
X35336588Y-49529414D01*
X35425614Y-49314486D01*
X35471000Y-49086319D01*
X35471000Y-48853683D01*
X35649000Y-48853683D01*
X35649000Y-49086319D01*
X35694386Y-49314486D01*
X35783412Y-49529414D01*
X35912658Y-49722844D01*
X36077157Y-49887343D01*
X36270587Y-50016589D01*
X36485515Y-50105615D01*
X36713682Y-50151001D01*
X36946318Y-50151001D01*
X37174485Y-50105615D01*
X37389413Y-50016589D01*
X37582843Y-49887343D01*
X37747342Y-49722844D01*
X37876588Y-49529414D01*
X37965614Y-49314486D01*
X38011000Y-49086319D01*
X38011000Y-48853683D01*
X37965614Y-48625516D01*
X37876588Y-48410588D01*
X37747342Y-48217158D01*
X37582843Y-48052659D01*
X37389413Y-47923413D01*
X37174485Y-47834387D01*
X36946318Y-47789001D01*
X36713682Y-47789001D01*
X36485515Y-47834387D01*
X36270587Y-47923413D01*
X36077157Y-48052659D01*
X35912658Y-48217158D01*
X35783412Y-48410588D01*
X35694386Y-48625516D01*
X35649000Y-48853683D01*
X35471000Y-48853683D01*
X35425614Y-48625516D01*
X35336588Y-48410588D01*
X35207342Y-48217158D01*
X35042843Y-48052659D01*
X34849413Y-47923413D01*
X34796000Y-47901289D01*
X34796000Y-44164039D01*
X37978096Y-44164039D01*
X38018754Y-44298087D01*
X38138963Y-44552420D01*
X38306481Y-44778414D01*
X38514869Y-44967385D01*
X38756119Y-45112070D01*
X39020960Y-45206909D01*
X39243000Y-45085624D01*
X39243000Y-43942000D01*
X39497000Y-43942000D01*
X39497000Y-45085624D01*
X39719040Y-45206909D01*
X39983881Y-45112070D01*
X40225131Y-44967385D01*
X40433519Y-44778414D01*
X40601037Y-44552420D01*
X40721246Y-44298087D01*
X40761904Y-44164039D01*
X40639915Y-43942000D01*
X39497000Y-43942000D01*
X39243000Y-43942000D01*
X38100085Y-43942000D01*
X37978096Y-44164039D01*
X34796000Y-44164039D01*
X34796000Y-43465961D01*
X37978096Y-43465961D01*
X38100085Y-43688000D01*
X39243000Y-43688000D01*
X39243000Y-42544376D01*
X39497000Y-42544376D01*
X39497000Y-43688000D01*
X40639915Y-43688000D01*
X40761904Y-43465961D01*
X40721246Y-43331913D01*
X40601037Y-43077580D01*
X40433519Y-42851586D01*
X40225131Y-42662615D01*
X39983881Y-42517930D01*
X39719040Y-42423091D01*
X39497000Y-42544376D01*
X39243000Y-42544376D01*
X39020960Y-42423091D01*
X38756119Y-42517930D01*
X38514869Y-42662615D01*
X38306481Y-42851586D01*
X38138963Y-43077580D01*
X38018754Y-43331913D01*
X37978096Y-43465961D01*
X34796000Y-43465961D01*
X34796000Y-42994589D01*
X36571680Y-41218909D01*
X48199000Y-41218909D01*
X48199000Y-41481093D01*
X48250150Y-41738239D01*
X48350483Y-41980466D01*
X48496145Y-42198464D01*
X48681537Y-42383856D01*
X48899535Y-42529518D01*
X49141762Y-42629851D01*
X49398908Y-42681001D01*
X49661092Y-42681001D01*
X49918238Y-42629851D01*
X50160465Y-42529518D01*
X50378463Y-42383856D01*
X50563855Y-42198464D01*
X50709517Y-41980466D01*
X50809850Y-41738239D01*
X50861000Y-41481093D01*
X50861000Y-41218909D01*
X52009000Y-41218909D01*
X52009000Y-41481093D01*
X52060150Y-41738239D01*
X52160483Y-41980466D01*
X52306145Y-42198464D01*
X52491537Y-42383856D01*
X52709535Y-42529518D01*
X52951762Y-42629851D01*
X53208908Y-42681001D01*
X53471092Y-42681001D01*
X53728238Y-42629851D01*
X53970465Y-42529518D01*
X54188463Y-42383856D01*
X54373855Y-42198464D01*
X54519517Y-41980466D01*
X54619850Y-41738239D01*
X54671000Y-41481093D01*
X54671000Y-41218909D01*
X54619850Y-40961763D01*
X54519517Y-40719536D01*
X54373855Y-40501538D01*
X54188463Y-40316146D01*
X53970465Y-40170484D01*
X53728238Y-40070151D01*
X53471092Y-40019001D01*
X53208908Y-40019001D01*
X52951762Y-40070151D01*
X52709535Y-40170484D01*
X52491537Y-40316146D01*
X52306145Y-40501538D01*
X52160483Y-40719536D01*
X52060150Y-40961763D01*
X52009000Y-41218909D01*
X50861000Y-41218909D01*
X50809850Y-40961763D01*
X50709517Y-40719536D01*
X50563855Y-40501538D01*
X50378463Y-40316146D01*
X50160465Y-40170484D01*
X49918238Y-40070151D01*
X49661092Y-40019001D01*
X49398908Y-40019001D01*
X49141762Y-40070151D01*
X48899535Y-40170484D01*
X48681537Y-40316146D01*
X48496145Y-40501538D01*
X48350483Y-40719536D01*
X48250150Y-40961763D01*
X48199000Y-41218909D01*
X36571680Y-41218909D01*
X37999845Y-39790744D01*
X38018754Y-39853087D01*
X38138963Y-40107420D01*
X38306481Y-40333414D01*
X38514869Y-40522385D01*
X38756119Y-40667070D01*
X39020960Y-40761909D01*
X39243000Y-40640624D01*
X39243000Y-39497000D01*
X39497000Y-39497000D01*
X39497000Y-40640624D01*
X39719040Y-40761909D01*
X39983881Y-40667070D01*
X40225131Y-40522385D01*
X40433519Y-40333414D01*
X40601037Y-40107420D01*
X40721246Y-39853087D01*
X40761904Y-39719039D01*
X40639915Y-39497000D01*
X39497000Y-39497000D01*
X39243000Y-39497000D01*
X39223000Y-39497000D01*
X39223000Y-39243000D01*
X39243000Y-39243000D01*
X39243000Y-39223000D01*
X39497000Y-39223000D01*
X39497000Y-39243000D01*
X40639915Y-39243000D01*
X40761904Y-39020961D01*
X40721246Y-38886913D01*
X40601037Y-38632580D01*
X40433519Y-38406586D01*
X40225131Y-38217615D01*
X39983881Y-38072930D01*
X39787856Y-38002734D01*
X41383125Y-36407465D01*
X41409386Y-36539485D01*
X41498412Y-36754413D01*
X41627658Y-36947843D01*
X41792157Y-37112342D01*
X41985587Y-37241588D01*
X42200515Y-37330614D01*
X42428682Y-37376000D01*
X42661318Y-37376000D01*
X42889485Y-37330614D01*
X43104413Y-37241588D01*
X43297843Y-37112342D01*
X43462342Y-36947843D01*
X43591588Y-36754413D01*
X43613712Y-36701000D01*
X45286288Y-36701000D01*
X45308412Y-36754413D01*
X45437658Y-36947843D01*
X45602157Y-37112342D01*
X45795587Y-37241588D01*
X46010515Y-37330614D01*
X46238682Y-37376000D01*
X46471318Y-37376000D01*
X46699485Y-37330614D01*
X46914413Y-37241588D01*
X47107843Y-37112342D01*
X47272342Y-36947843D01*
X47401588Y-36754413D01*
X47423712Y-36701000D01*
X52622409Y-36701000D01*
X54903999Y-38982591D01*
X54904000Y-47824345D01*
X54726318Y-47789001D01*
X54493682Y-47789001D01*
X54265515Y-47834387D01*
X54050587Y-47923413D01*
X53857157Y-48052659D01*
X53692658Y-48217158D01*
X53563412Y-48410588D01*
X53474386Y-48625516D01*
X53429000Y-48853683D01*
X53429000Y-49086319D01*
X53474386Y-49314486D01*
X53563412Y-49529414D01*
X53692658Y-49722844D01*
X53857157Y-49887343D01*
X54050587Y-50016589D01*
X54265515Y-50105615D01*
X54397535Y-50131876D01*
X52909413Y-51619999D01*
X52038846Y-51619999D01*
X52014000Y-51617552D01*
X51989154Y-51619999D01*
X51989147Y-51619999D01*
X51924695Y-51626347D01*
X51914807Y-51627321D01*
X51819426Y-51656254D01*
X51731522Y-51703240D01*
X51654474Y-51766472D01*
X51638625Y-51785784D01*
X51348783Y-52075626D01*
X51348777Y-52075631D01*
X51266016Y-52158392D01*
X51170445Y-52118805D01*
X50925084Y-52070000D01*
X50674916Y-52070000D01*
X50429555Y-52118805D01*
X50198429Y-52214541D01*
X49990422Y-52353527D01*
X49813527Y-52530422D01*
X49674541Y-52738429D01*
X49578805Y-52969555D01*
X49530000Y-53214916D01*
X49481195Y-52969555D01*
X49385459Y-52738429D01*
X49246473Y-52530422D01*
X49069578Y-52353527D01*
X48861571Y-52214541D01*
X48630445Y-52118805D01*
X48385084Y-52070000D01*
X48134916Y-52070000D01*
X47889555Y-52118805D01*
X47658429Y-52214541D01*
X47450422Y-52353527D01*
X47273527Y-52530422D01*
X47134541Y-52738429D01*
X47038805Y-52969555D01*
X46990000Y-53214916D01*
X46990000Y-53465084D01*
X47038805Y-53710445D01*
X47134541Y-53941571D01*
X47273527Y-54149578D01*
X47450422Y-54326473D01*
X47658429Y-54465459D01*
X47889555Y-54561195D01*
X48134916Y-54610000D01*
X48385084Y-54610000D01*
X48630445Y-54561195D01*
X48726016Y-54521608D01*
X48808777Y-54604369D01*
X48808783Y-54604374D01*
X49098625Y-54894216D01*
X49114474Y-54913528D01*
X49191522Y-54976760D01*
X49279426Y-55023746D01*
X49374807Y-55052679D01*
X49384695Y-55053653D01*
X49449147Y-55060001D01*
X49449154Y-55060001D01*
X49474000Y-55062448D01*
X49498846Y-55060001D01*
X56437875Y-55060001D01*
X56462721Y-55062448D01*
X56487567Y-55060001D01*
X56487575Y-55060001D01*
X56561914Y-55052679D01*
X56657296Y-55023746D01*
X56745200Y-54976760D01*
X56822248Y-54913528D01*
X56838097Y-54894216D01*
X58615221Y-53117093D01*
X58634528Y-53101248D01*
X58697760Y-53024200D01*
X58744746Y-52936296D01*
X58773679Y-52840914D01*
X58781001Y-52766575D01*
X58781001Y-52766567D01*
X58783448Y-52741721D01*
X58781001Y-52716875D01*
X58781001Y-49731187D01*
X58937157Y-49887343D01*
X59055000Y-49966083D01*
X59055000Y-50132562D01*
X59064188Y-50225852D01*
X59100498Y-50345550D01*
X59159463Y-50455864D01*
X59238815Y-50552556D01*
X59335506Y-50631908D01*
X59445820Y-50690873D01*
X59565518Y-50727183D01*
X59690000Y-50739443D01*
X59814481Y-50727183D01*
X59934179Y-50690873D01*
X60044493Y-50631908D01*
X60141185Y-50552556D01*
X60220537Y-50455865D01*
X60279502Y-50345551D01*
X60315812Y-50225853D01*
X60325000Y-50132563D01*
X60325000Y-49966083D01*
X60442843Y-49887343D01*
X60607342Y-49722844D01*
X60736588Y-49529414D01*
X60825614Y-49314486D01*
X60871000Y-49086319D01*
X60871000Y-48853683D01*
X60825614Y-48625516D01*
X60736588Y-48410588D01*
X60607342Y-48217158D01*
X60442843Y-48052659D01*
X60249413Y-47923413D01*
X60034485Y-47834387D01*
X59806318Y-47789001D01*
X59573682Y-47789001D01*
X59345515Y-47834387D01*
X59130587Y-47923413D01*
X58937157Y-48052659D01*
X58781001Y-48208815D01*
X58781001Y-40390026D01*
X58783448Y-40365180D01*
X58781001Y-40340334D01*
X58781001Y-40340327D01*
X58773679Y-40265988D01*
X58744746Y-40170606D01*
X58697760Y-40082702D01*
X58634528Y-40005654D01*
X58615221Y-39989809D01*
X53395180Y-34769769D01*
X53379336Y-34750463D01*
X53302288Y-34687231D01*
X53214384Y-34640245D01*
X53119002Y-34611312D01*
X53044663Y-34603990D01*
X53044656Y-34603990D01*
X53019810Y-34601543D01*
X52994963Y-34603990D01*
X52866196Y-34603990D01*
X52987342Y-34482844D01*
X53116588Y-34289414D01*
X53205614Y-34074486D01*
X53251000Y-33846319D01*
X53251000Y-33613683D01*
X53429000Y-33613683D01*
X53429000Y-33846319D01*
X53474386Y-34074486D01*
X53563412Y-34289414D01*
X53692658Y-34482844D01*
X53857157Y-34647343D01*
X54050587Y-34776589D01*
X54265515Y-34865615D01*
X54493682Y-34911001D01*
X54726318Y-34911001D01*
X54954485Y-34865615D01*
X55169413Y-34776589D01*
X55362843Y-34647343D01*
X55527342Y-34482844D01*
X55656588Y-34289414D01*
X55745614Y-34074486D01*
X55791000Y-33846319D01*
X55791000Y-33613683D01*
X55969000Y-33613683D01*
X55969000Y-33846319D01*
X56014386Y-34074486D01*
X56103412Y-34289414D01*
X56232658Y-34482844D01*
X56397157Y-34647343D01*
X56590587Y-34776589D01*
X56805515Y-34865615D01*
X57033682Y-34911001D01*
X57266318Y-34911001D01*
X57494485Y-34865615D01*
X57709413Y-34776589D01*
X57902843Y-34647343D01*
X58067342Y-34482844D01*
X58196588Y-34289414D01*
X58285614Y-34074486D01*
X58331000Y-33846319D01*
X58331000Y-33613683D01*
X58285614Y-33385516D01*
X58196588Y-33170588D01*
X58067342Y-32977158D01*
X57902843Y-32812659D01*
X57709413Y-32683413D01*
X57494485Y-32594387D01*
X57266318Y-32549001D01*
X57033682Y-32549001D01*
X56805515Y-32594387D01*
X56590587Y-32683413D01*
X56397157Y-32812659D01*
X56232658Y-32977158D01*
X56103412Y-33170588D01*
X56014386Y-33385516D01*
X55969000Y-33613683D01*
X55791000Y-33613683D01*
X55745614Y-33385516D01*
X55656588Y-33170588D01*
X55527342Y-32977158D01*
X55362843Y-32812659D01*
X55169413Y-32683413D01*
X54954485Y-32594387D01*
X54726318Y-32549001D01*
X54493682Y-32549001D01*
X54265515Y-32594387D01*
X54050587Y-32683413D01*
X53857157Y-32812659D01*
X53692658Y-32977158D01*
X53563412Y-33170588D01*
X53474386Y-33385516D01*
X53429000Y-33613683D01*
X53251000Y-33613683D01*
X53205614Y-33385516D01*
X53116588Y-33170588D01*
X52987342Y-32977158D01*
X52822843Y-32812659D01*
X52629413Y-32683413D01*
X52414485Y-32594387D01*
X52186318Y-32549001D01*
X51953682Y-32549001D01*
X51725515Y-32594387D01*
X51510587Y-32683413D01*
X51317157Y-32812659D01*
X51152658Y-32977158D01*
X51023412Y-33170588D01*
X50934386Y-33385516D01*
X50889000Y-33613683D01*
X50889000Y-33846319D01*
X50934386Y-34074486D01*
X51023412Y-34289414D01*
X51152658Y-34482844D01*
X51273806Y-34603992D01*
X51119583Y-34603992D01*
X50643490Y-34127899D01*
X50665614Y-34074486D01*
X50711000Y-33846319D01*
X50711000Y-33613683D01*
X50665614Y-33385516D01*
X50576588Y-33170588D01*
X50447342Y-32977158D01*
X50282843Y-32812659D01*
X50089413Y-32683413D01*
X49874485Y-32594387D01*
X49646318Y-32549001D01*
X49413682Y-32549001D01*
X49185515Y-32594387D01*
X48970587Y-32683413D01*
X48777157Y-32812659D01*
X48612658Y-32977158D01*
X48483412Y-33170588D01*
X48394386Y-33385516D01*
X48349000Y-33613683D01*
X48349000Y-33846319D01*
X48394386Y-34074486D01*
X48483412Y-34289414D01*
X48612658Y-34482844D01*
X48777157Y-34647343D01*
X48970587Y-34776589D01*
X49185515Y-34865615D01*
X49413682Y-34911001D01*
X49646318Y-34911001D01*
X49874485Y-34865615D01*
X49927898Y-34843491D01*
X50138407Y-35054000D01*
X49029591Y-35054000D01*
X48103490Y-34127899D01*
X48125614Y-34074486D01*
X48171000Y-33846319D01*
X48171000Y-33613683D01*
X48125614Y-33385516D01*
X48036588Y-33170588D01*
X47907342Y-32977158D01*
X47742843Y-32812659D01*
X47549413Y-32683413D01*
X47334485Y-32594387D01*
X47106318Y-32549001D01*
X47053668Y-32549001D01*
X47051500Y-32526986D01*
X47051500Y-32417510D01*
X47207227Y-32353005D01*
X47436035Y-32200120D01*
X47630620Y-32005535D01*
X47783505Y-31776727D01*
X47848010Y-31621000D01*
X47957494Y-31621000D01*
X47982340Y-31623447D01*
X48007186Y-31621000D01*
X48007194Y-31621000D01*
X48081533Y-31613678D01*
X48176915Y-31584745D01*
X48264819Y-31537759D01*
X48341867Y-31474527D01*
X48357716Y-31455215D01*
X48989035Y-30823896D01*
X48958500Y-30977408D01*
X48958500Y-31252592D01*
X49012186Y-31522490D01*
X49117495Y-31776727D01*
X49270380Y-32005535D01*
X49464965Y-32200120D01*
X49693773Y-32353005D01*
X49948010Y-32458314D01*
X50217908Y-32512000D01*
X50493092Y-32512000D01*
X50762990Y-32458314D01*
X51017227Y-32353005D01*
X51246035Y-32200120D01*
X51440620Y-32005535D01*
X51593505Y-31776727D01*
X51658010Y-31621000D01*
X52862990Y-31621000D01*
X52927495Y-31776727D01*
X53080380Y-32005535D01*
X53274965Y-32200120D01*
X53503773Y-32353005D01*
X53758010Y-32458314D01*
X54027908Y-32512000D01*
X54303092Y-32512000D01*
X54572990Y-32458314D01*
X54827227Y-32353005D01*
X55056035Y-32200120D01*
X55250620Y-32005535D01*
X55403505Y-31776727D01*
X55508814Y-31522490D01*
X55562500Y-31252592D01*
X55562500Y-30977408D01*
X55508814Y-30707510D01*
X55403505Y-30453273D01*
X55287727Y-30279999D01*
X56424908Y-30279999D01*
X56696691Y-30551782D01*
X56632186Y-30707510D01*
X56578500Y-30977408D01*
X56578500Y-31252592D01*
X56632186Y-31522490D01*
X56737495Y-31776727D01*
X56890380Y-32005535D01*
X57084965Y-32200120D01*
X57313773Y-32353005D01*
X57568010Y-32458314D01*
X57837908Y-32512000D01*
X58113092Y-32512000D01*
X58382990Y-32458314D01*
X58637227Y-32353005D01*
X58866035Y-32200120D01*
X59060620Y-32005535D01*
X59213505Y-31776727D01*
X59318814Y-31522490D01*
X59372500Y-31252592D01*
X59372500Y-30977408D01*
X59318814Y-30707510D01*
X59213505Y-30453273D01*
X59060620Y-30224465D01*
X58866035Y-30029880D01*
X58637227Y-29876995D01*
X58382990Y-29771686D01*
X58113092Y-29718000D01*
X57837908Y-29718000D01*
X57568010Y-29771686D01*
X57412282Y-29836191D01*
X57009875Y-29433784D01*
X56994026Y-29414472D01*
X56916978Y-29351240D01*
X56829074Y-29304254D01*
X56733692Y-29275321D01*
X56659353Y-29267999D01*
X56659345Y-29267999D01*
X56634499Y-29265552D01*
X56609653Y-29267999D01*
X49348195Y-29267999D01*
X49323341Y-29265551D01*
X49298487Y-29267999D01*
X49224148Y-29275321D01*
X49128766Y-29304254D01*
X49040862Y-29351240D01*
X48963814Y-29414472D01*
X48947969Y-29433779D01*
X47825966Y-30555783D01*
X47783505Y-30453273D01*
X47630620Y-30224465D01*
X47436035Y-30029880D01*
X47207227Y-29876995D01*
X46952990Y-29771686D01*
X46683092Y-29718000D01*
X46407908Y-29718000D01*
X46138010Y-29771686D01*
X45883773Y-29876995D01*
X45654965Y-30029880D01*
X45460380Y-30224465D01*
X45307495Y-30453273D01*
X45202186Y-30707510D01*
X45148500Y-30977408D01*
X45148500Y-31252592D01*
X45202186Y-31522490D01*
X45307495Y-31776727D01*
X45460380Y-32005535D01*
X45654965Y-32200120D01*
X45883773Y-32353005D01*
X45986282Y-32395466D01*
X45382262Y-32999487D01*
X45367342Y-32977158D01*
X45202843Y-32812659D01*
X45009413Y-32683413D01*
X44797722Y-32595728D01*
X44826910Y-32541121D01*
X44850125Y-32464590D01*
X44857964Y-32385000D01*
X44856000Y-32365059D01*
X44856000Y-28451823D01*
X49388282Y-28451823D01*
X49485978Y-28717860D01*
X49778321Y-28860348D01*
X50092844Y-28943064D01*
X50417462Y-28962831D01*
X50739698Y-28918888D01*
X51047170Y-28812924D01*
X51225022Y-28717860D01*
X51322718Y-28451823D01*
X50355500Y-27484605D01*
X49388282Y-28451823D01*
X44856000Y-28451823D01*
X44856000Y-27366962D01*
X48697669Y-27366962D01*
X48741612Y-27689198D01*
X48847576Y-27996670D01*
X48942640Y-28174522D01*
X49208677Y-28272218D01*
X50175895Y-27305000D01*
X50535105Y-27305000D01*
X51502323Y-28272218D01*
X51768360Y-28174522D01*
X51910848Y-27882179D01*
X51993564Y-27567656D01*
X52013331Y-27243038D01*
X51969388Y-26920802D01*
X51863424Y-26613330D01*
X51768360Y-26435478D01*
X51502323Y-26337782D01*
X50535105Y-27305000D01*
X50175895Y-27305000D01*
X49208677Y-26337782D01*
X48942640Y-26435478D01*
X48800152Y-26727821D01*
X48717436Y-27042344D01*
X48697669Y-27366962D01*
X44856000Y-27366962D01*
X44856000Y-25806000D01*
X49647134Y-25806000D01*
X49485978Y-25892140D01*
X49485978Y-25892140D01*
G37*
X49485978Y-25892140D02*
X49388282Y-26158177D01*
X50355500Y-27125395D01*
X51322718Y-26158177D01*
X51225022Y-25892140D01*
X51048288Y-25806000D01*
X59919001Y-25806000D01*
X59919000Y-32365059D01*
X59917036Y-32385000D01*
X59924875Y-32464590D01*
X59948090Y-32541121D01*
X59951317Y-32547158D01*
X58890000Y-32547158D01*
X58815311Y-32554514D01*
X58743492Y-32576300D01*
X58677304Y-32611679D01*
X58619289Y-32659290D01*
X58571678Y-32717305D01*
X58536299Y-32783493D01*
X58514513Y-32855312D01*
X58507157Y-32930001D01*
X58507157Y-34530001D01*
X58514513Y-34604690D01*
X58536299Y-34676509D01*
X58571678Y-34742697D01*
X58619289Y-34800712D01*
X58677304Y-34848323D01*
X58743492Y-34883702D01*
X58815311Y-34905488D01*
X58890000Y-34912844D01*
X60490000Y-34912844D01*
X60564689Y-34905488D01*
X60636508Y-34883702D01*
X60702696Y-34848323D01*
X60760711Y-34800712D01*
X60808322Y-34742697D01*
X60843701Y-34676509D01*
X60865487Y-34604690D01*
X60872843Y-34530001D01*
X60872843Y-32930001D01*
X60865487Y-32855312D01*
X60845978Y-32791000D01*
X61824000Y-32791000D01*
X61824001Y-65385136D01*
X61781449Y-65819115D01*
X61661181Y-66217464D01*
X61465831Y-66584862D01*
X61202845Y-66907315D01*
X60882226Y-67172554D01*
X60516204Y-67370461D01*
X60118708Y-67493506D01*
X59685863Y-67539000D01*
X43199941Y-67539000D01*
X43180000Y-67537036D01*
X43160060Y-67539000D01*
X43160059Y-67539000D01*
X43100410Y-67544875D01*
X43023879Y-67568090D01*
X42953347Y-67605790D01*
X42891526Y-67656526D01*
X42840790Y-67718347D01*
X42803090Y-67788879D01*
X42779875Y-67865410D01*
X42772036Y-67945000D01*
X42774001Y-67964951D01*
X42774000Y-73254000D01*
X27959854Y-73254000D01*
X27525885Y-73211449D01*
X27127536Y-73091181D01*
X26760138Y-72895831D01*
X26437685Y-72632845D01*
X26172446Y-72312226D01*
X25974539Y-71946204D01*
X25851494Y-71548708D01*
X25806000Y-71115863D01*
X25806000Y-69460000D01*
X27213044Y-69460000D01*
X27236812Y-69701318D01*
X27307202Y-69933363D01*
X27421509Y-70147216D01*
X27575340Y-70334660D01*
X27762784Y-70488491D01*
X27976637Y-70602798D01*
X28208682Y-70673188D01*
X28389528Y-70691000D01*
X28510472Y-70691000D01*
X28691318Y-70673188D01*
X28923363Y-70602798D01*
X29137216Y-70488491D01*
X29324660Y-70334660D01*
X29478491Y-70147216D01*
X29592798Y-69933363D01*
X29663188Y-69701318D01*
X29686956Y-69460000D01*
X29753044Y-69460000D01*
X29776812Y-69701318D01*
X29847202Y-69933363D01*
X29961509Y-70147216D01*
X30115340Y-70334660D01*
X30302784Y-70488491D01*
X30516637Y-70602798D01*
X30748682Y-70673188D01*
X30929528Y-70691000D01*
X31050472Y-70691000D01*
X31231318Y-70673188D01*
X31463363Y-70602798D01*
X31677216Y-70488491D01*
X31864660Y-70334660D01*
X32018491Y-70147216D01*
X32132798Y-69933363D01*
X32203188Y-69701318D01*
X32226956Y-69460000D01*
X32293044Y-69460000D01*
X32316812Y-69701318D01*
X32387202Y-69933363D01*
X32501509Y-70147216D01*
X32655340Y-70334660D01*
X32842784Y-70488491D01*
X33056637Y-70602798D01*
X33288682Y-70673188D01*
X33469528Y-70691000D01*
X33590472Y-70691000D01*
X33771318Y-70673188D01*
X34003363Y-70602798D01*
X34217216Y-70488491D01*
X34404660Y-70334660D01*
X34558491Y-70147216D01*
X34583065Y-70101242D01*
X34581928Y-70310000D01*
X34594188Y-70434482D01*
X34630498Y-70554180D01*
X34689463Y-70664494D01*
X34768815Y-70761185D01*
X34865506Y-70840537D01*
X34975820Y-70899502D01*
X35095518Y-70935812D01*
X35220000Y-70948072D01*
X35784250Y-70945000D01*
X35943000Y-70786250D01*
X35943000Y-69587000D01*
X36197000Y-69587000D01*
X36197000Y-70786250D01*
X36355750Y-70945000D01*
X36920000Y-70948072D01*
X37044482Y-70935812D01*
X37164180Y-70899502D01*
X37274494Y-70840537D01*
X37371185Y-70761185D01*
X37450537Y-70664494D01*
X37509502Y-70554180D01*
X37545812Y-70434482D01*
X37558072Y-70310000D01*
X37555000Y-69745750D01*
X37396250Y-69587000D01*
X36197000Y-69587000D01*
X35943000Y-69587000D01*
X35923000Y-69587000D01*
X35923000Y-69333000D01*
X35943000Y-69333000D01*
X35943000Y-68133750D01*
X36197000Y-68133750D01*
X36197000Y-69333000D01*
X37396250Y-69333000D01*
X37555000Y-69174250D01*
X37558072Y-68610000D01*
X37545812Y-68485518D01*
X37509502Y-68365820D01*
X37450537Y-68255506D01*
X37371185Y-68158815D01*
X37274494Y-68079463D01*
X37164180Y-68020498D01*
X37044482Y-67984188D01*
X36920000Y-67971928D01*
X36355750Y-67975000D01*
X36197000Y-68133750D01*
X35943000Y-68133750D01*
X35784250Y-67975000D01*
X35220000Y-67971928D01*
X35095518Y-67984188D01*
X34975820Y-68020498D01*
X34865506Y-68079463D01*
X34768815Y-68158815D01*
X34689463Y-68255506D01*
X34630498Y-68365820D01*
X34594188Y-68485518D01*
X34581928Y-68610000D01*
X34583065Y-68818758D01*
X34558491Y-68772784D01*
X34404660Y-68585340D01*
X34217216Y-68431509D01*
X34003363Y-68317202D01*
X33771318Y-68246812D01*
X33590472Y-68229000D01*
X33469528Y-68229000D01*
X33288682Y-68246812D01*
X33056637Y-68317202D01*
X32842784Y-68431509D01*
X32655340Y-68585340D01*
X32501509Y-68772784D01*
X32387202Y-68986637D01*
X32316812Y-69218682D01*
X32293044Y-69460000D01*
X32226956Y-69460000D01*
X32203188Y-69218682D01*
X32132798Y-68986637D01*
X32018491Y-68772784D01*
X31864660Y-68585340D01*
X31677216Y-68431509D01*
X31463363Y-68317202D01*
X31231318Y-68246812D01*
X31050472Y-68229000D01*
X30929528Y-68229000D01*
X30748682Y-68246812D01*
X30516637Y-68317202D01*
X30302784Y-68431509D01*
X30115340Y-68585340D01*
X29961509Y-68772784D01*
X29847202Y-68986637D01*
X29776812Y-69218682D01*
X29753044Y-69460000D01*
X29686956Y-69460000D01*
X29663188Y-69218682D01*
X29592798Y-68986637D01*
X29478491Y-68772784D01*
X29324660Y-68585340D01*
X29137216Y-68431509D01*
X28923363Y-68317202D01*
X28691318Y-68246812D01*
X28510472Y-68229000D01*
X28389528Y-68229000D01*
X28208682Y-68246812D01*
X27976637Y-68317202D01*
X27762784Y-68431509D01*
X27575340Y-68585340D01*
X27421509Y-68772784D01*
X27307202Y-68986637D01*
X27236812Y-69218682D01*
X27213044Y-69460000D01*
X25806000Y-69460000D01*
X25806000Y-64644916D01*
X38100000Y-64644916D01*
X38100000Y-64895084D01*
X38148805Y-65140445D01*
X38244541Y-65371571D01*
X38383527Y-65579578D01*
X38560422Y-65756473D01*
X38768429Y-65895459D01*
X38999555Y-65991195D01*
X39244916Y-66040000D01*
X38999555Y-66088805D01*
X38768429Y-66184541D01*
X38560422Y-66323527D01*
X38383527Y-66500422D01*
X38244541Y-66708429D01*
X38148805Y-66939555D01*
X38100000Y-67184916D01*
X38100000Y-67435084D01*
X38148805Y-67680445D01*
X38244541Y-67911571D01*
X38383527Y-68119578D01*
X38560422Y-68296473D01*
X38768429Y-68435459D01*
X38999555Y-68531195D01*
X39244916Y-68580000D01*
X39495084Y-68580000D01*
X39740445Y-68531195D01*
X39971571Y-68435459D01*
X40179578Y-68296473D01*
X40356473Y-68119578D01*
X40495459Y-67911571D01*
X40591195Y-67680445D01*
X40640000Y-67435084D01*
X40640000Y-67184916D01*
X40591195Y-66939555D01*
X40495459Y-66708429D01*
X40356473Y-66500422D01*
X40179578Y-66323527D01*
X39971571Y-66184541D01*
X39740445Y-66088805D01*
X39495084Y-66040000D01*
X39740445Y-65991195D01*
X39971571Y-65895459D01*
X40179578Y-65756473D01*
X40356473Y-65579578D01*
X40495459Y-65371571D01*
X40591195Y-65140445D01*
X40596178Y-65115391D01*
X58039000Y-65115391D01*
X58039000Y-65440609D01*
X58102447Y-65759579D01*
X58226903Y-66060042D01*
X58407585Y-66330451D01*
X58637549Y-66560415D01*
X58907958Y-66741097D01*
X59208421Y-66865553D01*
X59527391Y-66929000D01*
X59852609Y-66929000D01*
X60171579Y-66865553D01*
X60472042Y-66741097D01*
X60742451Y-66560415D01*
X60972415Y-66330451D01*
X61153097Y-66060042D01*
X61277553Y-65759579D01*
X61341000Y-65440609D01*
X61341000Y-65115391D01*
X61277553Y-64796421D01*
X61153097Y-64495958D01*
X60972415Y-64225549D01*
X60742451Y-63995585D01*
X60472042Y-63814903D01*
X60171579Y-63690447D01*
X59852609Y-63627000D01*
X59527391Y-63627000D01*
X59208421Y-63690447D01*
X58907958Y-63814903D01*
X58637549Y-63995585D01*
X58407585Y-64225549D01*
X58226903Y-64495958D01*
X58102447Y-64796421D01*
X58039000Y-65115391D01*
X40596178Y-65115391D01*
X40640000Y-64895084D01*
X40640000Y-64644916D01*
X40591195Y-64399555D01*
X40495459Y-64168429D01*
X40356473Y-63960422D01*
X40179578Y-63783527D01*
X39971571Y-63644541D01*
X39957712Y-63638800D01*
X40017359Y-63617816D01*
X40164273Y-63539289D01*
X40246626Y-63286231D01*
X39370000Y-62409605D01*
X38493374Y-63286231D01*
X38575727Y-63539289D01*
X38782808Y-63638585D01*
X38768429Y-63644541D01*
X38560422Y-63783527D01*
X38383527Y-63960422D01*
X38244541Y-64168429D01*
X38148805Y-64399555D01*
X38100000Y-64644916D01*
X25806000Y-64644916D01*
X25806000Y-62296988D01*
X37840092Y-62296988D01*
X37882557Y-62594171D01*
X37982184Y-62877359D01*
X38060711Y-63024273D01*
X38313769Y-63106626D01*
X39190395Y-62230000D01*
X39549605Y-62230000D01*
X40426231Y-63106626D01*
X40679289Y-63024273D01*
X40809086Y-62753582D01*
X40883580Y-62462770D01*
X40899908Y-62163012D01*
X40857443Y-61865829D01*
X40757816Y-61582641D01*
X40679289Y-61435727D01*
X40426231Y-61353374D01*
X39549605Y-62230000D01*
X39190395Y-62230000D01*
X38313769Y-61353374D01*
X38060711Y-61435727D01*
X37930914Y-61706418D01*
X37856420Y-61997230D01*
X37840092Y-62296988D01*
X25806000Y-62296988D01*
X25806000Y-53177391D01*
X26289000Y-53177391D01*
X26289000Y-53502609D01*
X26352447Y-53821579D01*
X26476903Y-54122042D01*
X26657585Y-54392451D01*
X26887549Y-54622415D01*
X27157958Y-54803097D01*
X27458421Y-54927553D01*
X27777391Y-54991000D01*
X28102609Y-54991000D01*
X28421579Y-54927553D01*
X28722042Y-54803097D01*
X28992451Y-54622415D01*
X29222415Y-54392451D01*
X29403097Y-54122042D01*
X29527553Y-53821579D01*
X29591000Y-53502609D01*
X29591000Y-53177391D01*
X29527553Y-52858421D01*
X29403097Y-52557958D01*
X29222415Y-52287549D01*
X28992451Y-52057585D01*
X28722042Y-51876903D01*
X28421579Y-51752447D01*
X28102609Y-51689000D01*
X27777391Y-51689000D01*
X27458421Y-51752447D01*
X27157958Y-51876903D01*
X26887549Y-52057585D01*
X26657585Y-52287549D01*
X26476903Y-52557958D01*
X26352447Y-52858421D01*
X26289000Y-53177391D01*
X25806000Y-53177391D01*
X25806000Y-51487279D01*
X37647552Y-51487279D01*
X37649999Y-51512125D01*
X37650000Y-55911143D01*
X37647552Y-55935999D01*
X37657321Y-56035191D01*
X37686254Y-56130573D01*
X37703869Y-56163527D01*
X37733241Y-56218478D01*
X37796473Y-56295526D01*
X37815780Y-56311371D01*
X38188392Y-56683983D01*
X38148805Y-56779555D01*
X38100000Y-57024916D01*
X38100000Y-57275084D01*
X38148805Y-57520445D01*
X38244541Y-57751571D01*
X38383527Y-57959578D01*
X38560422Y-58136473D01*
X38768429Y-58275459D01*
X38999555Y-58371195D01*
X39244916Y-58420000D01*
X38999555Y-58468805D01*
X38768429Y-58564541D01*
X38560422Y-58703527D01*
X38383527Y-58880422D01*
X38244541Y-59088429D01*
X38148805Y-59319555D01*
X38100000Y-59564916D01*
X38100000Y-59815084D01*
X38148805Y-60060445D01*
X38244541Y-60291571D01*
X38383527Y-60499578D01*
X38560422Y-60676473D01*
X38768429Y-60815459D01*
X38782288Y-60821200D01*
X38722641Y-60842184D01*
X38575727Y-60920711D01*
X38493374Y-61173769D01*
X39370000Y-62050395D01*
X40246626Y-61173769D01*
X40164273Y-60920711D01*
X39957192Y-60821415D01*
X39971571Y-60815459D01*
X40179578Y-60676473D01*
X40356473Y-60499578D01*
X40495459Y-60291571D01*
X40591195Y-60060445D01*
X40640000Y-59815084D01*
X40640000Y-59564916D01*
X40591195Y-59319555D01*
X40551608Y-59223984D01*
X42250222Y-57525370D01*
X42269527Y-57509527D01*
X42332759Y-57432479D01*
X42379745Y-57344575D01*
X42408678Y-57249193D01*
X42416000Y-57174854D01*
X42416000Y-57174847D01*
X42418447Y-57150001D01*
X42416000Y-57125155D01*
X42416000Y-50038713D01*
X42469413Y-50016589D01*
X42662843Y-49887343D01*
X42827342Y-49722844D01*
X42956588Y-49529414D01*
X43045614Y-49314486D01*
X43091000Y-49086319D01*
X43091000Y-48853683D01*
X43269000Y-48853683D01*
X43269000Y-49086319D01*
X43314386Y-49314486D01*
X43403412Y-49529414D01*
X43532658Y-49722844D01*
X43697157Y-49887343D01*
X43890587Y-50016589D01*
X44105515Y-50105615D01*
X44333682Y-50151001D01*
X44566318Y-50151001D01*
X44794485Y-50105615D01*
X45009413Y-50016589D01*
X45202843Y-49887343D01*
X45367342Y-49722844D01*
X45496588Y-49529414D01*
X45585614Y-49314486D01*
X45631000Y-49086319D01*
X45631000Y-48853683D01*
X45809000Y-48853683D01*
X45809000Y-49086319D01*
X45854386Y-49314486D01*
X45943412Y-49529414D01*
X46072658Y-49722844D01*
X46237157Y-49887343D01*
X46430587Y-50016589D01*
X46645515Y-50105615D01*
X46873682Y-50151001D01*
X47106318Y-50151001D01*
X47334485Y-50105615D01*
X47549413Y-50016589D01*
X47742843Y-49887343D01*
X47907342Y-49722844D01*
X48036588Y-49529414D01*
X48125614Y-49314486D01*
X48171000Y-49086319D01*
X48171000Y-48853683D01*
X48349000Y-48853683D01*
X48349000Y-49086319D01*
X48394386Y-49314486D01*
X48483412Y-49529414D01*
X48612658Y-49722844D01*
X48777157Y-49887343D01*
X48970587Y-50016589D01*
X49185515Y-50105615D01*
X49413682Y-50151001D01*
X49646318Y-50151001D01*
X49874485Y-50105615D01*
X50089413Y-50016589D01*
X50282843Y-49887343D01*
X50447342Y-49722844D01*
X50576588Y-49529414D01*
X50665614Y-49314486D01*
X50711000Y-49086319D01*
X50711000Y-48853683D01*
X50889000Y-48853683D01*
X50889000Y-49086319D01*
X50934386Y-49314486D01*
X51023412Y-49529414D01*
X51152658Y-49722844D01*
X51317157Y-49887343D01*
X51510587Y-50016589D01*
X51725515Y-50105615D01*
X51953682Y-50151001D01*
X52186318Y-50151001D01*
X52414485Y-50105615D01*
X52629413Y-50016589D01*
X52822843Y-49887343D01*
X52987342Y-49722844D01*
X53116588Y-49529414D01*
X53205614Y-49314486D01*
X53251000Y-49086319D01*
X53251000Y-48853683D01*
X53205614Y-48625516D01*
X53116588Y-48410588D01*
X52987342Y-48217158D01*
X52822843Y-48052659D01*
X52629413Y-47923413D01*
X52414485Y-47834387D01*
X52186318Y-47789001D01*
X51953682Y-47789001D01*
X51725515Y-47834387D01*
X51510587Y-47923413D01*
X51317157Y-48052659D01*
X51152658Y-48217158D01*
X51023412Y-48410588D01*
X50934386Y-48625516D01*
X50889000Y-48853683D01*
X50711000Y-48853683D01*
X50665614Y-48625516D01*
X50576588Y-48410588D01*
X50447342Y-48217158D01*
X50282843Y-48052659D01*
X50089413Y-47923413D01*
X49874485Y-47834387D01*
X49646318Y-47789001D01*
X49413682Y-47789001D01*
X49185515Y-47834387D01*
X48970587Y-47923413D01*
X48777157Y-48052659D01*
X48612658Y-48217158D01*
X48483412Y-48410588D01*
X48394386Y-48625516D01*
X48349000Y-48853683D01*
X48171000Y-48853683D01*
X48125614Y-48625516D01*
X48036588Y-48410588D01*
X47907342Y-48217158D01*
X47742843Y-48052659D01*
X47549413Y-47923413D01*
X47334485Y-47834387D01*
X47106318Y-47789001D01*
X46873682Y-47789001D01*
X46645515Y-47834387D01*
X46430587Y-47923413D01*
X46237157Y-48052659D01*
X46072658Y-48217158D01*
X45943412Y-48410588D01*
X45854386Y-48625516D01*
X45809000Y-48853683D01*
X45631000Y-48853683D01*
X45585614Y-48625516D01*
X45496588Y-48410588D01*
X45367342Y-48217158D01*
X45202843Y-48052659D01*
X45009413Y-47923413D01*
X44794485Y-47834387D01*
X44566318Y-47789001D01*
X44333682Y-47789001D01*
X44105515Y-47834387D01*
X43890587Y-47923413D01*
X43697157Y-48052659D01*
X43532658Y-48217158D01*
X43403412Y-48410588D01*
X43314386Y-48625516D01*
X43269000Y-48853683D01*
X43091000Y-48853683D01*
X43045614Y-48625516D01*
X42956588Y-48410588D01*
X42827342Y-48217158D01*
X42747888Y-48137704D01*
X44571909Y-46313683D01*
X45809000Y-46313683D01*
X45809000Y-46546319D01*
X45854386Y-46774486D01*
X45943412Y-46989414D01*
X46072658Y-47182844D01*
X46237157Y-47347343D01*
X46430587Y-47476589D01*
X46645515Y-47565615D01*
X46873682Y-47611001D01*
X47106318Y-47611001D01*
X47334485Y-47565615D01*
X47549413Y-47476589D01*
X47742843Y-47347343D01*
X47907342Y-47182844D01*
X48036588Y-46989414D01*
X48125614Y-46774486D01*
X48171000Y-46546319D01*
X48171000Y-46313683D01*
X48349000Y-46313683D01*
X48349000Y-46546319D01*
X48394386Y-46774486D01*
X48483412Y-46989414D01*
X48612658Y-47182844D01*
X48777157Y-47347343D01*
X48970587Y-47476589D01*
X49185515Y-47565615D01*
X49413682Y-47611001D01*
X49646318Y-47611001D01*
X49874485Y-47565615D01*
X50089413Y-47476589D01*
X50282843Y-47347343D01*
X50447342Y-47182844D01*
X50576588Y-46989414D01*
X50665614Y-46774486D01*
X50711000Y-46546319D01*
X50711000Y-46313683D01*
X50889000Y-46313683D01*
X50889000Y-46546319D01*
X50934386Y-46774486D01*
X51023412Y-46989414D01*
X51152658Y-47182844D01*
X51317157Y-47347343D01*
X51510587Y-47476589D01*
X51725515Y-47565615D01*
X51953682Y-47611001D01*
X52186318Y-47611001D01*
X52414485Y-47565615D01*
X52629413Y-47476589D01*
X52822843Y-47347343D01*
X52987342Y-47182844D01*
X53116588Y-46989414D01*
X53205614Y-46774486D01*
X53251000Y-46546319D01*
X53251000Y-46313683D01*
X53205614Y-46085516D01*
X53116588Y-45870588D01*
X52987342Y-45677158D01*
X52822843Y-45512659D01*
X52629413Y-45383413D01*
X52414485Y-45294387D01*
X52186318Y-45249001D01*
X51953682Y-45249001D01*
X51725515Y-45294387D01*
X51510587Y-45383413D01*
X51317157Y-45512659D01*
X51152658Y-45677158D01*
X51023412Y-45870588D01*
X50934386Y-46085516D01*
X50889000Y-46313683D01*
X50711000Y-46313683D01*
X50665614Y-46085516D01*
X50576588Y-45870588D01*
X50447342Y-45677158D01*
X50282843Y-45512659D01*
X50089413Y-45383413D01*
X49874485Y-45294387D01*
X49646318Y-45249001D01*
X49413682Y-45249001D01*
X49185515Y-45294387D01*
X48970587Y-45383413D01*
X48777157Y-45512659D01*
X48612658Y-45677158D01*
X48483412Y-45870588D01*
X48394386Y-46085516D01*
X48349000Y-46313683D01*
X48171000Y-46313683D01*
X48125614Y-46085516D01*
X48036588Y-45870588D01*
X47907342Y-45677158D01*
X47742843Y-45512659D01*
X47549413Y-45383413D01*
X47334485Y-45294387D01*
X47106318Y-45249001D01*
X46873682Y-45249001D01*
X46645515Y-45294387D01*
X46430587Y-45383413D01*
X46237157Y-45512659D01*
X46072658Y-45677158D01*
X45943412Y-45870588D01*
X45854386Y-46085516D01*
X45809000Y-46313683D01*
X44571909Y-46313683D01*
X45957140Y-44928452D01*
X46123484Y-44978912D01*
X46296984Y-44996000D01*
X46413016Y-44996000D01*
X46586516Y-44978912D01*
X46809136Y-44911381D01*
X47014303Y-44801717D01*
X47194134Y-44654134D01*
X47341717Y-44474303D01*
X47451381Y-44269136D01*
X47518912Y-44046516D01*
X47541714Y-43815000D01*
X47518912Y-43583484D01*
X47451381Y-43360864D01*
X47341717Y-43155697D01*
X47194134Y-42975866D01*
X47014303Y-42828283D01*
X46809136Y-42718619D01*
X46586516Y-42651088D01*
X46413016Y-42634000D01*
X46296984Y-42634000D01*
X46123484Y-42651088D01*
X45900864Y-42718619D01*
X45695697Y-42828283D01*
X45515866Y-42975866D01*
X45368283Y-43155697D01*
X45258619Y-43360864D01*
X45191088Y-43583484D01*
X45168286Y-43815000D01*
X45191088Y-44046516D01*
X45241548Y-44212860D01*
X41633557Y-47820852D01*
X41565515Y-47834387D01*
X41350587Y-47923413D01*
X41157157Y-48052659D01*
X40992658Y-48217158D01*
X40863412Y-48410588D01*
X40774386Y-48625516D01*
X40729000Y-48853683D01*
X40729000Y-49086319D01*
X40774386Y-49314486D01*
X40863412Y-49529414D01*
X40992658Y-49722844D01*
X41157157Y-49887343D01*
X41350587Y-50016589D01*
X41404000Y-50038713D01*
X41404001Y-56940407D01*
X39836016Y-58508392D01*
X39740445Y-58468805D01*
X39495084Y-58420000D01*
X39740445Y-58371195D01*
X39971571Y-58275459D01*
X40179578Y-58136473D01*
X40356473Y-57959578D01*
X40495459Y-57751571D01*
X40591195Y-57520445D01*
X40640000Y-57275084D01*
X40640000Y-57024916D01*
X40591195Y-56779555D01*
X40495459Y-56548429D01*
X40356473Y-56340422D01*
X40179578Y-56163527D01*
X39971571Y-56024541D01*
X39740445Y-55928805D01*
X39495084Y-55880000D01*
X39740445Y-55831195D01*
X39971571Y-55735459D01*
X40179578Y-55596473D01*
X40356473Y-55419578D01*
X40495459Y-55211571D01*
X40591195Y-54980445D01*
X40640000Y-54735084D01*
X40640000Y-54484916D01*
X40591195Y-54239555D01*
X40495459Y-54008429D01*
X40356473Y-53800422D01*
X40179578Y-53623527D01*
X39971571Y-53484541D01*
X39740445Y-53388805D01*
X39495084Y-53340000D01*
X39740445Y-53291195D01*
X39971571Y-53195459D01*
X40179578Y-53056473D01*
X40356473Y-52879578D01*
X40495459Y-52671571D01*
X40591195Y-52440445D01*
X40640000Y-52195084D01*
X40640000Y-51944916D01*
X40591195Y-51699555D01*
X40495459Y-51468429D01*
X40356473Y-51260422D01*
X40179578Y-51083527D01*
X39971571Y-50944541D01*
X39740445Y-50848805D01*
X39548287Y-50810583D01*
X39710220Y-50648650D01*
X39729527Y-50632805D01*
X39792759Y-50555757D01*
X39839745Y-50467853D01*
X39868678Y-50372471D01*
X39876000Y-50298132D01*
X39878448Y-50273278D01*
X39876000Y-50248424D01*
X39876000Y-50038713D01*
X39929413Y-50016589D01*
X40122843Y-49887343D01*
X40287342Y-49722844D01*
X40416588Y-49529414D01*
X40505614Y-49314486D01*
X40551000Y-49086319D01*
X40551000Y-48853683D01*
X40505614Y-48625516D01*
X40483490Y-48572103D01*
X42885220Y-46170373D01*
X42904527Y-46154528D01*
X42967759Y-46077480D01*
X43014745Y-45989576D01*
X43043678Y-45894194D01*
X43051000Y-45819855D01*
X43051000Y-45819848D01*
X43053447Y-45795002D01*
X43051000Y-45770156D01*
X43051000Y-44883659D01*
X43204303Y-44801717D01*
X43384134Y-44654134D01*
X43531717Y-44474303D01*
X43641381Y-44269136D01*
X43708912Y-44046516D01*
X43731714Y-43815000D01*
X43708912Y-43583484D01*
X43641381Y-43360864D01*
X43531717Y-43155697D01*
X43384134Y-42975866D01*
X43204303Y-42828283D01*
X42999136Y-42718619D01*
X42776516Y-42651088D01*
X42603016Y-42634000D01*
X42486984Y-42634000D01*
X42313484Y-42651088D01*
X42090864Y-42718619D01*
X41885697Y-42828283D01*
X41705866Y-42975866D01*
X41558283Y-43155697D01*
X41448619Y-43360864D01*
X41381088Y-43583484D01*
X41358286Y-43815000D01*
X41381088Y-44046516D01*
X41448619Y-44269136D01*
X41558283Y-44474303D01*
X41705866Y-44654134D01*
X41885697Y-44801717D01*
X42039001Y-44883659D01*
X42039001Y-45585408D01*
X39767898Y-47856511D01*
X39714485Y-47834387D01*
X39486318Y-47789001D01*
X39253682Y-47789001D01*
X39025515Y-47834387D01*
X38810587Y-47923413D01*
X38617157Y-48052659D01*
X38452658Y-48217158D01*
X38323412Y-48410588D01*
X38234386Y-48625516D01*
X38189000Y-48853683D01*
X38189000Y-49086319D01*
X38234386Y-49314486D01*
X38323412Y-49529414D01*
X38452658Y-49722844D01*
X38617157Y-49887343D01*
X38810587Y-50016589D01*
X38864001Y-50038714D01*
X38864001Y-50063685D01*
X37815784Y-51111903D01*
X37796472Y-51127752D01*
X37733240Y-51204800D01*
X37686254Y-51292705D01*
X37657321Y-51388087D01*
X37649999Y-51462426D01*
X37649999Y-51462433D01*
X37647552Y-51487279D01*
X25806000Y-51487279D01*
X25806000Y-49776186D01*
X25917157Y-49887343D01*
X26110587Y-50016589D01*
X26325515Y-50105615D01*
X26553682Y-50151001D01*
X26786318Y-50151001D01*
X27014485Y-50105615D01*
X27229413Y-50016589D01*
X27422843Y-49887343D01*
X27587342Y-49722844D01*
X27716588Y-49529414D01*
X27805614Y-49314486D01*
X27851000Y-49086319D01*
X27851000Y-48853683D01*
X28029000Y-48853683D01*
X28029000Y-49086319D01*
X28074386Y-49314486D01*
X28163412Y-49529414D01*
X28292658Y-49722844D01*
X28457157Y-49887343D01*
X28650587Y-50016589D01*
X28865515Y-50105615D01*
X29093682Y-50151001D01*
X29326318Y-50151001D01*
X29554485Y-50105615D01*
X29769413Y-50016589D01*
X29962843Y-49887343D01*
X30127342Y-49722844D01*
X30256588Y-49529414D01*
X30345614Y-49314486D01*
X30391000Y-49086319D01*
X30391000Y-48853683D01*
X30569000Y-48853683D01*
X30569000Y-49086319D01*
X30614386Y-49314486D01*
X30703412Y-49529414D01*
X30832658Y-49722844D01*
X30997157Y-49887343D01*
X31190587Y-50016589D01*
X31405515Y-50105615D01*
X31633682Y-50151001D01*
X31866318Y-50151001D01*
X32094485Y-50105615D01*
X32309413Y-50016589D01*
X32502843Y-49887343D01*
X32667342Y-49722844D01*
X32796588Y-49529414D01*
X32885614Y-49314486D01*
X32931000Y-49086319D01*
X32931000Y-48853683D01*
X32885614Y-48625516D01*
X32796588Y-48410588D01*
X32667342Y-48217158D01*
X32502843Y-48052659D01*
X32309413Y-47923413D01*
X32094485Y-47834387D01*
X31866318Y-47789001D01*
X31633682Y-47789001D01*
X31405515Y-47834387D01*
X31190587Y-47923413D01*
X30997157Y-48052659D01*
X30832658Y-48217158D01*
X30703412Y-48410588D01*
X30614386Y-48625516D01*
X30569000Y-48853683D01*
X30391000Y-48853683D01*
X30345614Y-48625516D01*
X30256588Y-48410588D01*
X30127342Y-48217158D01*
X29962843Y-48052659D01*
X29769413Y-47923413D01*
X29554485Y-47834387D01*
X29326318Y-47789001D01*
X29093682Y-47789001D01*
X28865515Y-47834387D01*
X28650587Y-47923413D01*
X28457157Y-48052659D01*
X28292658Y-48217158D01*
X28163412Y-48410588D01*
X28074386Y-48625516D01*
X28029000Y-48853683D01*
X27851000Y-48853683D01*
X27805614Y-48625516D01*
X27716588Y-48410588D01*
X27587342Y-48217158D01*
X27422843Y-48052659D01*
X27229413Y-47923413D01*
X27014485Y-47834387D01*
X26786318Y-47789001D01*
X26553682Y-47789001D01*
X26325515Y-47834387D01*
X26110587Y-47923413D01*
X25917157Y-48052659D01*
X25806000Y-48163816D01*
X25806000Y-47236186D01*
X25917157Y-47347343D01*
X26110587Y-47476589D01*
X26325515Y-47565615D01*
X26553682Y-47611001D01*
X26786318Y-47611001D01*
X27014485Y-47565615D01*
X27229413Y-47476589D01*
X27422843Y-47347343D01*
X27587342Y-47182844D01*
X27716588Y-46989414D01*
X27805614Y-46774486D01*
X27851000Y-46546319D01*
X27851000Y-46313683D01*
X27805614Y-46085516D01*
X27716588Y-45870588D01*
X27587342Y-45677158D01*
X27422843Y-45512659D01*
X27229413Y-45383413D01*
X27014485Y-45294387D01*
X26786318Y-45249001D01*
X26553682Y-45249001D01*
X26325515Y-45294387D01*
X26110587Y-45383413D01*
X25917157Y-45512659D01*
X25806000Y-45623816D01*
X25806000Y-44696186D01*
X25917157Y-44807343D01*
X26110587Y-44936589D01*
X26325515Y-45025615D01*
X26553682Y-45071001D01*
X26786318Y-45071001D01*
X27014485Y-45025615D01*
X27229413Y-44936589D01*
X27422843Y-44807343D01*
X27587342Y-44642844D01*
X27716588Y-44449414D01*
X27805614Y-44234486D01*
X27851000Y-44006319D01*
X27851000Y-43773683D01*
X27805614Y-43545516D01*
X27716588Y-43330588D01*
X27587342Y-43137158D01*
X27422843Y-42972659D01*
X27229413Y-42843413D01*
X27014485Y-42754387D01*
X26786318Y-42709001D01*
X26553682Y-42709001D01*
X26325515Y-42754387D01*
X26110587Y-42843413D01*
X25917157Y-42972659D01*
X25806000Y-43083816D01*
X25806000Y-42156186D01*
X25917157Y-42267343D01*
X26110587Y-42396589D01*
X26325515Y-42485615D01*
X26553682Y-42531001D01*
X26786318Y-42531001D01*
X27014485Y-42485615D01*
X27229413Y-42396589D01*
X27422843Y-42267343D01*
X27587342Y-42102844D01*
X27716588Y-41909414D01*
X27805614Y-41694486D01*
X27851000Y-41466319D01*
X27851000Y-41233683D01*
X27805614Y-41005516D01*
X27716588Y-40790588D01*
X27587342Y-40597158D01*
X27422843Y-40432659D01*
X27229413Y-40303413D01*
X27014485Y-40214387D01*
X26786318Y-40169001D01*
X26553682Y-40169001D01*
X26325515Y-40214387D01*
X26110587Y-40303413D01*
X25917157Y-40432659D01*
X25806000Y-40543816D01*
X25806000Y-39616186D01*
X25917157Y-39727343D01*
X26110587Y-39856589D01*
X26325515Y-39945615D01*
X26553682Y-39991001D01*
X26786318Y-39991001D01*
X27014485Y-39945615D01*
X27229413Y-39856589D01*
X27289001Y-39816774D01*
X27289001Y-39835155D01*
X27286554Y-39860001D01*
X27289001Y-39884847D01*
X27289001Y-39884854D01*
X27296323Y-39959193D01*
X27325256Y-40054575D01*
X27372242Y-40142480D01*
X27435474Y-40219528D01*
X27454786Y-40235377D01*
X30636510Y-43417102D01*
X30614386Y-43470515D01*
X30569000Y-43698682D01*
X30569000Y-43931318D01*
X30614386Y-44159485D01*
X30703412Y-44374413D01*
X30832658Y-44567843D01*
X30997157Y-44732342D01*
X31190587Y-44861588D01*
X31405515Y-44950614D01*
X31633682Y-44996000D01*
X31866318Y-44996000D01*
X32094485Y-44950614D01*
X32309413Y-44861588D01*
X32502843Y-44732342D01*
X32667342Y-44567843D01*
X32796588Y-44374413D01*
X32885614Y-44159485D01*
X32931000Y-43931318D01*
X32931000Y-43698682D01*
X32885614Y-43470515D01*
X32796588Y-43255587D01*
X32667342Y-43062157D01*
X32502843Y-42897658D01*
X32309413Y-42768412D01*
X32094485Y-42679386D01*
X31866318Y-42634000D01*
X31633682Y-42634000D01*
X31405515Y-42679386D01*
X31352102Y-42701510D01*
X28301001Y-39650410D01*
X28301001Y-34491187D01*
X28457157Y-34647343D01*
X28650587Y-34776589D01*
X28865515Y-34865615D01*
X29093682Y-34911001D01*
X29326318Y-34911001D01*
X29554485Y-34865615D01*
X29769413Y-34776589D01*
X29829001Y-34736773D01*
X29829001Y-36798785D01*
X29826554Y-36823631D01*
X29829001Y-36848477D01*
X29829001Y-36848484D01*
X29836323Y-36922823D01*
X29865256Y-37018205D01*
X29912242Y-37106110D01*
X29975474Y-37183158D01*
X29994786Y-37199007D01*
X31147788Y-38352010D01*
X30997157Y-38452658D01*
X30832658Y-38617157D01*
X30703412Y-38810587D01*
X30614386Y-39025515D01*
X30569000Y-39253682D01*
X30569000Y-39486318D01*
X30614386Y-39714485D01*
X30703412Y-39929413D01*
X30832658Y-40122843D01*
X30997157Y-40287342D01*
X31190587Y-40416588D01*
X31405515Y-40505614D01*
X31633682Y-40551000D01*
X31866318Y-40551000D01*
X32094485Y-40505614D01*
X32309413Y-40416588D01*
X32502843Y-40287342D01*
X32667342Y-40122843D01*
X32796588Y-39929413D01*
X32885614Y-39714485D01*
X32931000Y-39486318D01*
X32931000Y-39253682D01*
X32885614Y-39025515D01*
X32796588Y-38810587D01*
X32667342Y-38617157D01*
X32502843Y-38452658D01*
X32309413Y-38323412D01*
X32256000Y-38301288D01*
X32256000Y-38263484D01*
X32258448Y-38238630D01*
X32248678Y-38139437D01*
X32219745Y-38044055D01*
X32184486Y-37978091D01*
X32172759Y-37956151D01*
X32109527Y-37879103D01*
X32090220Y-37863258D01*
X30841001Y-36614040D01*
X30841001Y-34491187D01*
X30997157Y-34647343D01*
X31190587Y-34776589D01*
X31405515Y-34865615D01*
X31633682Y-34911001D01*
X31866318Y-34911001D01*
X32094485Y-34865615D01*
X32309413Y-34776589D01*
X32502843Y-34647343D01*
X32667342Y-34482844D01*
X32796588Y-34289414D01*
X32885614Y-34074486D01*
X32931000Y-33846319D01*
X32931000Y-33613683D01*
X32885614Y-33385516D01*
X32863490Y-33332103D01*
X34584000Y-31611593D01*
X34584000Y-32584345D01*
X34406318Y-32549001D01*
X34173682Y-32549001D01*
X33945515Y-32594387D01*
X33730587Y-32683413D01*
X33537157Y-32812659D01*
X33372658Y-32977158D01*
X33243412Y-33170588D01*
X33154386Y-33385516D01*
X33109000Y-33613683D01*
X33109000Y-33846319D01*
X33154386Y-34074486D01*
X33243412Y-34289414D01*
X33372658Y-34482844D01*
X33537157Y-34647343D01*
X33730587Y-34776589D01*
X33945515Y-34865615D01*
X34173682Y-34911001D01*
X34406318Y-34911001D01*
X34634485Y-34865615D01*
X34849413Y-34776589D01*
X35042843Y-34647343D01*
X35207342Y-34482844D01*
X35336588Y-34289414D01*
X35425614Y-34074486D01*
X35471000Y-33846319D01*
X35471000Y-33613683D01*
X35425614Y-33385516D01*
X35403490Y-33332103D01*
X35430219Y-33305374D01*
X35449526Y-33289529D01*
X35512758Y-33212481D01*
X35559744Y-33124577D01*
X35588677Y-33029195D01*
X35595999Y-32954856D01*
X35595999Y-32954849D01*
X35598446Y-32930003D01*
X35595999Y-32905157D01*
X35595999Y-32791000D01*
X36109572Y-32791000D01*
X36077157Y-32812659D01*
X35912658Y-32977158D01*
X35783412Y-33170588D01*
X35694386Y-33385516D01*
X35649000Y-33613683D01*
X35649000Y-33846319D01*
X35694386Y-34074486D01*
X35783412Y-34289414D01*
X35912658Y-34482844D01*
X36077157Y-34647343D01*
X36270587Y-34776589D01*
X36485515Y-34865615D01*
X36713682Y-34911001D01*
X36946318Y-34911001D01*
X37174485Y-34865615D01*
X37389413Y-34776589D01*
X37582843Y-34647343D01*
X37747342Y-34482844D01*
X37876588Y-34289414D01*
X37965614Y-34074486D01*
X38011000Y-33846319D01*
X38011000Y-33613683D01*
X37965614Y-33385516D01*
X37876588Y-33170588D01*
X37747342Y-32977158D01*
X37582843Y-32812659D01*
X37550428Y-32791000D01*
X38649572Y-32791000D01*
X38617157Y-32812659D01*
X38452658Y-32977158D01*
X38323412Y-33170588D01*
X38234386Y-33385516D01*
X38189000Y-33613683D01*
X38189000Y-33846319D01*
X38234386Y-34074486D01*
X38323412Y-34289414D01*
X38452658Y-34482844D01*
X38617157Y-34647343D01*
X38810587Y-34776589D01*
X39025515Y-34865615D01*
X39253682Y-34911001D01*
X39486318Y-34911001D01*
X39714485Y-34865615D01*
X39929413Y-34776589D01*
X40122843Y-34647343D01*
X40287342Y-34482844D01*
X40416588Y-34289414D01*
X40505614Y-34074486D01*
X40551000Y-33846319D01*
X40551000Y-33613683D01*
X40505614Y-33385516D01*
X40416588Y-33170588D01*
X40287342Y-32977158D01*
X40122843Y-32812659D01*
X40090428Y-32791000D01*
X41189572Y-32791000D01*
X41157157Y-32812659D01*
X40992658Y-32977158D01*
X40863412Y-33170588D01*
X40774386Y-33385516D01*
X40729000Y-33613683D01*
X40729000Y-33846319D01*
X40774386Y-34074486D01*
X40863412Y-34289414D01*
X40992658Y-34482844D01*
X41157157Y-34647343D01*
X41350587Y-34776589D01*
X41514798Y-34844608D01*
X33949785Y-42409622D01*
X33930473Y-42425471D01*
X33867241Y-42502519D01*
X33820255Y-42590424D01*
X33791322Y-42685806D01*
X33784000Y-42760145D01*
X33784000Y-42760152D01*
X33781553Y-42784998D01*
X33784000Y-42809844D01*
X33784001Y-47813768D01*
X33784000Y-47813778D01*
X33784000Y-47901289D01*
X33730587Y-47923413D01*
X33537157Y-48052659D01*
X33372658Y-48217158D01*
X33243412Y-48410588D01*
X33154386Y-48625516D01*
X33109000Y-48853683D01*
X33109000Y-49086319D01*
X33154386Y-49314486D01*
X33243412Y-49529414D01*
X33372658Y-49722844D01*
X33537157Y-49887343D01*
X33730587Y-50016589D01*
X33945515Y-50105615D01*
X34173682Y-50151001D01*
X34406318Y-50151001D01*
X34634485Y-50105615D01*
X34849413Y-50016589D01*
X35042843Y-49887343D01*
X35207342Y-49722844D01*
X35336588Y-49529414D01*
X35425614Y-49314486D01*
X35471000Y-49086319D01*
X35471000Y-48853683D01*
X35649000Y-48853683D01*
X35649000Y-49086319D01*
X35694386Y-49314486D01*
X35783412Y-49529414D01*
X35912658Y-49722844D01*
X36077157Y-49887343D01*
X36270587Y-50016589D01*
X36485515Y-50105615D01*
X36713682Y-50151001D01*
X36946318Y-50151001D01*
X37174485Y-50105615D01*
X37389413Y-50016589D01*
X37582843Y-49887343D01*
X37747342Y-49722844D01*
X37876588Y-49529414D01*
X37965614Y-49314486D01*
X38011000Y-49086319D01*
X38011000Y-48853683D01*
X37965614Y-48625516D01*
X37876588Y-48410588D01*
X37747342Y-48217158D01*
X37582843Y-48052659D01*
X37389413Y-47923413D01*
X37174485Y-47834387D01*
X36946318Y-47789001D01*
X36713682Y-47789001D01*
X36485515Y-47834387D01*
X36270587Y-47923413D01*
X36077157Y-48052659D01*
X35912658Y-48217158D01*
X35783412Y-48410588D01*
X35694386Y-48625516D01*
X35649000Y-48853683D01*
X35471000Y-48853683D01*
X35425614Y-48625516D01*
X35336588Y-48410588D01*
X35207342Y-48217158D01*
X35042843Y-48052659D01*
X34849413Y-47923413D01*
X34796000Y-47901289D01*
X34796000Y-44164039D01*
X37978096Y-44164039D01*
X38018754Y-44298087D01*
X38138963Y-44552420D01*
X38306481Y-44778414D01*
X38514869Y-44967385D01*
X38756119Y-45112070D01*
X39020960Y-45206909D01*
X39243000Y-45085624D01*
X39243000Y-43942000D01*
X39497000Y-43942000D01*
X39497000Y-45085624D01*
X39719040Y-45206909D01*
X39983881Y-45112070D01*
X40225131Y-44967385D01*
X40433519Y-44778414D01*
X40601037Y-44552420D01*
X40721246Y-44298087D01*
X40761904Y-44164039D01*
X40639915Y-43942000D01*
X39497000Y-43942000D01*
X39243000Y-43942000D01*
X38100085Y-43942000D01*
X37978096Y-44164039D01*
X34796000Y-44164039D01*
X34796000Y-43465961D01*
X37978096Y-43465961D01*
X38100085Y-43688000D01*
X39243000Y-43688000D01*
X39243000Y-42544376D01*
X39497000Y-42544376D01*
X39497000Y-43688000D01*
X40639915Y-43688000D01*
X40761904Y-43465961D01*
X40721246Y-43331913D01*
X40601037Y-43077580D01*
X40433519Y-42851586D01*
X40225131Y-42662615D01*
X39983881Y-42517930D01*
X39719040Y-42423091D01*
X39497000Y-42544376D01*
X39243000Y-42544376D01*
X39020960Y-42423091D01*
X38756119Y-42517930D01*
X38514869Y-42662615D01*
X38306481Y-42851586D01*
X38138963Y-43077580D01*
X38018754Y-43331913D01*
X37978096Y-43465961D01*
X34796000Y-43465961D01*
X34796000Y-42994589D01*
X36571680Y-41218909D01*
X48199000Y-41218909D01*
X48199000Y-41481093D01*
X48250150Y-41738239D01*
X48350483Y-41980466D01*
X48496145Y-42198464D01*
X48681537Y-42383856D01*
X48899535Y-42529518D01*
X49141762Y-42629851D01*
X49398908Y-42681001D01*
X49661092Y-42681001D01*
X49918238Y-42629851D01*
X50160465Y-42529518D01*
X50378463Y-42383856D01*
X50563855Y-42198464D01*
X50709517Y-41980466D01*
X50809850Y-41738239D01*
X50861000Y-41481093D01*
X50861000Y-41218909D01*
X52009000Y-41218909D01*
X52009000Y-41481093D01*
X52060150Y-41738239D01*
X52160483Y-41980466D01*
X52306145Y-42198464D01*
X52491537Y-42383856D01*
X52709535Y-42529518D01*
X52951762Y-42629851D01*
X53208908Y-42681001D01*
X53471092Y-42681001D01*
X53728238Y-42629851D01*
X53970465Y-42529518D01*
X54188463Y-42383856D01*
X54373855Y-42198464D01*
X54519517Y-41980466D01*
X54619850Y-41738239D01*
X54671000Y-41481093D01*
X54671000Y-41218909D01*
X54619850Y-40961763D01*
X54519517Y-40719536D01*
X54373855Y-40501538D01*
X54188463Y-40316146D01*
X53970465Y-40170484D01*
X53728238Y-40070151D01*
X53471092Y-40019001D01*
X53208908Y-40019001D01*
X52951762Y-40070151D01*
X52709535Y-40170484D01*
X52491537Y-40316146D01*
X52306145Y-40501538D01*
X52160483Y-40719536D01*
X52060150Y-40961763D01*
X52009000Y-41218909D01*
X50861000Y-41218909D01*
X50809850Y-40961763D01*
X50709517Y-40719536D01*
X50563855Y-40501538D01*
X50378463Y-40316146D01*
X50160465Y-40170484D01*
X49918238Y-40070151D01*
X49661092Y-40019001D01*
X49398908Y-40019001D01*
X49141762Y-40070151D01*
X48899535Y-40170484D01*
X48681537Y-40316146D01*
X48496145Y-40501538D01*
X48350483Y-40719536D01*
X48250150Y-40961763D01*
X48199000Y-41218909D01*
X36571680Y-41218909D01*
X37999845Y-39790744D01*
X38018754Y-39853087D01*
X38138963Y-40107420D01*
X38306481Y-40333414D01*
X38514869Y-40522385D01*
X38756119Y-40667070D01*
X39020960Y-40761909D01*
X39243000Y-40640624D01*
X39243000Y-39497000D01*
X39497000Y-39497000D01*
X39497000Y-40640624D01*
X39719040Y-40761909D01*
X39983881Y-40667070D01*
X40225131Y-40522385D01*
X40433519Y-40333414D01*
X40601037Y-40107420D01*
X40721246Y-39853087D01*
X40761904Y-39719039D01*
X40639915Y-39497000D01*
X39497000Y-39497000D01*
X39243000Y-39497000D01*
X39223000Y-39497000D01*
X39223000Y-39243000D01*
X39243000Y-39243000D01*
X39243000Y-39223000D01*
X39497000Y-39223000D01*
X39497000Y-39243000D01*
X40639915Y-39243000D01*
X40761904Y-39020961D01*
X40721246Y-38886913D01*
X40601037Y-38632580D01*
X40433519Y-38406586D01*
X40225131Y-38217615D01*
X39983881Y-38072930D01*
X39787856Y-38002734D01*
X41383125Y-36407465D01*
X41409386Y-36539485D01*
X41498412Y-36754413D01*
X41627658Y-36947843D01*
X41792157Y-37112342D01*
X41985587Y-37241588D01*
X42200515Y-37330614D01*
X42428682Y-37376000D01*
X42661318Y-37376000D01*
X42889485Y-37330614D01*
X43104413Y-37241588D01*
X43297843Y-37112342D01*
X43462342Y-36947843D01*
X43591588Y-36754413D01*
X43613712Y-36701000D01*
X45286288Y-36701000D01*
X45308412Y-36754413D01*
X45437658Y-36947843D01*
X45602157Y-37112342D01*
X45795587Y-37241588D01*
X46010515Y-37330614D01*
X46238682Y-37376000D01*
X46471318Y-37376000D01*
X46699485Y-37330614D01*
X46914413Y-37241588D01*
X47107843Y-37112342D01*
X47272342Y-36947843D01*
X47401588Y-36754413D01*
X47423712Y-36701000D01*
X52622409Y-36701000D01*
X54903999Y-38982591D01*
X54904000Y-47824345D01*
X54726318Y-47789001D01*
X54493682Y-47789001D01*
X54265515Y-47834387D01*
X54050587Y-47923413D01*
X53857157Y-48052659D01*
X53692658Y-48217158D01*
X53563412Y-48410588D01*
X53474386Y-48625516D01*
X53429000Y-48853683D01*
X53429000Y-49086319D01*
X53474386Y-49314486D01*
X53563412Y-49529414D01*
X53692658Y-49722844D01*
X53857157Y-49887343D01*
X54050587Y-50016589D01*
X54265515Y-50105615D01*
X54397535Y-50131876D01*
X52909413Y-51619999D01*
X52038846Y-51619999D01*
X52014000Y-51617552D01*
X51989154Y-51619999D01*
X51989147Y-51619999D01*
X51924695Y-51626347D01*
X51914807Y-51627321D01*
X51819426Y-51656254D01*
X51731522Y-51703240D01*
X51654474Y-51766472D01*
X51638625Y-51785784D01*
X51348783Y-52075626D01*
X51348777Y-52075631D01*
X51266016Y-52158392D01*
X51170445Y-52118805D01*
X50925084Y-52070000D01*
X50674916Y-52070000D01*
X50429555Y-52118805D01*
X50198429Y-52214541D01*
X49990422Y-52353527D01*
X49813527Y-52530422D01*
X49674541Y-52738429D01*
X49578805Y-52969555D01*
X49530000Y-53214916D01*
X49481195Y-52969555D01*
X49385459Y-52738429D01*
X49246473Y-52530422D01*
X49069578Y-52353527D01*
X48861571Y-52214541D01*
X48630445Y-52118805D01*
X48385084Y-52070000D01*
X48134916Y-52070000D01*
X47889555Y-52118805D01*
X47658429Y-52214541D01*
X47450422Y-52353527D01*
X47273527Y-52530422D01*
X47134541Y-52738429D01*
X47038805Y-52969555D01*
X46990000Y-53214916D01*
X46990000Y-53465084D01*
X47038805Y-53710445D01*
X47134541Y-53941571D01*
X47273527Y-54149578D01*
X47450422Y-54326473D01*
X47658429Y-54465459D01*
X47889555Y-54561195D01*
X48134916Y-54610000D01*
X48385084Y-54610000D01*
X48630445Y-54561195D01*
X48726016Y-54521608D01*
X48808777Y-54604369D01*
X48808783Y-54604374D01*
X49098625Y-54894216D01*
X49114474Y-54913528D01*
X49191522Y-54976760D01*
X49279426Y-55023746D01*
X49374807Y-55052679D01*
X49384695Y-55053653D01*
X49449147Y-55060001D01*
X49449154Y-55060001D01*
X49474000Y-55062448D01*
X49498846Y-55060001D01*
X56437875Y-55060001D01*
X56462721Y-55062448D01*
X56487567Y-55060001D01*
X56487575Y-55060001D01*
X56561914Y-55052679D01*
X56657296Y-55023746D01*
X56745200Y-54976760D01*
X56822248Y-54913528D01*
X56838097Y-54894216D01*
X58615221Y-53117093D01*
X58634528Y-53101248D01*
X58697760Y-53024200D01*
X58744746Y-52936296D01*
X58773679Y-52840914D01*
X58781001Y-52766575D01*
X58781001Y-52766567D01*
X58783448Y-52741721D01*
X58781001Y-52716875D01*
X58781001Y-49731187D01*
X58937157Y-49887343D01*
X59055000Y-49966083D01*
X59055000Y-50132562D01*
X59064188Y-50225852D01*
X59100498Y-50345550D01*
X59159463Y-50455864D01*
X59238815Y-50552556D01*
X59335506Y-50631908D01*
X59445820Y-50690873D01*
X59565518Y-50727183D01*
X59690000Y-50739443D01*
X59814481Y-50727183D01*
X59934179Y-50690873D01*
X60044493Y-50631908D01*
X60141185Y-50552556D01*
X60220537Y-50455865D01*
X60279502Y-50345551D01*
X60315812Y-50225853D01*
X60325000Y-50132563D01*
X60325000Y-49966083D01*
X60442843Y-49887343D01*
X60607342Y-49722844D01*
X60736588Y-49529414D01*
X60825614Y-49314486D01*
X60871000Y-49086319D01*
X60871000Y-48853683D01*
X60825614Y-48625516D01*
X60736588Y-48410588D01*
X60607342Y-48217158D01*
X60442843Y-48052659D01*
X60249413Y-47923413D01*
X60034485Y-47834387D01*
X59806318Y-47789001D01*
X59573682Y-47789001D01*
X59345515Y-47834387D01*
X59130587Y-47923413D01*
X58937157Y-48052659D01*
X58781001Y-48208815D01*
X58781001Y-40390026D01*
X58783448Y-40365180D01*
X58781001Y-40340334D01*
X58781001Y-40340327D01*
X58773679Y-40265988D01*
X58744746Y-40170606D01*
X58697760Y-40082702D01*
X58634528Y-40005654D01*
X58615221Y-39989809D01*
X53395180Y-34769769D01*
X53379336Y-34750463D01*
X53302288Y-34687231D01*
X53214384Y-34640245D01*
X53119002Y-34611312D01*
X53044663Y-34603990D01*
X53044656Y-34603990D01*
X53019810Y-34601543D01*
X52994963Y-34603990D01*
X52866196Y-34603990D01*
X52987342Y-34482844D01*
X53116588Y-34289414D01*
X53205614Y-34074486D01*
X53251000Y-33846319D01*
X53251000Y-33613683D01*
X53429000Y-33613683D01*
X53429000Y-33846319D01*
X53474386Y-34074486D01*
X53563412Y-34289414D01*
X53692658Y-34482844D01*
X53857157Y-34647343D01*
X54050587Y-34776589D01*
X54265515Y-34865615D01*
X54493682Y-34911001D01*
X54726318Y-34911001D01*
X54954485Y-34865615D01*
X55169413Y-34776589D01*
X55362843Y-34647343D01*
X55527342Y-34482844D01*
X55656588Y-34289414D01*
X55745614Y-34074486D01*
X55791000Y-33846319D01*
X55791000Y-33613683D01*
X55969000Y-33613683D01*
X55969000Y-33846319D01*
X56014386Y-34074486D01*
X56103412Y-34289414D01*
X56232658Y-34482844D01*
X56397157Y-34647343D01*
X56590587Y-34776589D01*
X56805515Y-34865615D01*
X57033682Y-34911001D01*
X57266318Y-34911001D01*
X57494485Y-34865615D01*
X57709413Y-34776589D01*
X57902843Y-34647343D01*
X58067342Y-34482844D01*
X58196588Y-34289414D01*
X58285614Y-34074486D01*
X58331000Y-33846319D01*
X58331000Y-33613683D01*
X58285614Y-33385516D01*
X58196588Y-33170588D01*
X58067342Y-32977158D01*
X57902843Y-32812659D01*
X57709413Y-32683413D01*
X57494485Y-32594387D01*
X57266318Y-32549001D01*
X57033682Y-32549001D01*
X56805515Y-32594387D01*
X56590587Y-32683413D01*
X56397157Y-32812659D01*
X56232658Y-32977158D01*
X56103412Y-33170588D01*
X56014386Y-33385516D01*
X55969000Y-33613683D01*
X55791000Y-33613683D01*
X55745614Y-33385516D01*
X55656588Y-33170588D01*
X55527342Y-32977158D01*
X55362843Y-32812659D01*
X55169413Y-32683413D01*
X54954485Y-32594387D01*
X54726318Y-32549001D01*
X54493682Y-32549001D01*
X54265515Y-32594387D01*
X54050587Y-32683413D01*
X53857157Y-32812659D01*
X53692658Y-32977158D01*
X53563412Y-33170588D01*
X53474386Y-33385516D01*
X53429000Y-33613683D01*
X53251000Y-33613683D01*
X53205614Y-33385516D01*
X53116588Y-33170588D01*
X52987342Y-32977158D01*
X52822843Y-32812659D01*
X52629413Y-32683413D01*
X52414485Y-32594387D01*
X52186318Y-32549001D01*
X51953682Y-32549001D01*
X51725515Y-32594387D01*
X51510587Y-32683413D01*
X51317157Y-32812659D01*
X51152658Y-32977158D01*
X51023412Y-33170588D01*
X50934386Y-33385516D01*
X50889000Y-33613683D01*
X50889000Y-33846319D01*
X50934386Y-34074486D01*
X51023412Y-34289414D01*
X51152658Y-34482844D01*
X51273806Y-34603992D01*
X51119583Y-34603992D01*
X50643490Y-34127899D01*
X50665614Y-34074486D01*
X50711000Y-33846319D01*
X50711000Y-33613683D01*
X50665614Y-33385516D01*
X50576588Y-33170588D01*
X50447342Y-32977158D01*
X50282843Y-32812659D01*
X50089413Y-32683413D01*
X49874485Y-32594387D01*
X49646318Y-32549001D01*
X49413682Y-32549001D01*
X49185515Y-32594387D01*
X48970587Y-32683413D01*
X48777157Y-32812659D01*
X48612658Y-32977158D01*
X48483412Y-33170588D01*
X48394386Y-33385516D01*
X48349000Y-33613683D01*
X48349000Y-33846319D01*
X48394386Y-34074486D01*
X48483412Y-34289414D01*
X48612658Y-34482844D01*
X48777157Y-34647343D01*
X48970587Y-34776589D01*
X49185515Y-34865615D01*
X49413682Y-34911001D01*
X49646318Y-34911001D01*
X49874485Y-34865615D01*
X49927898Y-34843491D01*
X50138407Y-35054000D01*
X49029591Y-35054000D01*
X48103490Y-34127899D01*
X48125614Y-34074486D01*
X48171000Y-33846319D01*
X48171000Y-33613683D01*
X48125614Y-33385516D01*
X48036588Y-33170588D01*
X47907342Y-32977158D01*
X47742843Y-32812659D01*
X47549413Y-32683413D01*
X47334485Y-32594387D01*
X47106318Y-32549001D01*
X47053668Y-32549001D01*
X47051500Y-32526986D01*
X47051500Y-32417510D01*
X47207227Y-32353005D01*
X47436035Y-32200120D01*
X47630620Y-32005535D01*
X47783505Y-31776727D01*
X47848010Y-31621000D01*
X47957494Y-31621000D01*
X47982340Y-31623447D01*
X48007186Y-31621000D01*
X48007194Y-31621000D01*
X48081533Y-31613678D01*
X48176915Y-31584745D01*
X48264819Y-31537759D01*
X48341867Y-31474527D01*
X48357716Y-31455215D01*
X48989035Y-30823896D01*
X48958500Y-30977408D01*
X48958500Y-31252592D01*
X49012186Y-31522490D01*
X49117495Y-31776727D01*
X49270380Y-32005535D01*
X49464965Y-32200120D01*
X49693773Y-32353005D01*
X49948010Y-32458314D01*
X50217908Y-32512000D01*
X50493092Y-32512000D01*
X50762990Y-32458314D01*
X51017227Y-32353005D01*
X51246035Y-32200120D01*
X51440620Y-32005535D01*
X51593505Y-31776727D01*
X51658010Y-31621000D01*
X52862990Y-31621000D01*
X52927495Y-31776727D01*
X53080380Y-32005535D01*
X53274965Y-32200120D01*
X53503773Y-32353005D01*
X53758010Y-32458314D01*
X54027908Y-32512000D01*
X54303092Y-32512000D01*
X54572990Y-32458314D01*
X54827227Y-32353005D01*
X55056035Y-32200120D01*
X55250620Y-32005535D01*
X55403505Y-31776727D01*
X55508814Y-31522490D01*
X55562500Y-31252592D01*
X55562500Y-30977408D01*
X55508814Y-30707510D01*
X55403505Y-30453273D01*
X55287727Y-30279999D01*
X56424908Y-30279999D01*
X56696691Y-30551782D01*
X56632186Y-30707510D01*
X56578500Y-30977408D01*
X56578500Y-31252592D01*
X56632186Y-31522490D01*
X56737495Y-31776727D01*
X56890380Y-32005535D01*
X57084965Y-32200120D01*
X57313773Y-32353005D01*
X57568010Y-32458314D01*
X57837908Y-32512000D01*
X58113092Y-32512000D01*
X58382990Y-32458314D01*
X58637227Y-32353005D01*
X58866035Y-32200120D01*
X59060620Y-32005535D01*
X59213505Y-31776727D01*
X59318814Y-31522490D01*
X59372500Y-31252592D01*
X59372500Y-30977408D01*
X59318814Y-30707510D01*
X59213505Y-30453273D01*
X59060620Y-30224465D01*
X58866035Y-30029880D01*
X58637227Y-29876995D01*
X58382990Y-29771686D01*
X58113092Y-29718000D01*
X57837908Y-29718000D01*
X57568010Y-29771686D01*
X57412282Y-29836191D01*
X57009875Y-29433784D01*
X56994026Y-29414472D01*
X56916978Y-29351240D01*
X56829074Y-29304254D01*
X56733692Y-29275321D01*
X56659353Y-29267999D01*
X56659345Y-29267999D01*
X56634499Y-29265552D01*
X56609653Y-29267999D01*
X49348195Y-29267999D01*
X49323341Y-29265551D01*
X49298487Y-29267999D01*
X49224148Y-29275321D01*
X49128766Y-29304254D01*
X49040862Y-29351240D01*
X48963814Y-29414472D01*
X48947969Y-29433779D01*
X47825966Y-30555783D01*
X47783505Y-30453273D01*
X47630620Y-30224465D01*
X47436035Y-30029880D01*
X47207227Y-29876995D01*
X46952990Y-29771686D01*
X46683092Y-29718000D01*
X46407908Y-29718000D01*
X46138010Y-29771686D01*
X45883773Y-29876995D01*
X45654965Y-30029880D01*
X45460380Y-30224465D01*
X45307495Y-30453273D01*
X45202186Y-30707510D01*
X45148500Y-30977408D01*
X45148500Y-31252592D01*
X45202186Y-31522490D01*
X45307495Y-31776727D01*
X45460380Y-32005535D01*
X45654965Y-32200120D01*
X45883773Y-32353005D01*
X45986282Y-32395466D01*
X45382262Y-32999487D01*
X45367342Y-32977158D01*
X45202843Y-32812659D01*
X45009413Y-32683413D01*
X44797722Y-32595728D01*
X44826910Y-32541121D01*
X44850125Y-32464590D01*
X44857964Y-32385000D01*
X44856000Y-32365059D01*
X44856000Y-28451823D01*
X49388282Y-28451823D01*
X49485978Y-28717860D01*
X49778321Y-28860348D01*
X50092844Y-28943064D01*
X50417462Y-28962831D01*
X50739698Y-28918888D01*
X51047170Y-28812924D01*
X51225022Y-28717860D01*
X51322718Y-28451823D01*
X50355500Y-27484605D01*
X49388282Y-28451823D01*
X44856000Y-28451823D01*
X44856000Y-27366962D01*
X48697669Y-27366962D01*
X48741612Y-27689198D01*
X48847576Y-27996670D01*
X48942640Y-28174522D01*
X49208677Y-28272218D01*
X50175895Y-27305000D01*
X50535105Y-27305000D01*
X51502323Y-28272218D01*
X51768360Y-28174522D01*
X51910848Y-27882179D01*
X51993564Y-27567656D01*
X52013331Y-27243038D01*
X51969388Y-26920802D01*
X51863424Y-26613330D01*
X51768360Y-26435478D01*
X51502323Y-26337782D01*
X50535105Y-27305000D01*
X50175895Y-27305000D01*
X49208677Y-26337782D01*
X48942640Y-26435478D01*
X48800152Y-26727821D01*
X48717436Y-27042344D01*
X48697669Y-27366962D01*
X44856000Y-27366962D01*
X44856000Y-25806000D01*
X49647134Y-25806000D01*
X49485978Y-25892140D01*
G36*
X57343748Y-48955859D02*
G01*
X57329605Y-48970001D01*
X57343748Y-48984144D01*
X57164143Y-49163749D01*
X57150000Y-49149606D01*
X56336903Y-49962703D01*
X56408486Y-50206672D01*
X56663996Y-50327572D01*
X56938184Y-50396301D01*
X57220512Y-50410218D01*
X57500130Y-50368788D01*
X57766292Y-50273604D01*
X57769002Y-50272156D01*
X57769002Y-52532128D01*
X57356476Y-52944655D01*
X57267816Y-52692641D01*
X57189289Y-52545727D01*
X56936231Y-52463374D01*
X56059605Y-53340000D01*
X56073748Y-53354143D01*
X55894143Y-53533748D01*
X55880000Y-53519605D01*
X55865858Y-53533748D01*
X55686253Y-53354143D01*
X55700395Y-53340000D01*
X54823769Y-52463374D01*
X54570711Y-52545727D01*
X54471415Y-52752808D01*
X54465459Y-52738429D01*
X54326473Y-52530422D01*
X54149578Y-52353527D01*
X54045178Y-52283769D01*
X55003374Y-52283769D01*
X55880000Y-53160395D01*
X56756626Y-52283769D01*
X56674273Y-52030711D01*
X56403582Y-51900914D01*
X56112770Y-51826420D01*
X55813012Y-51810092D01*
X55515829Y-51852557D01*
X55232641Y-51952184D01*
X55085727Y-52030711D01*
X55003374Y-52283769D01*
X54045178Y-52283769D01*
X53941571Y-52214541D01*
X53803319Y-52157275D01*
X56200228Y-49760367D01*
X56219535Y-49744522D01*
X56282767Y-49667474D01*
X56294072Y-49646324D01*
X56970395Y-48970001D01*
X56956253Y-48955859D01*
X57135858Y-48776254D01*
X57150000Y-48790396D01*
X57164143Y-48776254D01*
X57343748Y-48955859D01*
X57343748Y-48955859D01*
G37*
X57343748Y-48955859D02*
X57329605Y-48970001D01*
X57343748Y-48984144D01*
X57164143Y-49163749D01*
X57150000Y-49149606D01*
X56336903Y-49962703D01*
X56408486Y-50206672D01*
X56663996Y-50327572D01*
X56938184Y-50396301D01*
X57220512Y-50410218D01*
X57500130Y-50368788D01*
X57766292Y-50273604D01*
X57769002Y-50272156D01*
X57769002Y-52532128D01*
X57356476Y-52944655D01*
X57267816Y-52692641D01*
X57189289Y-52545727D01*
X56936231Y-52463374D01*
X56059605Y-53340000D01*
X56073748Y-53354143D01*
X55894143Y-53533748D01*
X55880000Y-53519605D01*
X55865858Y-53533748D01*
X55686253Y-53354143D01*
X55700395Y-53340000D01*
X54823769Y-52463374D01*
X54570711Y-52545727D01*
X54471415Y-52752808D01*
X54465459Y-52738429D01*
X54326473Y-52530422D01*
X54149578Y-52353527D01*
X54045178Y-52283769D01*
X55003374Y-52283769D01*
X55880000Y-53160395D01*
X56756626Y-52283769D01*
X56674273Y-52030711D01*
X56403582Y-51900914D01*
X56112770Y-51826420D01*
X55813012Y-51810092D01*
X55515829Y-51852557D01*
X55232641Y-51952184D01*
X55085727Y-52030711D01*
X55003374Y-52283769D01*
X54045178Y-52283769D01*
X53941571Y-52214541D01*
X53803319Y-52157275D01*
X56200228Y-49760367D01*
X56219535Y-49744522D01*
X56282767Y-49667474D01*
X56294072Y-49646324D01*
X56970395Y-48970001D01*
X56956253Y-48955859D01*
X57135858Y-48776254D01*
X57150000Y-48790396D01*
X57164143Y-48776254D01*
X57343748Y-48955859D01*
M02*
