G04 #@! TF.GenerationSoftware,KiCad,Pcbnew,(5.1.2)-2*
G04 #@! TF.CreationDate,2020-04-13T18:51:12-04:00*
G04 #@! TF.ProjectId,TeensyLC_DRV8871_MPRLS_Qwiic_v01,5465656e-7379-44c4-935f-445256383837,rev?*
G04 #@! TF.SameCoordinates,Original*
G04 #@! TF.FileFunction,Legend,Bot*
G04 #@! TF.FilePolarity,Positive*
%FSLAX46Y46*%
G04 Gerber Fmt 4.6, Leading zero omitted, Abs format (unit mm)*
G04 Created by KiCad (PCBNEW (5.1.2)-2) date 2020-04-13 18:51:12*
%MOMM*%
%LPD*%
G04 APERTURE LIST*
%ADD10C,0.127000*%
G04 APERTURE END LIST*
D10*
X57621714Y-58637714D02*
X57984571Y-58637714D01*
X57984571Y-57875714D01*
X57367714Y-58637714D02*
X57367714Y-58129714D01*
X57367714Y-57875714D02*
X57404000Y-57912000D01*
X57367714Y-57948285D01*
X57331428Y-57912000D01*
X57367714Y-57875714D01*
X57367714Y-57948285D01*
X57004857Y-58129714D02*
X57004857Y-58637714D01*
X57004857Y-58202285D02*
X56968571Y-58166000D01*
X56896000Y-58129714D01*
X56787142Y-58129714D01*
X56714571Y-58166000D01*
X56678285Y-58238571D01*
X56678285Y-58637714D01*
X56025142Y-58601428D02*
X56097714Y-58637714D01*
X56242857Y-58637714D01*
X56315428Y-58601428D01*
X56351714Y-58528857D01*
X56351714Y-58238571D01*
X56315428Y-58166000D01*
X56242857Y-58129714D01*
X56097714Y-58129714D01*
X56025142Y-58166000D01*
X55988857Y-58238571D01*
X55988857Y-58311142D01*
X56351714Y-58383714D01*
X55335714Y-58637714D02*
X55335714Y-58238571D01*
X55372000Y-58166000D01*
X55444571Y-58129714D01*
X55589714Y-58129714D01*
X55662285Y-58166000D01*
X55335714Y-58601428D02*
X55408285Y-58637714D01*
X55589714Y-58637714D01*
X55662285Y-58601428D01*
X55698571Y-58528857D01*
X55698571Y-58456285D01*
X55662285Y-58383714D01*
X55589714Y-58347428D01*
X55408285Y-58347428D01*
X55335714Y-58311142D01*
X54972857Y-58637714D02*
X54972857Y-58129714D01*
X54972857Y-58274857D02*
X54936571Y-58202285D01*
X54900285Y-58166000D01*
X54827714Y-58129714D01*
X54755142Y-58129714D01*
X54537428Y-58601428D02*
X54428571Y-58637714D01*
X54247142Y-58637714D01*
X54174571Y-58601428D01*
X54138285Y-58565142D01*
X54102000Y-58492571D01*
X54102000Y-58420000D01*
X54138285Y-58347428D01*
X54174571Y-58311142D01*
X54247142Y-58274857D01*
X54392285Y-58238571D01*
X54464857Y-58202285D01*
X54501142Y-58166000D01*
X54537428Y-58093428D01*
X54537428Y-58020857D01*
X54501142Y-57948285D01*
X54464857Y-57912000D01*
X54392285Y-57875714D01*
X54210857Y-57875714D01*
X54102000Y-57912000D01*
X53848000Y-58129714D02*
X53666571Y-58637714D01*
X53485142Y-58129714D02*
X53666571Y-58637714D01*
X53739142Y-58819142D01*
X53775428Y-58855428D01*
X53848000Y-58891714D01*
X53194857Y-58637714D02*
X53194857Y-58129714D01*
X53194857Y-58274857D02*
X53158571Y-58202285D01*
X53122285Y-58166000D01*
X53049714Y-58129714D01*
X52977142Y-58129714D01*
X52723142Y-58637714D02*
X52723142Y-58129714D01*
X52723142Y-57875714D02*
X52759428Y-57912000D01*
X52723142Y-57948285D01*
X52686857Y-57912000D01*
X52723142Y-57875714D01*
X52723142Y-57948285D01*
X52360285Y-58129714D02*
X52360285Y-58637714D01*
X52360285Y-58202285D02*
X52324000Y-58166000D01*
X52251428Y-58129714D01*
X52142571Y-58129714D01*
X52070000Y-58166000D01*
X52033714Y-58238571D01*
X52033714Y-58637714D01*
X51344285Y-58129714D02*
X51344285Y-58746571D01*
X51380571Y-58819142D01*
X51416857Y-58855428D01*
X51489428Y-58891714D01*
X51598285Y-58891714D01*
X51670857Y-58855428D01*
X51344285Y-58601428D02*
X51416857Y-58637714D01*
X51562000Y-58637714D01*
X51634571Y-58601428D01*
X51670857Y-58565142D01*
X51707142Y-58492571D01*
X51707142Y-58274857D01*
X51670857Y-58202285D01*
X51634571Y-58166000D01*
X51562000Y-58129714D01*
X51416857Y-58129714D01*
X51344285Y-58166000D01*
X50691142Y-58601428D02*
X50763714Y-58637714D01*
X50908857Y-58637714D01*
X50981428Y-58601428D01*
X51017714Y-58528857D01*
X51017714Y-58238571D01*
X50981428Y-58166000D01*
X50908857Y-58129714D01*
X50763714Y-58129714D01*
X50691142Y-58166000D01*
X50654857Y-58238571D01*
X50654857Y-58311142D01*
X51017714Y-58383714D01*
X50364571Y-58601428D02*
X50255714Y-58637714D01*
X50074285Y-58637714D01*
X50001714Y-58601428D01*
X49965428Y-58565142D01*
X49929142Y-58492571D01*
X49929142Y-58420000D01*
X49965428Y-58347428D01*
X50001714Y-58311142D01*
X50074285Y-58274857D01*
X50219428Y-58238571D01*
X50292000Y-58202285D01*
X50328285Y-58166000D01*
X50364571Y-58093428D01*
X50364571Y-58020857D01*
X50328285Y-57948285D01*
X50292000Y-57912000D01*
X50219428Y-57875714D01*
X50038000Y-57875714D01*
X49929142Y-57912000D01*
X49675142Y-58129714D02*
X49493714Y-58637714D01*
X49312285Y-58129714D02*
X49493714Y-58637714D01*
X49566285Y-58819142D01*
X49602571Y-58855428D01*
X49675142Y-58891714D01*
X49058285Y-58601428D02*
X48985714Y-58637714D01*
X48840571Y-58637714D01*
X48768000Y-58601428D01*
X48731714Y-58528857D01*
X48731714Y-58492571D01*
X48768000Y-58420000D01*
X48840571Y-58383714D01*
X48949428Y-58383714D01*
X49022000Y-58347428D01*
X49058285Y-58274857D01*
X49058285Y-58238571D01*
X49022000Y-58166000D01*
X48949428Y-58129714D01*
X48840571Y-58129714D01*
X48768000Y-58166000D01*
X47897142Y-58129714D02*
X47715714Y-58637714D01*
X47534285Y-58129714D01*
X47098857Y-57875714D02*
X47026285Y-57875714D01*
X46953714Y-57912000D01*
X46917428Y-57948285D01*
X46881142Y-58020857D01*
X46844857Y-58166000D01*
X46844857Y-58347428D01*
X46881142Y-58492571D01*
X46917428Y-58565142D01*
X46953714Y-58601428D01*
X47026285Y-58637714D01*
X47098857Y-58637714D01*
X47171428Y-58601428D01*
X47207714Y-58565142D01*
X47244000Y-58492571D01*
X47280285Y-58347428D01*
X47280285Y-58166000D01*
X47244000Y-58020857D01*
X47207714Y-57948285D01*
X47171428Y-57912000D01*
X47098857Y-57875714D01*
X46119142Y-58637714D02*
X46554571Y-58637714D01*
X46336857Y-58637714D02*
X46336857Y-57875714D01*
X46409428Y-57984571D01*
X46482000Y-58057142D01*
X46554571Y-58093428D01*
X57603571Y-59508571D02*
X57349571Y-59508571D01*
X57240714Y-59907714D02*
X57603571Y-59907714D01*
X57603571Y-59145714D01*
X57240714Y-59145714D01*
X56914142Y-59907714D02*
X56914142Y-59399714D01*
X56914142Y-59544857D02*
X56877857Y-59472285D01*
X56841571Y-59436000D01*
X56769000Y-59399714D01*
X56696428Y-59399714D01*
X56442428Y-59907714D02*
X56442428Y-59399714D01*
X56442428Y-59145714D02*
X56478714Y-59182000D01*
X56442428Y-59218285D01*
X56406142Y-59182000D01*
X56442428Y-59145714D01*
X56442428Y-59218285D01*
X55753000Y-59871428D02*
X55825571Y-59907714D01*
X55970714Y-59907714D01*
X56043285Y-59871428D01*
X56079571Y-59835142D01*
X56115857Y-59762571D01*
X56115857Y-59544857D01*
X56079571Y-59472285D01*
X56043285Y-59436000D01*
X55970714Y-59399714D01*
X55825571Y-59399714D01*
X55753000Y-59436000D01*
X54918428Y-59145714D02*
X54737000Y-59907714D01*
X54591857Y-59363428D01*
X54446714Y-59907714D01*
X54265285Y-59145714D01*
X53648428Y-59399714D02*
X53648428Y-59907714D01*
X53975000Y-59399714D02*
X53975000Y-59798857D01*
X53938714Y-59871428D01*
X53866142Y-59907714D01*
X53757285Y-59907714D01*
X53684714Y-59871428D01*
X53648428Y-59835142D01*
X51979285Y-59145714D02*
X51906714Y-59145714D01*
X51834142Y-59182000D01*
X51797857Y-59218285D01*
X51761571Y-59290857D01*
X51725285Y-59436000D01*
X51725285Y-59617428D01*
X51761571Y-59762571D01*
X51797857Y-59835142D01*
X51834142Y-59871428D01*
X51906714Y-59907714D01*
X51979285Y-59907714D01*
X52051857Y-59871428D01*
X52088142Y-59835142D01*
X52124428Y-59762571D01*
X52160714Y-59617428D01*
X52160714Y-59436000D01*
X52124428Y-59290857D01*
X52088142Y-59218285D01*
X52051857Y-59182000D01*
X51979285Y-59145714D01*
X51072142Y-59399714D02*
X51072142Y-59907714D01*
X51253571Y-59109428D02*
X51435000Y-59653714D01*
X50963285Y-59653714D01*
X50128714Y-59109428D02*
X50781857Y-60089142D01*
X49475571Y-59907714D02*
X49911000Y-59907714D01*
X49693285Y-59907714D02*
X49693285Y-59145714D01*
X49765857Y-59254571D01*
X49838428Y-59327142D01*
X49911000Y-59363428D01*
X49221571Y-59145714D02*
X48749857Y-59145714D01*
X49003857Y-59436000D01*
X48895000Y-59436000D01*
X48822428Y-59472285D01*
X48786142Y-59508571D01*
X48749857Y-59581142D01*
X48749857Y-59762571D01*
X48786142Y-59835142D01*
X48822428Y-59871428D01*
X48895000Y-59907714D01*
X49112714Y-59907714D01*
X49185285Y-59871428D01*
X49221571Y-59835142D01*
X47879000Y-59109428D02*
X48532142Y-60089142D01*
X47661285Y-59218285D02*
X47625000Y-59182000D01*
X47552428Y-59145714D01*
X47371000Y-59145714D01*
X47298428Y-59182000D01*
X47262142Y-59218285D01*
X47225857Y-59290857D01*
X47225857Y-59363428D01*
X47262142Y-59472285D01*
X47697571Y-59907714D01*
X47225857Y-59907714D01*
X46754142Y-59145714D02*
X46681571Y-59145714D01*
X46609000Y-59182000D01*
X46572714Y-59218285D01*
X46536428Y-59290857D01*
X46500142Y-59436000D01*
X46500142Y-59617428D01*
X46536428Y-59762571D01*
X46572714Y-59835142D01*
X46609000Y-59871428D01*
X46681571Y-59907714D01*
X46754142Y-59907714D01*
X46826714Y-59871428D01*
X46863000Y-59835142D01*
X46899285Y-59762571D01*
X46935571Y-59617428D01*
X46935571Y-59436000D01*
X46899285Y-59290857D01*
X46863000Y-59218285D01*
X46826714Y-59182000D01*
X46754142Y-59145714D01*
M02*
