G04 #@! TF.GenerationSoftware,KiCad,Pcbnew,(5.1.2)-2*
G04 #@! TF.CreationDate,2020-05-04T11:41:32-04:00*
G04 #@! TF.ProjectId,TeensyLC_DRV8871_MPRLS_Qwiic_v01,5465656e-7379-44c4-935f-445256383837,rev?*
G04 #@! TF.SameCoordinates,Original*
G04 #@! TF.FileFunction,Legend,Top*
G04 #@! TF.FilePolarity,Positive*
%FSLAX46Y46*%
G04 Gerber Fmt 4.6, Leading zero omitted, Abs format (unit mm)*
G04 Created by KiCad (PCBNEW (5.1.2)-2) date 2020-05-04 11:41:32*
%MOMM*%
%LPD*%
G04 APERTURE LIST*
%ADD10C,0.120000*%
%ADD11C,0.150000*%
G04 APERTURE END LIST*
D10*
X34271000Y0D02*
G75*
G03X34271000Y0I-1251000J0D01*
G01*
X40870000Y-39370000D02*
X40100000Y-39370000D01*
X32790000Y-39370000D02*
X33560000Y-39370000D01*
X40100000Y-38000000D02*
X33560000Y-38000000D01*
X40100000Y-40740000D02*
X40100000Y-38000000D01*
X33560000Y-40740000D02*
X40100000Y-40740000D01*
X33560000Y-38000000D02*
X33560000Y-40740000D01*
X40870000Y-43180000D02*
X40100000Y-43180000D01*
X32790000Y-43180000D02*
X33560000Y-43180000D01*
X40100000Y-41810000D02*
X33560000Y-41810000D01*
X40100000Y-44550000D02*
X40100000Y-41810000D01*
X33560000Y-44550000D02*
X40100000Y-44550000D01*
X33560000Y-41810000D02*
X33560000Y-44550000D01*
X53570000Y-39370000D02*
X52800000Y-39370000D01*
X45490000Y-39370000D02*
X46260000Y-39370000D01*
X52800000Y-38000000D02*
X46260000Y-38000000D01*
X52800000Y-40740000D02*
X52800000Y-38000000D01*
X46260000Y-40740000D02*
X52800000Y-40740000D01*
X46260000Y-38000000D02*
X46260000Y-40740000D01*
X53570000Y-43180000D02*
X52800000Y-43180000D01*
X45490000Y-43180000D02*
X46260000Y-43180000D01*
X52800000Y-41810000D02*
X46260000Y-41810000D01*
X52800000Y-44550000D02*
X52800000Y-41810000D01*
X46260000Y-44550000D02*
X52800000Y-44550000D01*
X46260000Y-41810000D02*
X46260000Y-44550000D01*
X44450000Y-50800000D02*
X59690000Y-50800000D01*
X62230000Y-53340000D02*
X62230000Y-72390000D01*
X59690000Y-74930000D02*
X44450000Y-74930000D01*
X41910000Y-72390000D02*
X41910000Y-54610000D01*
X41910000Y-54610000D02*
X41910000Y-53340000D01*
X41910000Y-53340000D02*
G75*
G02X44450000Y-50800000I2540000J0D01*
G01*
X59690000Y-50800000D02*
G75*
G02X62230000Y-53340000I0J-2540000D01*
G01*
X62230000Y-72390000D02*
G75*
G02X59690000Y-74930000I-2540000J0D01*
G01*
X44450000Y-74930000D02*
G75*
G02X41910000Y-72390000I0J2540000D01*
G01*
X44196000Y-74930000D02*
X44196000Y-67945000D01*
X44196000Y-67945000D02*
X51181000Y-67945000D01*
X44196000Y-74930000D02*
X50419000Y-74930000D01*
X51181000Y-74930000D02*
X51181000Y-67945000D01*
X36450000Y-70570000D02*
X36450000Y-70900000D01*
X37400000Y-73560000D02*
X37400000Y-70900000D01*
X37340000Y-68190000D02*
X37340000Y-69460000D01*
X36150000Y-73560000D02*
X36150000Y-79560000D01*
X32260000Y-70900000D02*
X32260000Y-73560000D01*
X35690000Y-79560000D02*
X35690000Y-73560000D01*
X28830000Y-70502929D02*
X28830000Y-70900000D01*
X36270000Y-73560000D02*
X36270000Y-79560000D01*
X33910000Y-79560000D02*
X33150000Y-79560000D01*
X36070000Y-68190000D02*
X37340000Y-68190000D01*
X33150000Y-70502929D02*
X33150000Y-70900000D01*
X28070000Y-70502929D02*
X28070000Y-70900000D01*
X28830000Y-73560000D02*
X28830000Y-79560000D01*
X29720000Y-70900000D02*
X29720000Y-73560000D01*
X30610000Y-70502929D02*
X30610000Y-70900000D01*
X30610000Y-79560000D02*
X30610000Y-73560000D01*
X33910000Y-70502929D02*
X33910000Y-70900000D01*
X33910000Y-73560000D02*
X33910000Y-79560000D01*
X36030000Y-73560000D02*
X36030000Y-79560000D01*
X36390000Y-73560000D02*
X36390000Y-79560000D01*
X37400000Y-70900000D02*
X27120000Y-70900000D01*
X35690000Y-70570000D02*
X35690000Y-70900000D01*
X27120000Y-73560000D02*
X37400000Y-73560000D01*
X31370000Y-79560000D02*
X30610000Y-79560000D01*
X28070000Y-79560000D02*
X28070000Y-73560000D01*
X28830000Y-79560000D02*
X28070000Y-79560000D01*
X31370000Y-70502929D02*
X31370000Y-70900000D01*
X31370000Y-73560000D02*
X31370000Y-79560000D01*
X35910000Y-73560000D02*
X35910000Y-79560000D01*
X33150000Y-79560000D02*
X33150000Y-73560000D01*
X36450000Y-73560000D02*
X36450000Y-79560000D01*
X34800000Y-70900000D02*
X34800000Y-73560000D01*
X35790000Y-73560000D02*
X35790000Y-79560000D01*
X36450000Y-79560000D02*
X35690000Y-79560000D01*
X27120000Y-70900000D02*
X27120000Y-73560000D01*
D11*
X60960000Y-37540001D02*
X62230000Y-37540001D01*
X62230000Y-37540001D02*
X62230000Y-45160001D01*
X62230000Y-45160001D02*
X60960000Y-45160001D01*
X55880000Y-37540001D02*
X60960000Y-37540001D01*
X55880000Y-45160001D02*
X60960000Y-45160001D01*
X25400000Y-50240001D02*
X25400000Y-32460001D01*
X25400000Y-32460001D02*
X60960000Y-32460001D01*
X60960000Y-32460001D02*
X60960000Y-50240001D01*
X55880000Y-37540001D02*
X55880000Y-45160001D01*
X60960000Y-50240001D02*
X25400000Y-50240001D01*
D10*
X60941000Y-57150000D02*
G75*
G03X60941000Y-57150000I-1251000J0D01*
G01*
X34271000Y-25400000D02*
G75*
G03X34271000Y-25400000I-1251000J0D01*
G01*
X29191000Y-53340000D02*
G75*
G03X29191000Y-53340000I-1251000J0D01*
G01*
X29845000Y-17780000D02*
X27305000Y-17780000D01*
X29845000Y-12700000D02*
X29845000Y-17780000D01*
X27305000Y-12700000D02*
X29845000Y-12700000D01*
X27305000Y-17780000D02*
X27305000Y-12700000D01*
X29845000Y-27940000D02*
X27305000Y-27940000D01*
X29845000Y-22860000D02*
X29845000Y-27940000D01*
X27305000Y-22860000D02*
X29845000Y-22860000D01*
X27305000Y-27940000D02*
X27305000Y-22860000D01*
X30247335Y443608D02*
G75*
G03X27015000Y600516I-1672335J-1078608D01*
G01*
X30247335Y-1713608D02*
G75*
G02X27015000Y-1870516I-1672335J1078608D01*
G01*
X29616130Y444837D02*
G75*
G03X27534039Y445000I-1041130J-1079837D01*
G01*
X29616130Y-1714837D02*
G75*
G02X27534039Y-1715000I-1041130J1079837D01*
G01*
X27015000Y601000D02*
X27015000Y445000D01*
X27015000Y-1715000D02*
X27015000Y-1871000D01*
X27015000Y-7430000D02*
X27015000Y-7586000D01*
X27015000Y-5114000D02*
X27015000Y-5270000D01*
X29616130Y-7429837D02*
G75*
G02X27534039Y-7430000I-1041130J1079837D01*
G01*
X29616130Y-5270163D02*
G75*
G03X27534039Y-5270000I-1041130J-1079837D01*
G01*
X30247335Y-7428608D02*
G75*
G02X27015000Y-7585516I-1672335J1078608D01*
G01*
X30247335Y-5271392D02*
G75*
G03X27015000Y-5114484I-1672335J-1078608D01*
G01*
X44005500Y-31115000D02*
X60515500Y-31115000D01*
X60515500Y-31115000D02*
X60515500Y-23495000D01*
X60515500Y-23495000D02*
X44005500Y-23495000D01*
X44005500Y-23495000D02*
X44005500Y-31115000D01*
X25400000Y-66040000D02*
X25400000Y-53340000D01*
X27940000Y-50800000D02*
X39370000Y-50800000D01*
X41910000Y-53340000D02*
X41910000Y-66040000D01*
X39370000Y-68580000D02*
X27940000Y-68580000D01*
X27940000Y-68580000D02*
G75*
G02X25400000Y-66040000I0J2540000D01*
G01*
X25400000Y-53340000D02*
G75*
G02X27940000Y-50800000I2540000J0D01*
G01*
X39370000Y-50800000D02*
G75*
G02X41910000Y-53340000I0J-2540000D01*
G01*
X41910000Y-66040000D02*
G75*
G02X39370000Y-68580000I-2540000J0D01*
G01*
D11*
X33872714Y-39714714D02*
X33618714Y-39351857D01*
X33437285Y-39714714D02*
X33437285Y-38952714D01*
X33727571Y-38952714D01*
X33800142Y-38989000D01*
X33836428Y-39025285D01*
X33872714Y-39097857D01*
X33872714Y-39206714D01*
X33836428Y-39279285D01*
X33800142Y-39315571D01*
X33727571Y-39351857D01*
X33437285Y-39351857D01*
X34598428Y-39714714D02*
X34163000Y-39714714D01*
X34380714Y-39714714D02*
X34380714Y-38952714D01*
X34308142Y-39061571D01*
X34235571Y-39134142D01*
X34163000Y-39170428D01*
X34925000Y-39424428D02*
X35505571Y-39424428D01*
X35795857Y-38952714D02*
X36267571Y-38952714D01*
X36013571Y-39243000D01*
X36122428Y-39243000D01*
X36195000Y-39279285D01*
X36231285Y-39315571D01*
X36267571Y-39388142D01*
X36267571Y-39569571D01*
X36231285Y-39642142D01*
X36195000Y-39678428D01*
X36122428Y-39714714D01*
X35904714Y-39714714D01*
X35832142Y-39678428D01*
X35795857Y-39642142D01*
X36521571Y-38952714D02*
X36993285Y-38952714D01*
X36739285Y-39243000D01*
X36848142Y-39243000D01*
X36920714Y-39279285D01*
X36957000Y-39315571D01*
X36993285Y-39388142D01*
X36993285Y-39569571D01*
X36957000Y-39642142D01*
X36920714Y-39678428D01*
X36848142Y-39714714D01*
X36630428Y-39714714D01*
X36557857Y-39678428D01*
X36521571Y-39642142D01*
X37465000Y-38952714D02*
X37537571Y-38952714D01*
X37610142Y-38989000D01*
X37646428Y-39025285D01*
X37682714Y-39097857D01*
X37719000Y-39243000D01*
X37719000Y-39424428D01*
X37682714Y-39569571D01*
X37646428Y-39642142D01*
X37610142Y-39678428D01*
X37537571Y-39714714D01*
X37465000Y-39714714D01*
X37392428Y-39678428D01*
X37356142Y-39642142D01*
X37319857Y-39569571D01*
X37283571Y-39424428D01*
X37283571Y-39243000D01*
X37319857Y-39097857D01*
X37356142Y-39025285D01*
X37392428Y-38989000D01*
X37465000Y-38952714D01*
X33872714Y-43397714D02*
X33618714Y-43034857D01*
X33437285Y-43397714D02*
X33437285Y-42635714D01*
X33727571Y-42635714D01*
X33800142Y-42672000D01*
X33836428Y-42708285D01*
X33872714Y-42780857D01*
X33872714Y-42889714D01*
X33836428Y-42962285D01*
X33800142Y-42998571D01*
X33727571Y-43034857D01*
X33437285Y-43034857D01*
X34163000Y-42708285D02*
X34199285Y-42672000D01*
X34271857Y-42635714D01*
X34453285Y-42635714D01*
X34525857Y-42672000D01*
X34562142Y-42708285D01*
X34598428Y-42780857D01*
X34598428Y-42853428D01*
X34562142Y-42962285D01*
X34126714Y-43397714D01*
X34598428Y-43397714D01*
X34925000Y-43107428D02*
X35505571Y-43107428D01*
X36267571Y-43397714D02*
X35832142Y-43397714D01*
X36049857Y-43397714D02*
X36049857Y-42635714D01*
X35977285Y-42744571D01*
X35904714Y-42817142D01*
X35832142Y-42853428D01*
X36739285Y-42635714D02*
X36811857Y-42635714D01*
X36884428Y-42672000D01*
X36920714Y-42708285D01*
X36957000Y-42780857D01*
X36993285Y-42926000D01*
X36993285Y-43107428D01*
X36957000Y-43252571D01*
X36920714Y-43325142D01*
X36884428Y-43361428D01*
X36811857Y-43397714D01*
X36739285Y-43397714D01*
X36666714Y-43361428D01*
X36630428Y-43325142D01*
X36594142Y-43252571D01*
X36557857Y-43107428D01*
X36557857Y-42926000D01*
X36594142Y-42780857D01*
X36630428Y-42708285D01*
X36666714Y-42672000D01*
X36739285Y-42635714D01*
X37465000Y-42635714D02*
X37537571Y-42635714D01*
X37610142Y-42672000D01*
X37646428Y-42708285D01*
X37682714Y-42780857D01*
X37719000Y-42926000D01*
X37719000Y-43107428D01*
X37682714Y-43252571D01*
X37646428Y-43325142D01*
X37610142Y-43361428D01*
X37537571Y-43397714D01*
X37465000Y-43397714D01*
X37392428Y-43361428D01*
X37356142Y-43325142D01*
X37319857Y-43252571D01*
X37283571Y-43107428D01*
X37283571Y-42926000D01*
X37319857Y-42780857D01*
X37356142Y-42708285D01*
X37392428Y-42672000D01*
X37465000Y-42635714D01*
X46318714Y-39587714D02*
X46064714Y-39224857D01*
X45883285Y-39587714D02*
X45883285Y-38825714D01*
X46173571Y-38825714D01*
X46246142Y-38862000D01*
X46282428Y-38898285D01*
X46318714Y-38970857D01*
X46318714Y-39079714D01*
X46282428Y-39152285D01*
X46246142Y-39188571D01*
X46173571Y-39224857D01*
X45883285Y-39224857D01*
X46572714Y-38825714D02*
X47044428Y-38825714D01*
X46790428Y-39116000D01*
X46899285Y-39116000D01*
X46971857Y-39152285D01*
X47008142Y-39188571D01*
X47044428Y-39261142D01*
X47044428Y-39442571D01*
X47008142Y-39515142D01*
X46971857Y-39551428D01*
X46899285Y-39587714D01*
X46681571Y-39587714D01*
X46609000Y-39551428D01*
X46572714Y-39515142D01*
X47371000Y-39297428D02*
X47951571Y-39297428D01*
X48641000Y-39079714D02*
X48641000Y-39587714D01*
X48459571Y-38789428D02*
X48278142Y-39333714D01*
X48749857Y-39333714D01*
X49040142Y-39515142D02*
X49076428Y-39551428D01*
X49040142Y-39587714D01*
X49003857Y-39551428D01*
X49040142Y-39515142D01*
X49040142Y-39587714D01*
X49330428Y-38825714D02*
X49838428Y-38825714D01*
X49511857Y-39587714D01*
X50128714Y-39587714D02*
X50128714Y-38825714D01*
X50201285Y-39297428D02*
X50419000Y-39587714D01*
X50419000Y-39079714D02*
X50128714Y-39370000D01*
X46318714Y-43651714D02*
X46064714Y-43288857D01*
X45883285Y-43651714D02*
X45883285Y-42889714D01*
X46173571Y-42889714D01*
X46246142Y-42926000D01*
X46282428Y-42962285D01*
X46318714Y-43034857D01*
X46318714Y-43143714D01*
X46282428Y-43216285D01*
X46246142Y-43252571D01*
X46173571Y-43288857D01*
X45883285Y-43288857D01*
X46971857Y-43143714D02*
X46971857Y-43651714D01*
X46790428Y-42853428D02*
X46609000Y-43397714D01*
X47080714Y-43397714D01*
X47371000Y-43361428D02*
X47951571Y-43361428D01*
X48641000Y-43143714D02*
X48641000Y-43651714D01*
X48459571Y-42853428D02*
X48278142Y-43397714D01*
X48749857Y-43397714D01*
X49040142Y-43579142D02*
X49076428Y-43615428D01*
X49040142Y-43651714D01*
X49003857Y-43615428D01*
X49040142Y-43579142D01*
X49040142Y-43651714D01*
X49330428Y-42889714D02*
X49838428Y-42889714D01*
X49511857Y-43651714D01*
X50128714Y-43651714D02*
X50128714Y-42889714D01*
X50201285Y-43361428D02*
X50419000Y-43651714D01*
X50419000Y-43143714D02*
X50128714Y-43434000D01*
X48974761Y-56078380D02*
X48974761Y-55078380D01*
X49212857Y-55078380D01*
X49355714Y-55126000D01*
X49450952Y-55221238D01*
X49498571Y-55316476D01*
X49546190Y-55506952D01*
X49546190Y-55649809D01*
X49498571Y-55840285D01*
X49450952Y-55935523D01*
X49355714Y-56030761D01*
X49212857Y-56078380D01*
X48974761Y-56078380D01*
X50546190Y-56078380D02*
X50212857Y-55602190D01*
X49974761Y-56078380D02*
X49974761Y-55078380D01*
X50355714Y-55078380D01*
X50450952Y-55126000D01*
X50498571Y-55173619D01*
X50546190Y-55268857D01*
X50546190Y-55411714D01*
X50498571Y-55506952D01*
X50450952Y-55554571D01*
X50355714Y-55602190D01*
X49974761Y-55602190D01*
X50831904Y-55078380D02*
X51165238Y-56078380D01*
X51498571Y-55078380D01*
X51974761Y-55506952D02*
X51879523Y-55459333D01*
X51831904Y-55411714D01*
X51784285Y-55316476D01*
X51784285Y-55268857D01*
X51831904Y-55173619D01*
X51879523Y-55126000D01*
X51974761Y-55078380D01*
X52165238Y-55078380D01*
X52260476Y-55126000D01*
X52308095Y-55173619D01*
X52355714Y-55268857D01*
X52355714Y-55316476D01*
X52308095Y-55411714D01*
X52260476Y-55459333D01*
X52165238Y-55506952D01*
X51974761Y-55506952D01*
X51879523Y-55554571D01*
X51831904Y-55602190D01*
X51784285Y-55697428D01*
X51784285Y-55887904D01*
X51831904Y-55983142D01*
X51879523Y-56030761D01*
X51974761Y-56078380D01*
X52165238Y-56078380D01*
X52260476Y-56030761D01*
X52308095Y-55983142D01*
X52355714Y-55887904D01*
X52355714Y-55697428D01*
X52308095Y-55602190D01*
X52260476Y-55554571D01*
X52165238Y-55506952D01*
X52927142Y-55506952D02*
X52831904Y-55459333D01*
X52784285Y-55411714D01*
X52736666Y-55316476D01*
X52736666Y-55268857D01*
X52784285Y-55173619D01*
X52831904Y-55126000D01*
X52927142Y-55078380D01*
X53117619Y-55078380D01*
X53212857Y-55126000D01*
X53260476Y-55173619D01*
X53308095Y-55268857D01*
X53308095Y-55316476D01*
X53260476Y-55411714D01*
X53212857Y-55459333D01*
X53117619Y-55506952D01*
X52927142Y-55506952D01*
X52831904Y-55554571D01*
X52784285Y-55602190D01*
X52736666Y-55697428D01*
X52736666Y-55887904D01*
X52784285Y-55983142D01*
X52831904Y-56030761D01*
X52927142Y-56078380D01*
X53117619Y-56078380D01*
X53212857Y-56030761D01*
X53260476Y-55983142D01*
X53308095Y-55887904D01*
X53308095Y-55697428D01*
X53260476Y-55602190D01*
X53212857Y-55554571D01*
X53117619Y-55506952D01*
X53641428Y-55078380D02*
X54308095Y-55078380D01*
X53879523Y-56078380D01*
X55212857Y-56078380D02*
X54641428Y-56078380D01*
X54927142Y-56078380D02*
X54927142Y-55078380D01*
X54831904Y-55221238D01*
X54736666Y-55316476D01*
X54641428Y-55364095D01*
X31210380Y-67603619D02*
X31115142Y-67556000D01*
X31019904Y-67460761D01*
X30877047Y-67317904D01*
X30781809Y-67270285D01*
X30686571Y-67270285D01*
X30734190Y-67508380D02*
X30638952Y-67460761D01*
X30543714Y-67365523D01*
X30496095Y-67175047D01*
X30496095Y-66841714D01*
X30543714Y-66651238D01*
X30638952Y-66556000D01*
X30734190Y-66508380D01*
X30924666Y-66508380D01*
X31019904Y-66556000D01*
X31115142Y-66651238D01*
X31162761Y-66841714D01*
X31162761Y-67175047D01*
X31115142Y-67365523D01*
X31019904Y-67460761D01*
X30924666Y-67508380D01*
X30734190Y-67508380D01*
X31496095Y-66841714D02*
X31686571Y-67508380D01*
X31877047Y-67032190D01*
X32067523Y-67508380D01*
X32258000Y-66841714D01*
X32638952Y-67508380D02*
X32638952Y-66841714D01*
X32638952Y-66508380D02*
X32591333Y-66556000D01*
X32638952Y-66603619D01*
X32686571Y-66556000D01*
X32638952Y-66508380D01*
X32638952Y-66603619D01*
X33115142Y-67508380D02*
X33115142Y-66841714D01*
X33115142Y-66508380D02*
X33067523Y-66556000D01*
X33115142Y-66603619D01*
X33162761Y-66556000D01*
X33115142Y-66508380D01*
X33115142Y-66603619D01*
X34019904Y-67460761D02*
X33924666Y-67508380D01*
X33734190Y-67508380D01*
X33638952Y-67460761D01*
X33591333Y-67413142D01*
X33543714Y-67317904D01*
X33543714Y-67032190D01*
X33591333Y-66936952D01*
X33638952Y-66889333D01*
X33734190Y-66841714D01*
X33924666Y-66841714D01*
X34019904Y-66889333D01*
X37989333Y-45934380D02*
X38560761Y-45934380D01*
X38275047Y-46934380D02*
X38275047Y-45934380D01*
X39275047Y-46886761D02*
X39179809Y-46934380D01*
X38989333Y-46934380D01*
X38894095Y-46886761D01*
X38846476Y-46791523D01*
X38846476Y-46410571D01*
X38894095Y-46315333D01*
X38989333Y-46267714D01*
X39179809Y-46267714D01*
X39275047Y-46315333D01*
X39322666Y-46410571D01*
X39322666Y-46505809D01*
X38846476Y-46601047D01*
X40132190Y-46886761D02*
X40036952Y-46934380D01*
X39846476Y-46934380D01*
X39751238Y-46886761D01*
X39703619Y-46791523D01*
X39703619Y-46410571D01*
X39751238Y-46315333D01*
X39846476Y-46267714D01*
X40036952Y-46267714D01*
X40132190Y-46315333D01*
X40179809Y-46410571D01*
X40179809Y-46505809D01*
X39703619Y-46601047D01*
X40608380Y-46267714D02*
X40608380Y-46934380D01*
X40608380Y-46362952D02*
X40656000Y-46315333D01*
X40751238Y-46267714D01*
X40894095Y-46267714D01*
X40989333Y-46315333D01*
X41036952Y-46410571D01*
X41036952Y-46934380D01*
X41465523Y-46886761D02*
X41560761Y-46934380D01*
X41751238Y-46934380D01*
X41846476Y-46886761D01*
X41894095Y-46791523D01*
X41894095Y-46743904D01*
X41846476Y-46648666D01*
X41751238Y-46601047D01*
X41608380Y-46601047D01*
X41513142Y-46553428D01*
X41465523Y-46458190D01*
X41465523Y-46410571D01*
X41513142Y-46315333D01*
X41608380Y-46267714D01*
X41751238Y-46267714D01*
X41846476Y-46315333D01*
X42227428Y-46267714D02*
X42465523Y-46934380D01*
X42703619Y-46267714D02*
X42465523Y-46934380D01*
X42370285Y-47172476D01*
X42322666Y-47220095D01*
X42227428Y-47267714D01*
X44322666Y-46934380D02*
X43846476Y-46934380D01*
X43846476Y-45934380D01*
X45227428Y-46839142D02*
X45179809Y-46886761D01*
X45036952Y-46934380D01*
X44941714Y-46934380D01*
X44798857Y-46886761D01*
X44703619Y-46791523D01*
X44656000Y-46696285D01*
X44608380Y-46505809D01*
X44608380Y-46362952D01*
X44656000Y-46172476D01*
X44703619Y-46077238D01*
X44798857Y-45982000D01*
X44941714Y-45934380D01*
X45036952Y-45934380D01*
X45179809Y-45982000D01*
X45227428Y-46029619D01*
X29106761Y-16001904D02*
X29154380Y-15859047D01*
X29154380Y-15620952D01*
X29106761Y-15525714D01*
X29059142Y-15478095D01*
X28963904Y-15430476D01*
X28868666Y-15430476D01*
X28773428Y-15478095D01*
X28725809Y-15525714D01*
X28678190Y-15620952D01*
X28630571Y-15811428D01*
X28582952Y-15906666D01*
X28535333Y-15954285D01*
X28440095Y-16001904D01*
X28344857Y-16001904D01*
X28249619Y-15954285D01*
X28202000Y-15906666D01*
X28154380Y-15811428D01*
X28154380Y-15573333D01*
X28202000Y-15430476D01*
X29154380Y-14478095D02*
X29154380Y-15049523D01*
X29154380Y-14763809D02*
X28154380Y-14763809D01*
X28297238Y-14859047D01*
X28392476Y-14954285D01*
X28440095Y-15049523D01*
X29106761Y-26161904D02*
X29154380Y-26019047D01*
X29154380Y-25780952D01*
X29106761Y-25685714D01*
X29059142Y-25638095D01*
X28963904Y-25590476D01*
X28868666Y-25590476D01*
X28773428Y-25638095D01*
X28725809Y-25685714D01*
X28678190Y-25780952D01*
X28630571Y-25971428D01*
X28582952Y-26066666D01*
X28535333Y-26114285D01*
X28440095Y-26161904D01*
X28344857Y-26161904D01*
X28249619Y-26114285D01*
X28202000Y-26066666D01*
X28154380Y-25971428D01*
X28154380Y-25733333D01*
X28202000Y-25590476D01*
X28249619Y-25209523D02*
X28202000Y-25161904D01*
X28154380Y-25066666D01*
X28154380Y-24828571D01*
X28202000Y-24733333D01*
X28249619Y-24685714D01*
X28344857Y-24638095D01*
X28440095Y-24638095D01*
X28582952Y-24685714D01*
X29154380Y-25257142D01*
X29154380Y-24638095D01*
X25892476Y1579619D02*
X25892476Y2579619D01*
X26130571Y2579619D01*
X26273428Y2532000D01*
X26368666Y2436761D01*
X26416285Y2341523D01*
X26463904Y2151047D01*
X26463904Y2008190D01*
X26416285Y1817714D01*
X26368666Y1722476D01*
X26273428Y1627238D01*
X26130571Y1579619D01*
X25892476Y1579619D01*
X27416285Y1579619D02*
X26844857Y1579619D01*
X27130571Y1579619D02*
X27130571Y2579619D01*
X27035333Y2436761D01*
X26940095Y2341523D01*
X26844857Y2293904D01*
X27844857Y1960571D02*
X28606761Y1960571D01*
X29654380Y1579619D02*
X29321047Y2055809D01*
X29082952Y1579619D02*
X29082952Y2579619D01*
X29463904Y2579619D01*
X29559142Y2532000D01*
X29606761Y2484380D01*
X29654380Y2389142D01*
X29654380Y2246285D01*
X29606761Y2151047D01*
X29559142Y2103428D01*
X29463904Y2055809D01*
X29082952Y2055809D01*
X30082952Y2103428D02*
X30416285Y2103428D01*
X30559142Y1579619D02*
X30082952Y1579619D01*
X30082952Y2579619D01*
X30559142Y2579619D01*
X30987714Y1579619D02*
X30987714Y2579619D01*
X31225809Y2579619D01*
X31368666Y2532000D01*
X31463904Y2436761D01*
X31511523Y2341523D01*
X31559142Y2151047D01*
X31559142Y2008190D01*
X31511523Y1817714D01*
X31463904Y1722476D01*
X31368666Y1627238D01*
X31225809Y1579619D01*
X30987714Y1579619D01*
X26130571Y-4008380D02*
X26130571Y-3008380D01*
X26368666Y-3008380D01*
X26511523Y-3056000D01*
X26606761Y-3151238D01*
X26654380Y-3246476D01*
X26702000Y-3436952D01*
X26702000Y-3579809D01*
X26654380Y-3770285D01*
X26606761Y-3865523D01*
X26511523Y-3960761D01*
X26368666Y-4008380D01*
X26130571Y-4008380D01*
X27082952Y-3103619D02*
X27130571Y-3056000D01*
X27225809Y-3008380D01*
X27463904Y-3008380D01*
X27559142Y-3056000D01*
X27606761Y-3103619D01*
X27654380Y-3198857D01*
X27654380Y-3294095D01*
X27606761Y-3436952D01*
X27035333Y-4008380D01*
X27654380Y-4008380D01*
X27844857Y-4103619D02*
X28606761Y-4103619D01*
X29368666Y-3056000D02*
X29273428Y-3008380D01*
X29130571Y-3008380D01*
X28987714Y-3056000D01*
X28892476Y-3151238D01*
X28844857Y-3246476D01*
X28797238Y-3436952D01*
X28797238Y-3579809D01*
X28844857Y-3770285D01*
X28892476Y-3865523D01*
X28987714Y-3960761D01*
X29130571Y-4008380D01*
X29225809Y-4008380D01*
X29368666Y-3960761D01*
X29416285Y-3913142D01*
X29416285Y-3579809D01*
X29225809Y-3579809D01*
X30416285Y-4008380D02*
X30082952Y-3532190D01*
X29844857Y-4008380D02*
X29844857Y-3008380D01*
X30225809Y-3008380D01*
X30321047Y-3056000D01*
X30368666Y-3103619D01*
X30416285Y-3198857D01*
X30416285Y-3341714D01*
X30368666Y-3436952D01*
X30321047Y-3484571D01*
X30225809Y-3532190D01*
X29844857Y-3532190D01*
X30844857Y-3484571D02*
X31178190Y-3484571D01*
X31321047Y-4008380D02*
X30844857Y-4008380D01*
X30844857Y-3008380D01*
X31321047Y-3008380D01*
X52935333Y-27630380D02*
X52935333Y-26630380D01*
X53316285Y-26630380D01*
X53411523Y-26678000D01*
X53459142Y-26725619D01*
X53506761Y-26820857D01*
X53506761Y-26963714D01*
X53459142Y-27058952D01*
X53411523Y-27106571D01*
X53316285Y-27154190D01*
X52935333Y-27154190D01*
X54125809Y-26630380D02*
X54316285Y-26630380D01*
X54411523Y-26678000D01*
X54506761Y-26773238D01*
X54554380Y-26963714D01*
X54554380Y-27297047D01*
X54506761Y-27487523D01*
X54411523Y-27582761D01*
X54316285Y-27630380D01*
X54125809Y-27630380D01*
X54030571Y-27582761D01*
X53935333Y-27487523D01*
X53887714Y-27297047D01*
X53887714Y-26963714D01*
X53935333Y-26773238D01*
X54030571Y-26678000D01*
X54125809Y-26630380D01*
X54840095Y-26630380D02*
X55411523Y-26630380D01*
X55125809Y-27630380D02*
X55125809Y-26630380D01*
X37536380Y-61904285D02*
X36536380Y-61904285D01*
X37250666Y-61570952D01*
X36536380Y-61237619D01*
X37536380Y-61237619D01*
X37536380Y-60761428D02*
X36536380Y-60761428D01*
X36536380Y-60380476D01*
X36584000Y-60285238D01*
X36631619Y-60237619D01*
X36726857Y-60190000D01*
X36869714Y-60190000D01*
X36964952Y-60237619D01*
X37012571Y-60285238D01*
X37060190Y-60380476D01*
X37060190Y-60761428D01*
X37536380Y-59190000D02*
X37060190Y-59523333D01*
X37536380Y-59761428D02*
X36536380Y-59761428D01*
X36536380Y-59380476D01*
X36584000Y-59285238D01*
X36631619Y-59237619D01*
X36726857Y-59190000D01*
X36869714Y-59190000D01*
X36964952Y-59237619D01*
X37012571Y-59285238D01*
X37060190Y-59380476D01*
X37060190Y-59761428D01*
X37536380Y-58285238D02*
X37536380Y-58761428D01*
X36536380Y-58761428D01*
X37488761Y-57999523D02*
X37536380Y-57856666D01*
X37536380Y-57618571D01*
X37488761Y-57523333D01*
X37441142Y-57475714D01*
X37345904Y-57428095D01*
X37250666Y-57428095D01*
X37155428Y-57475714D01*
X37107809Y-57523333D01*
X37060190Y-57618571D01*
X37012571Y-57809047D01*
X36964952Y-57904285D01*
X36917333Y-57951904D01*
X36822095Y-57999523D01*
X36726857Y-57999523D01*
X36631619Y-57951904D01*
X36584000Y-57904285D01*
X36536380Y-57809047D01*
X36536380Y-57570952D01*
X36584000Y-57428095D01*
M02*
