G04 #@! TF.GenerationSoftware,KiCad,Pcbnew,(5.1.2)-2*
G04 #@! TF.CreationDate,2020-05-04T11:41:32-04:00*
G04 #@! TF.ProjectId,TeensyLC_DRV8871_MPRLS_Qwiic_v01,5465656e-7379-44c4-935f-445256383837,rev?*
G04 #@! TF.SameCoordinates,Original*
G04 #@! TF.FileFunction,Copper,L1,Top*
G04 #@! TF.FilePolarity,Positive*
%FSLAX46Y46*%
G04 Gerber Fmt 4.6, Leading zero omitted, Abs format (unit mm)*
G04 Created by KiCad (PCBNEW (5.1.2)-2) date 2020-05-04 11:41:32*
%MOMM*%
%LPD*%
G04 APERTURE LIST*
%ADD10C,2.540000*%
%ADD11O,1.600000X1.600000*%
%ADD12C,1.600000*%
%ADD13C,1.778000*%
%ADD14O,1.700000X1.700000*%
%ADD15R,1.700000X1.700000*%
%ADD16R,1.600000X1.600000*%
%ADD17C,1.905000*%
%ADD18R,1.800000X1.800000*%
%ADD19C,1.800000*%
%ADD20C,2.032000*%
%ADD21C,0.800000*%
%ADD22C,0.250000*%
%ADD23C,0.508000*%
%ADD24C,0.254000*%
G04 APERTURE END LIST*
D10*
X33020000Y0D03*
D11*
X41910000Y-39370000D03*
D12*
X31750000Y-39370000D03*
D11*
X41910000Y-43180000D03*
D12*
X31750000Y-43180000D03*
D11*
X54610000Y-39370000D03*
D12*
X44450000Y-39370000D03*
D11*
X54610000Y-43180000D03*
D12*
X44450000Y-43180000D03*
D13*
X48260000Y-53340000D03*
X50800000Y-53340000D03*
X53340000Y-53340000D03*
X55880000Y-53340000D03*
D14*
X30990000Y-69460000D03*
D15*
X36070000Y-69460000D03*
D14*
X28450000Y-69460000D03*
X33530000Y-69460000D03*
D12*
X26670000Y-46430001D03*
X26670000Y-36270001D03*
X26670000Y-33730001D03*
X46990000Y-48970001D03*
X54610000Y-48970001D03*
X57150000Y-46430001D03*
X26670000Y-43890001D03*
X49530000Y-46430001D03*
X57150000Y-48970001D03*
X46990000Y-46430001D03*
X39370000Y-48970001D03*
X29210000Y-48970001D03*
X31750000Y-48970001D03*
X49530000Y-48970001D03*
X52070000Y-48970001D03*
X29210000Y-33730001D03*
X31750000Y-33730001D03*
X59690000Y-48970001D03*
X26670000Y-48970001D03*
X26670000Y-41350001D03*
X26670000Y-38810001D03*
X36830000Y-48970001D03*
X34290000Y-48970001D03*
X41910000Y-48970001D03*
X44450000Y-48970001D03*
X52070000Y-46430001D03*
X49530000Y-33730001D03*
X36830000Y-33730001D03*
X34290000Y-33730001D03*
X57150000Y-33730001D03*
X52070000Y-33730001D03*
X46990000Y-33730001D03*
X54610000Y-33730001D03*
X41910000Y-33730001D03*
D16*
X59690000Y-33730001D03*
D12*
X39370000Y-33730001D03*
X44450000Y-33730001D03*
D10*
X59690000Y-57150000D03*
X33020000Y-25400000D03*
X27940000Y-53340000D03*
D17*
X28575000Y-11430000D03*
X28575000Y-19050000D03*
X28575000Y-21590000D03*
X28575000Y-29210000D03*
D18*
X27305000Y-635000D03*
D19*
X29845000Y-635000D03*
X29845000Y-6350000D03*
D18*
X27305000Y-6350000D03*
D20*
X46545500Y-31115000D03*
X50355500Y-31115000D03*
X54165500Y-31115000D03*
X57975500Y-31115000D03*
X50355500Y-27305000D03*
D13*
X39370000Y-67310000D03*
X39370000Y-64770000D03*
X39370000Y-62230000D03*
X39370000Y-59690000D03*
X39370000Y-57150000D03*
X39370000Y-54610000D03*
X39370000Y-52070000D03*
D21*
X47244000Y-42926000D03*
X40640000Y-46228000D03*
D22*
X28530001Y-3010001D02*
X27305000Y-1785000D01*
X28530001Y-6848003D02*
X28530001Y-3010001D01*
X30335001Y-8653003D02*
X28530001Y-6848003D01*
X30335001Y-36823631D02*
X30335001Y-8653003D01*
X27305000Y-1785000D02*
X27305000Y-635000D01*
X31750000Y-38238630D02*
X30335001Y-36823631D01*
X31750000Y-39370000D02*
X31750000Y-38238630D01*
X35089999Y-32930002D02*
X34290000Y-33730001D01*
X35089999Y-9781997D02*
X35089999Y-32930002D01*
X29845000Y-635000D02*
X29845000Y-4536998D01*
X29845000Y-4536998D02*
X35089999Y-9781997D01*
X34639989Y-30840012D02*
X31750000Y-33730001D01*
X34639989Y-10128989D02*
X34639989Y-30840012D01*
X31966001Y-7455001D02*
X34639989Y-10128989D01*
X29845000Y-6350000D02*
X30950001Y-7455001D01*
X30950001Y-7455001D02*
X31966001Y-7455001D01*
X27305000Y-7500000D02*
X27305000Y-6350000D01*
X27297499Y-7507501D02*
X27305000Y-7500000D01*
X27297499Y-32692498D02*
X27297499Y-7507501D01*
X27795001Y-33190000D02*
X27297499Y-32692498D01*
X27795001Y-39860001D02*
X27795001Y-33190000D01*
X31750000Y-43815000D02*
X27795001Y-39860001D01*
X42545000Y-36195000D02*
X46355000Y-36195000D01*
X55409999Y-38772999D02*
X55409999Y-48170002D01*
X52832000Y-36195000D02*
X55409999Y-38772999D01*
X46355000Y-36195000D02*
X52832000Y-36195000D01*
X29527499Y-20637501D02*
X28575000Y-21590000D01*
X29852501Y-20312499D02*
X29527499Y-20637501D01*
X29852501Y-18436799D02*
X29852501Y-20312499D01*
X28575000Y-17159298D02*
X29852501Y-18436799D01*
X28575000Y-11430000D02*
X28575000Y-17159298D01*
X50355500Y-31115000D02*
X54165500Y-31115000D01*
X55409999Y-48170002D02*
X54610000Y-48970001D01*
X41910000Y-57150000D02*
X39370000Y-59690000D01*
X41910000Y-48970001D02*
X41910000Y-57150000D01*
X41910000Y-48260000D02*
X41910000Y-48970001D01*
X42013010Y-44854990D02*
X40640000Y-46228000D01*
X44412008Y-44854990D02*
X42013010Y-44854990D01*
X47244000Y-42926000D02*
X46340998Y-42926000D01*
X46340998Y-42926000D02*
X44412008Y-44854990D01*
X38481001Y-56261001D02*
X39370000Y-57150000D01*
X38155999Y-55935999D02*
X38481001Y-56261001D01*
X38155999Y-51487279D02*
X38155999Y-55935999D01*
X39370000Y-50273278D02*
X38155999Y-51487279D01*
X39370000Y-48970001D02*
X39370000Y-50273278D01*
X40169999Y-48170002D02*
X39370000Y-48970001D01*
X43035001Y-45305000D02*
X40169999Y-48170002D01*
X51353630Y-45305000D02*
X43035001Y-45305000D01*
X53478630Y-43180000D02*
X51353630Y-45305000D01*
X54610000Y-43180000D02*
X53478630Y-43180000D01*
X34290000Y-42784998D02*
X34290000Y-47838631D01*
X45575001Y-34270002D02*
X44775004Y-35069999D01*
X34290000Y-47838631D02*
X34290000Y-48970001D01*
X44775004Y-35069999D02*
X42004999Y-35069999D01*
X45575001Y-33522339D02*
X45575001Y-34270002D01*
X46545500Y-32551840D02*
X45575001Y-33522339D01*
X42004999Y-35069999D02*
X34290000Y-42784998D01*
X46545500Y-31115000D02*
X46545500Y-32551840D01*
X56959501Y-30099001D02*
X57975500Y-31115000D01*
X56634499Y-29773999D02*
X56959501Y-30099001D01*
X49323341Y-29773999D02*
X56634499Y-29773999D01*
X47982340Y-31115000D02*
X49323341Y-29773999D01*
X46545500Y-31115000D02*
X47982340Y-31115000D01*
X48730001Y-49770000D02*
X49530000Y-48970001D01*
X47045999Y-51454002D02*
X48730001Y-49770000D01*
X47045999Y-58890723D02*
X47045999Y-51454002D01*
X39952721Y-65984001D02*
X47045999Y-58890723D01*
X38445999Y-65984001D02*
X39952721Y-65984001D01*
X36070000Y-68360000D02*
X38445999Y-65984001D01*
X36070000Y-69460000D02*
X36070000Y-68360000D01*
D23*
X59690000Y-50101371D02*
X59690000Y-48970001D01*
D22*
X49148999Y-54228999D02*
X48260000Y-53340000D01*
X49474001Y-54554001D02*
X49148999Y-54228999D01*
X56462721Y-54554001D02*
X49474001Y-54554001D01*
X58275001Y-52741721D02*
X56462721Y-54554001D01*
X58275001Y-40365181D02*
X58275001Y-52741721D01*
X50909990Y-35109991D02*
X53019810Y-35109990D01*
X53019810Y-35109990D02*
X58275001Y-40365181D01*
X49530000Y-33730001D02*
X50909990Y-35109991D01*
X52014001Y-52125999D02*
X51688999Y-52451001D01*
X55860008Y-49384995D02*
X53119004Y-52125999D01*
X51688999Y-52451001D02*
X50800000Y-53340000D01*
X55860008Y-38586598D02*
X55860008Y-49384995D01*
X53119004Y-52125999D02*
X52014001Y-52125999D01*
X52833410Y-35560000D02*
X55860008Y-38586598D01*
X48819999Y-35560000D02*
X52833410Y-35560000D01*
X46990000Y-33730001D02*
X48819999Y-35560000D01*
D24*
G36*
X49485978Y-25892140D02*
G01*
X49388282Y-26158177D01*
X50355500Y-27125395D01*
X51322718Y-26158177D01*
X51225022Y-25892140D01*
X51048288Y-25806000D01*
X59919001Y-25806000D01*
X59919000Y-32365059D01*
X59917036Y-32385000D01*
X59924875Y-32464590D01*
X59948090Y-32541121D01*
X59951317Y-32547158D01*
X58890000Y-32547158D01*
X58815311Y-32554514D01*
X58743492Y-32576300D01*
X58677304Y-32611679D01*
X58619289Y-32659290D01*
X58571678Y-32717305D01*
X58536299Y-32783493D01*
X58514513Y-32855312D01*
X58507157Y-32930001D01*
X58507157Y-34530001D01*
X58514513Y-34604690D01*
X58536299Y-34676509D01*
X58571678Y-34742697D01*
X58619289Y-34800712D01*
X58677304Y-34848323D01*
X58743492Y-34883702D01*
X58815311Y-34905488D01*
X58890000Y-34912844D01*
X60490000Y-34912844D01*
X60564689Y-34905488D01*
X60636508Y-34883702D01*
X60702696Y-34848323D01*
X60760711Y-34800712D01*
X60808322Y-34742697D01*
X60843701Y-34676509D01*
X60865487Y-34604690D01*
X60872843Y-34530001D01*
X60872843Y-32930001D01*
X60865487Y-32855312D01*
X60845978Y-32791000D01*
X61824000Y-32791000D01*
X61824001Y-65385136D01*
X61781449Y-65819115D01*
X61661181Y-66217464D01*
X61465831Y-66584862D01*
X61202845Y-66907315D01*
X60882226Y-67172554D01*
X60516204Y-67370461D01*
X60118708Y-67493506D01*
X59685863Y-67539000D01*
X41294941Y-67539000D01*
X41275000Y-67537036D01*
X41255060Y-67539000D01*
X41255059Y-67539000D01*
X41195410Y-67544875D01*
X41118879Y-67568090D01*
X41048347Y-67605790D01*
X40986526Y-67656526D01*
X40935790Y-67718347D01*
X40898090Y-67788879D01*
X40874875Y-67865410D01*
X40867036Y-67945000D01*
X40869001Y-67964951D01*
X40869000Y-73254000D01*
X27959854Y-73254000D01*
X27525885Y-73211449D01*
X27127536Y-73091181D01*
X26760138Y-72895831D01*
X26437685Y-72632845D01*
X26172446Y-72312226D01*
X25974539Y-71946204D01*
X25851494Y-71548708D01*
X25806000Y-71115863D01*
X25806000Y-69816891D01*
X27008519Y-69816891D01*
X27105843Y-70091252D01*
X27254822Y-70341355D01*
X27449731Y-70557588D01*
X27683080Y-70731641D01*
X27945901Y-70856825D01*
X28093110Y-70901476D01*
X28323000Y-70780155D01*
X28323000Y-69587000D01*
X27129186Y-69587000D01*
X27008519Y-69816891D01*
X25806000Y-69816891D01*
X25806000Y-69103109D01*
X27008519Y-69103109D01*
X27129186Y-69333000D01*
X28323000Y-69333000D01*
X28323000Y-68139845D01*
X28577000Y-68139845D01*
X28577000Y-69333000D01*
X28597000Y-69333000D01*
X28597000Y-69587000D01*
X28577000Y-69587000D01*
X28577000Y-70780155D01*
X28806890Y-70901476D01*
X28954099Y-70856825D01*
X29216920Y-70731641D01*
X29450269Y-70557588D01*
X29645178Y-70341355D01*
X29794157Y-70091252D01*
X29848983Y-69936695D01*
X29961509Y-70147216D01*
X30115340Y-70334660D01*
X30302784Y-70488491D01*
X30516637Y-70602798D01*
X30748682Y-70673188D01*
X30929528Y-70691000D01*
X31050472Y-70691000D01*
X31231318Y-70673188D01*
X31463363Y-70602798D01*
X31677216Y-70488491D01*
X31864660Y-70334660D01*
X32018491Y-70147216D01*
X32132798Y-69933363D01*
X32203188Y-69701318D01*
X32226956Y-69460000D01*
X32293044Y-69460000D01*
X32316812Y-69701318D01*
X32387202Y-69933363D01*
X32501509Y-70147216D01*
X32655340Y-70334660D01*
X32842784Y-70488491D01*
X33056637Y-70602798D01*
X33288682Y-70673188D01*
X33469528Y-70691000D01*
X33590472Y-70691000D01*
X33771318Y-70673188D01*
X34003363Y-70602798D01*
X34217216Y-70488491D01*
X34404660Y-70334660D01*
X34558491Y-70147216D01*
X34672798Y-69933363D01*
X34743188Y-69701318D01*
X34766956Y-69460000D01*
X34743188Y-69218682D01*
X34672798Y-68986637D01*
X34558491Y-68772784D01*
X34404660Y-68585340D01*
X34217216Y-68431509D01*
X34003363Y-68317202D01*
X33771318Y-68246812D01*
X33590472Y-68229000D01*
X33469528Y-68229000D01*
X33288682Y-68246812D01*
X33056637Y-68317202D01*
X32842784Y-68431509D01*
X32655340Y-68585340D01*
X32501509Y-68772784D01*
X32387202Y-68986637D01*
X32316812Y-69218682D01*
X32293044Y-69460000D01*
X32226956Y-69460000D01*
X32203188Y-69218682D01*
X32132798Y-68986637D01*
X32018491Y-68772784D01*
X31864660Y-68585340D01*
X31677216Y-68431509D01*
X31463363Y-68317202D01*
X31231318Y-68246812D01*
X31050472Y-68229000D01*
X30929528Y-68229000D01*
X30748682Y-68246812D01*
X30516637Y-68317202D01*
X30302784Y-68431509D01*
X30115340Y-68585340D01*
X29961509Y-68772784D01*
X29848983Y-68983305D01*
X29794157Y-68828748D01*
X29645178Y-68578645D01*
X29450269Y-68362412D01*
X29216920Y-68188359D01*
X28954099Y-68063175D01*
X28806890Y-68018524D01*
X28577000Y-68139845D01*
X28323000Y-68139845D01*
X28093110Y-68018524D01*
X27945901Y-68063175D01*
X27683080Y-68188359D01*
X27449731Y-68362412D01*
X27254822Y-68578645D01*
X27105843Y-68828748D01*
X27008519Y-69103109D01*
X25806000Y-69103109D01*
X25806000Y-62296988D01*
X37840092Y-62296988D01*
X37882557Y-62594171D01*
X37982184Y-62877359D01*
X38060711Y-63024273D01*
X38313769Y-63106626D01*
X39190395Y-62230000D01*
X39549605Y-62230000D01*
X40426231Y-63106626D01*
X40679289Y-63024273D01*
X40809086Y-62753582D01*
X40883580Y-62462770D01*
X40899908Y-62163012D01*
X40857443Y-61865829D01*
X40757816Y-61582641D01*
X40679289Y-61435727D01*
X40426231Y-61353374D01*
X39549605Y-62230000D01*
X39190395Y-62230000D01*
X38313769Y-61353374D01*
X38060711Y-61435727D01*
X37930914Y-61706418D01*
X37856420Y-61997230D01*
X37840092Y-62296988D01*
X25806000Y-62296988D01*
X25806000Y-53177391D01*
X26289000Y-53177391D01*
X26289000Y-53502609D01*
X26352447Y-53821579D01*
X26476903Y-54122042D01*
X26657585Y-54392451D01*
X26887549Y-54622415D01*
X27157958Y-54803097D01*
X27458421Y-54927553D01*
X27777391Y-54991000D01*
X28102609Y-54991000D01*
X28421579Y-54927553D01*
X28722042Y-54803097D01*
X28992451Y-54622415D01*
X29222415Y-54392451D01*
X29403097Y-54122042D01*
X29527553Y-53821579D01*
X29591000Y-53502609D01*
X29591000Y-53177391D01*
X29527553Y-52858421D01*
X29403097Y-52557958D01*
X29222415Y-52287549D01*
X28992451Y-52057585D01*
X28722042Y-51876903D01*
X28421579Y-51752447D01*
X28102609Y-51689000D01*
X27777391Y-51689000D01*
X27458421Y-51752447D01*
X27157958Y-51876903D01*
X26887549Y-52057585D01*
X26657585Y-52287549D01*
X26476903Y-52557958D01*
X26352447Y-52858421D01*
X26289000Y-53177391D01*
X25806000Y-53177391D01*
X25806000Y-49776186D01*
X25917157Y-49887343D01*
X26110587Y-50016589D01*
X26325515Y-50105615D01*
X26553682Y-50151001D01*
X26786318Y-50151001D01*
X27014485Y-50105615D01*
X27229413Y-50016589D01*
X27422843Y-49887343D01*
X27587342Y-49722844D01*
X27716588Y-49529414D01*
X27805614Y-49314486D01*
X27851000Y-49086319D01*
X27851000Y-48853683D01*
X28029000Y-48853683D01*
X28029000Y-49086319D01*
X28074386Y-49314486D01*
X28163412Y-49529414D01*
X28292658Y-49722844D01*
X28457157Y-49887343D01*
X28650587Y-50016589D01*
X28865515Y-50105615D01*
X29093682Y-50151001D01*
X29326318Y-50151001D01*
X29554485Y-50105615D01*
X29769413Y-50016589D01*
X29962843Y-49887343D01*
X30127342Y-49722844D01*
X30256588Y-49529414D01*
X30345614Y-49314486D01*
X30391000Y-49086319D01*
X30391000Y-48853683D01*
X30569000Y-48853683D01*
X30569000Y-49086319D01*
X30614386Y-49314486D01*
X30703412Y-49529414D01*
X30832658Y-49722844D01*
X30997157Y-49887343D01*
X31190587Y-50016589D01*
X31405515Y-50105615D01*
X31633682Y-50151001D01*
X31866318Y-50151001D01*
X32094485Y-50105615D01*
X32309413Y-50016589D01*
X32502843Y-49887343D01*
X32667342Y-49722844D01*
X32796588Y-49529414D01*
X32885614Y-49314486D01*
X32931000Y-49086319D01*
X32931000Y-48853683D01*
X32885614Y-48625516D01*
X32796588Y-48410588D01*
X32667342Y-48217158D01*
X32502843Y-48052659D01*
X32309413Y-47923413D01*
X32094485Y-47834387D01*
X31866318Y-47789001D01*
X31633682Y-47789001D01*
X31405515Y-47834387D01*
X31190587Y-47923413D01*
X30997157Y-48052659D01*
X30832658Y-48217158D01*
X30703412Y-48410588D01*
X30614386Y-48625516D01*
X30569000Y-48853683D01*
X30391000Y-48853683D01*
X30345614Y-48625516D01*
X30256588Y-48410588D01*
X30127342Y-48217158D01*
X29962843Y-48052659D01*
X29769413Y-47923413D01*
X29554485Y-47834387D01*
X29326318Y-47789001D01*
X29093682Y-47789001D01*
X28865515Y-47834387D01*
X28650587Y-47923413D01*
X28457157Y-48052659D01*
X28292658Y-48217158D01*
X28163412Y-48410588D01*
X28074386Y-48625516D01*
X28029000Y-48853683D01*
X27851000Y-48853683D01*
X27805614Y-48625516D01*
X27716588Y-48410588D01*
X27587342Y-48217158D01*
X27422843Y-48052659D01*
X27229413Y-47923413D01*
X27014485Y-47834387D01*
X26786318Y-47789001D01*
X26553682Y-47789001D01*
X26325515Y-47834387D01*
X26110587Y-47923413D01*
X25917157Y-48052659D01*
X25806000Y-48163816D01*
X25806000Y-47236186D01*
X25917157Y-47347343D01*
X26110587Y-47476589D01*
X26325515Y-47565615D01*
X26553682Y-47611001D01*
X26786318Y-47611001D01*
X27014485Y-47565615D01*
X27229413Y-47476589D01*
X27422843Y-47347343D01*
X27587342Y-47182844D01*
X27716588Y-46989414D01*
X27805614Y-46774486D01*
X27851000Y-46546319D01*
X27851000Y-46313683D01*
X27805614Y-46085516D01*
X27716588Y-45870588D01*
X27587342Y-45677158D01*
X27422843Y-45512659D01*
X27229413Y-45383413D01*
X27014485Y-45294387D01*
X26786318Y-45249001D01*
X26553682Y-45249001D01*
X26325515Y-45294387D01*
X26110587Y-45383413D01*
X25917157Y-45512659D01*
X25806000Y-45623816D01*
X25806000Y-44696186D01*
X25917157Y-44807343D01*
X26110587Y-44936589D01*
X26325515Y-45025615D01*
X26553682Y-45071001D01*
X26786318Y-45071001D01*
X27014485Y-45025615D01*
X27229413Y-44936589D01*
X27422843Y-44807343D01*
X27587342Y-44642844D01*
X27716588Y-44449414D01*
X27805614Y-44234486D01*
X27851000Y-44006319D01*
X27851000Y-43773683D01*
X27805614Y-43545516D01*
X27716588Y-43330588D01*
X27587342Y-43137158D01*
X27422843Y-42972659D01*
X27229413Y-42843413D01*
X27014485Y-42754387D01*
X26786318Y-42709001D01*
X26553682Y-42709001D01*
X26325515Y-42754387D01*
X26110587Y-42843413D01*
X25917157Y-42972659D01*
X25806000Y-43083816D01*
X25806000Y-42156186D01*
X25917157Y-42267343D01*
X26110587Y-42396589D01*
X26325515Y-42485615D01*
X26553682Y-42531001D01*
X26786318Y-42531001D01*
X27014485Y-42485615D01*
X27229413Y-42396589D01*
X27422843Y-42267343D01*
X27587342Y-42102844D01*
X27716588Y-41909414D01*
X27805614Y-41694486D01*
X27851000Y-41466319D01*
X27851000Y-41233683D01*
X27805614Y-41005516D01*
X27716588Y-40790588D01*
X27587342Y-40597158D01*
X27422843Y-40432659D01*
X27229413Y-40303413D01*
X27014485Y-40214387D01*
X26786318Y-40169001D01*
X26553682Y-40169001D01*
X26325515Y-40214387D01*
X26110587Y-40303413D01*
X25917157Y-40432659D01*
X25806000Y-40543816D01*
X25806000Y-39616186D01*
X25917157Y-39727343D01*
X26110587Y-39856589D01*
X26325515Y-39945615D01*
X26553682Y-39991001D01*
X26786318Y-39991001D01*
X27014485Y-39945615D01*
X27229413Y-39856589D01*
X27289001Y-39816774D01*
X27289001Y-39835155D01*
X27286554Y-39860001D01*
X27289001Y-39884847D01*
X27289001Y-39884854D01*
X27296323Y-39959193D01*
X27325256Y-40054575D01*
X27372242Y-40142480D01*
X27435474Y-40219528D01*
X27454786Y-40235377D01*
X30582228Y-43362820D01*
X30614386Y-43524485D01*
X30703412Y-43739413D01*
X30832658Y-43932843D01*
X30997157Y-44097342D01*
X31190587Y-44226588D01*
X31405515Y-44315614D01*
X31633682Y-44361000D01*
X31866318Y-44361000D01*
X32094485Y-44315614D01*
X32309413Y-44226588D01*
X32502843Y-44097342D01*
X32667342Y-43932843D01*
X32796588Y-43739413D01*
X32885614Y-43524485D01*
X32931000Y-43296318D01*
X32931000Y-43063682D01*
X32885614Y-42835515D01*
X32796588Y-42620587D01*
X32667342Y-42427157D01*
X32502843Y-42262658D01*
X32309413Y-42133412D01*
X32094485Y-42044386D01*
X31866318Y-41999000D01*
X31633682Y-41999000D01*
X31405515Y-42044386D01*
X31190587Y-42133412D01*
X30997157Y-42262658D01*
X30955203Y-42304612D01*
X28301001Y-39650410D01*
X28301001Y-34491187D01*
X28457157Y-34647343D01*
X28650587Y-34776589D01*
X28865515Y-34865615D01*
X29093682Y-34911001D01*
X29326318Y-34911001D01*
X29554485Y-34865615D01*
X29769413Y-34776589D01*
X29829001Y-34736773D01*
X29829001Y-36798785D01*
X29826554Y-36823631D01*
X29829001Y-36848477D01*
X29829001Y-36848484D01*
X29836323Y-36922823D01*
X29865256Y-37018205D01*
X29912242Y-37106110D01*
X29975474Y-37183158D01*
X29994786Y-37199007D01*
X31147788Y-38352010D01*
X30997157Y-38452658D01*
X30832658Y-38617157D01*
X30703412Y-38810587D01*
X30614386Y-39025515D01*
X30569000Y-39253682D01*
X30569000Y-39486318D01*
X30614386Y-39714485D01*
X30703412Y-39929413D01*
X30832658Y-40122843D01*
X30997157Y-40287342D01*
X31190587Y-40416588D01*
X31405515Y-40505614D01*
X31633682Y-40551000D01*
X31866318Y-40551000D01*
X32094485Y-40505614D01*
X32309413Y-40416588D01*
X32502843Y-40287342D01*
X32667342Y-40122843D01*
X32796588Y-39929413D01*
X32885614Y-39714485D01*
X32931000Y-39486318D01*
X32931000Y-39253682D01*
X32885614Y-39025515D01*
X32796588Y-38810587D01*
X32667342Y-38617157D01*
X32502843Y-38452658D01*
X32309413Y-38323412D01*
X32256000Y-38301288D01*
X32256000Y-38263484D01*
X32258448Y-38238630D01*
X32248678Y-38139437D01*
X32219745Y-38044055D01*
X32184486Y-37978091D01*
X32172759Y-37956151D01*
X32109527Y-37879103D01*
X32090220Y-37863258D01*
X30841001Y-36614040D01*
X30841001Y-34491187D01*
X30997157Y-34647343D01*
X31190587Y-34776589D01*
X31405515Y-34865615D01*
X31633682Y-34911001D01*
X31866318Y-34911001D01*
X32094485Y-34865615D01*
X32309413Y-34776589D01*
X32502843Y-34647343D01*
X32667342Y-34482844D01*
X32796588Y-34289414D01*
X32885614Y-34074486D01*
X32931000Y-33846319D01*
X32931000Y-33613683D01*
X32885614Y-33385516D01*
X32863490Y-33332103D01*
X34584000Y-31611593D01*
X34584000Y-32584345D01*
X34406318Y-32549001D01*
X34173682Y-32549001D01*
X33945515Y-32594387D01*
X33730587Y-32683413D01*
X33537157Y-32812659D01*
X33372658Y-32977158D01*
X33243412Y-33170588D01*
X33154386Y-33385516D01*
X33109000Y-33613683D01*
X33109000Y-33846319D01*
X33154386Y-34074486D01*
X33243412Y-34289414D01*
X33372658Y-34482844D01*
X33537157Y-34647343D01*
X33730587Y-34776589D01*
X33945515Y-34865615D01*
X34173682Y-34911001D01*
X34406318Y-34911001D01*
X34634485Y-34865615D01*
X34849413Y-34776589D01*
X35042843Y-34647343D01*
X35207342Y-34482844D01*
X35336588Y-34289414D01*
X35425614Y-34074486D01*
X35471000Y-33846319D01*
X35471000Y-33613683D01*
X35425614Y-33385516D01*
X35403490Y-33332103D01*
X35430219Y-33305374D01*
X35449526Y-33289529D01*
X35512758Y-33212481D01*
X35559744Y-33124577D01*
X35588677Y-33029195D01*
X35595999Y-32954856D01*
X35595999Y-32954849D01*
X35598446Y-32930003D01*
X35595999Y-32905157D01*
X35595999Y-32791000D01*
X36109572Y-32791000D01*
X36077157Y-32812659D01*
X35912658Y-32977158D01*
X35783412Y-33170588D01*
X35694386Y-33385516D01*
X35649000Y-33613683D01*
X35649000Y-33846319D01*
X35694386Y-34074486D01*
X35783412Y-34289414D01*
X35912658Y-34482844D01*
X36077157Y-34647343D01*
X36270587Y-34776589D01*
X36485515Y-34865615D01*
X36713682Y-34911001D01*
X36946318Y-34911001D01*
X37174485Y-34865615D01*
X37389413Y-34776589D01*
X37582843Y-34647343D01*
X37747342Y-34482844D01*
X37876588Y-34289414D01*
X37965614Y-34074486D01*
X38011000Y-33846319D01*
X38011000Y-33613683D01*
X37965614Y-33385516D01*
X37876588Y-33170588D01*
X37747342Y-32977158D01*
X37582843Y-32812659D01*
X37550428Y-32791000D01*
X38649572Y-32791000D01*
X38617157Y-32812659D01*
X38452658Y-32977158D01*
X38323412Y-33170588D01*
X38234386Y-33385516D01*
X38189000Y-33613683D01*
X38189000Y-33846319D01*
X38234386Y-34074486D01*
X38323412Y-34289414D01*
X38452658Y-34482844D01*
X38617157Y-34647343D01*
X38810587Y-34776589D01*
X39025515Y-34865615D01*
X39253682Y-34911001D01*
X39486318Y-34911001D01*
X39714485Y-34865615D01*
X39929413Y-34776589D01*
X40122843Y-34647343D01*
X40287342Y-34482844D01*
X40416588Y-34289414D01*
X40505614Y-34074486D01*
X40551000Y-33846319D01*
X40551000Y-33613683D01*
X40505614Y-33385516D01*
X40416588Y-33170588D01*
X40287342Y-32977158D01*
X40122843Y-32812659D01*
X40090428Y-32791000D01*
X41189572Y-32791000D01*
X41157157Y-32812659D01*
X40992658Y-32977158D01*
X40863412Y-33170588D01*
X40774386Y-33385516D01*
X40729000Y-33613683D01*
X40729000Y-33846319D01*
X40774386Y-34074486D01*
X40863412Y-34289414D01*
X40992658Y-34482844D01*
X41157157Y-34647343D01*
X41350587Y-34776589D01*
X41514798Y-34844608D01*
X33949785Y-42409622D01*
X33930473Y-42425471D01*
X33867241Y-42502519D01*
X33820255Y-42590424D01*
X33791322Y-42685806D01*
X33784000Y-42760145D01*
X33784000Y-42760152D01*
X33781553Y-42784998D01*
X33784000Y-42809844D01*
X33784001Y-47813768D01*
X33784000Y-47813778D01*
X33784000Y-47901289D01*
X33730587Y-47923413D01*
X33537157Y-48052659D01*
X33372658Y-48217158D01*
X33243412Y-48410588D01*
X33154386Y-48625516D01*
X33109000Y-48853683D01*
X33109000Y-49086319D01*
X33154386Y-49314486D01*
X33243412Y-49529414D01*
X33372658Y-49722844D01*
X33537157Y-49887343D01*
X33730587Y-50016589D01*
X33945515Y-50105615D01*
X34173682Y-50151001D01*
X34406318Y-50151001D01*
X34634485Y-50105615D01*
X34849413Y-50016589D01*
X35042843Y-49887343D01*
X35207342Y-49722844D01*
X35336588Y-49529414D01*
X35425614Y-49314486D01*
X35471000Y-49086319D01*
X35471000Y-48853683D01*
X35649000Y-48853683D01*
X35649000Y-49086319D01*
X35694386Y-49314486D01*
X35783412Y-49529414D01*
X35912658Y-49722844D01*
X36077157Y-49887343D01*
X36270587Y-50016589D01*
X36485515Y-50105615D01*
X36713682Y-50151001D01*
X36946318Y-50151001D01*
X37174485Y-50105615D01*
X37389413Y-50016589D01*
X37582843Y-49887343D01*
X37747342Y-49722844D01*
X37876588Y-49529414D01*
X37965614Y-49314486D01*
X38011000Y-49086319D01*
X38011000Y-48853683D01*
X37965614Y-48625516D01*
X37876588Y-48410588D01*
X37747342Y-48217158D01*
X37582843Y-48052659D01*
X37389413Y-47923413D01*
X37174485Y-47834387D01*
X36946318Y-47789001D01*
X36713682Y-47789001D01*
X36485515Y-47834387D01*
X36270587Y-47923413D01*
X36077157Y-48052659D01*
X35912658Y-48217158D01*
X35783412Y-48410588D01*
X35694386Y-48625516D01*
X35649000Y-48853683D01*
X35471000Y-48853683D01*
X35425614Y-48625516D01*
X35336588Y-48410588D01*
X35207342Y-48217158D01*
X35042843Y-48052659D01*
X34849413Y-47923413D01*
X34796000Y-47901289D01*
X34796000Y-42994589D01*
X34959628Y-42830961D01*
X40518096Y-42830961D01*
X40640085Y-43053000D01*
X41783000Y-43053000D01*
X41783000Y-41909376D01*
X41560960Y-41788091D01*
X41296119Y-41882930D01*
X41054869Y-42027615D01*
X40846481Y-42216586D01*
X40678963Y-42442580D01*
X40558754Y-42696913D01*
X40518096Y-42830961D01*
X34959628Y-42830961D01*
X38071550Y-39719039D01*
X40518096Y-39719039D01*
X40558754Y-39853087D01*
X40678963Y-40107420D01*
X40846481Y-40333414D01*
X41054869Y-40522385D01*
X41296119Y-40667070D01*
X41560960Y-40761909D01*
X41783000Y-40640624D01*
X41783000Y-39497000D01*
X40640085Y-39497000D01*
X40518096Y-39719039D01*
X38071550Y-39719039D01*
X38769628Y-39020961D01*
X40518096Y-39020961D01*
X40640085Y-39243000D01*
X41783000Y-39243000D01*
X41783000Y-38099376D01*
X42037000Y-38099376D01*
X42037000Y-39243000D01*
X42057000Y-39243000D01*
X42057000Y-39497000D01*
X42037000Y-39497000D01*
X42037000Y-40640624D01*
X42259040Y-40761909D01*
X42523881Y-40667070D01*
X42765131Y-40522385D01*
X42973519Y-40333414D01*
X43141037Y-40107420D01*
X43261246Y-39853087D01*
X43301904Y-39719039D01*
X43179916Y-39497002D01*
X43271125Y-39497002D01*
X43314386Y-39714485D01*
X43403412Y-39929413D01*
X43532658Y-40122843D01*
X43697157Y-40287342D01*
X43890587Y-40416588D01*
X44105515Y-40505614D01*
X44333682Y-40551000D01*
X44566318Y-40551000D01*
X44794485Y-40505614D01*
X45009413Y-40416588D01*
X45202843Y-40287342D01*
X45367342Y-40122843D01*
X45496588Y-39929413D01*
X45585614Y-39714485D01*
X45631000Y-39486318D01*
X45631000Y-39253682D01*
X45585614Y-39025515D01*
X45496588Y-38810587D01*
X45367342Y-38617157D01*
X45202843Y-38452658D01*
X45009413Y-38323412D01*
X44794485Y-38234386D01*
X44566318Y-38189000D01*
X44333682Y-38189000D01*
X44105515Y-38234386D01*
X43890587Y-38323412D01*
X43697157Y-38452658D01*
X43532658Y-38617157D01*
X43403412Y-38810587D01*
X43314386Y-39025515D01*
X43271125Y-39242998D01*
X43179916Y-39242998D01*
X43301904Y-39020961D01*
X43261246Y-38886913D01*
X43141037Y-38632580D01*
X42973519Y-38406586D01*
X42765131Y-38217615D01*
X42523881Y-38072930D01*
X42259040Y-37978091D01*
X42037000Y-38099376D01*
X41783000Y-38099376D01*
X41560960Y-37978091D01*
X41296119Y-38072930D01*
X41054869Y-38217615D01*
X40846481Y-38406586D01*
X40678963Y-38632580D01*
X40558754Y-38886913D01*
X40518096Y-39020961D01*
X38769628Y-39020961D01*
X42214591Y-35575999D01*
X44750158Y-35575999D01*
X44775004Y-35578446D01*
X44799850Y-35575999D01*
X44799858Y-35575999D01*
X44874197Y-35568677D01*
X44969579Y-35539744D01*
X45057483Y-35492758D01*
X45134531Y-35429526D01*
X45150380Y-35410214D01*
X45915221Y-34645374D01*
X45934528Y-34629529D01*
X45997760Y-34552481D01*
X46044746Y-34464577D01*
X46049650Y-34448410D01*
X46072658Y-34482844D01*
X46237157Y-34647343D01*
X46430587Y-34776589D01*
X46645515Y-34865615D01*
X46873682Y-34911001D01*
X47106318Y-34911001D01*
X47334485Y-34865615D01*
X47387898Y-34843491D01*
X48233407Y-35689000D01*
X42520146Y-35689000D01*
X42445807Y-35696322D01*
X42350425Y-35725255D01*
X42262521Y-35772241D01*
X42185473Y-35835473D01*
X42122241Y-35912521D01*
X42075255Y-36000425D01*
X42046322Y-36095807D01*
X42036552Y-36195000D01*
X42046322Y-36294193D01*
X42075255Y-36389575D01*
X42122241Y-36477479D01*
X42185473Y-36554527D01*
X42262521Y-36617759D01*
X42350425Y-36664745D01*
X42445807Y-36693678D01*
X42520146Y-36701000D01*
X52622409Y-36701000D01*
X54185912Y-38264504D01*
X54155864Y-38273619D01*
X53950697Y-38383283D01*
X53770866Y-38530866D01*
X53623283Y-38710697D01*
X53513619Y-38915864D01*
X53446088Y-39138484D01*
X53423286Y-39370000D01*
X53446088Y-39601516D01*
X53513619Y-39824136D01*
X53623283Y-40029303D01*
X53770866Y-40209134D01*
X53950697Y-40356717D01*
X54155864Y-40466381D01*
X54378484Y-40533912D01*
X54551984Y-40551000D01*
X54668016Y-40551000D01*
X54841516Y-40533912D01*
X54903999Y-40514958D01*
X54903999Y-42035042D01*
X54841516Y-42016088D01*
X54668016Y-41999000D01*
X54551984Y-41999000D01*
X54378484Y-42016088D01*
X54155864Y-42083619D01*
X53950697Y-42193283D01*
X53770866Y-42340866D01*
X53623283Y-42520697D01*
X53541341Y-42674000D01*
X53503484Y-42674000D01*
X53478630Y-42671552D01*
X53453776Y-42674000D01*
X53379437Y-42681322D01*
X53284055Y-42710255D01*
X53196151Y-42757241D01*
X53119103Y-42820473D01*
X53103258Y-42839780D01*
X51144039Y-44799000D01*
X45183589Y-44799000D01*
X46550590Y-43432000D01*
X46645499Y-43432000D01*
X46746141Y-43532642D01*
X46874058Y-43618113D01*
X47016191Y-43676987D01*
X47167078Y-43707000D01*
X47320922Y-43707000D01*
X47471809Y-43676987D01*
X47613942Y-43618113D01*
X47741859Y-43532642D01*
X47850642Y-43423859D01*
X47936113Y-43295942D01*
X47994987Y-43153809D01*
X48025000Y-43002922D01*
X48025000Y-42849078D01*
X47994987Y-42698191D01*
X47936113Y-42556058D01*
X47850642Y-42428141D01*
X47741859Y-42319358D01*
X47613942Y-42233887D01*
X47471809Y-42175013D01*
X47320922Y-42145000D01*
X47167078Y-42145000D01*
X47016191Y-42175013D01*
X46874058Y-42233887D01*
X46746141Y-42319358D01*
X46645499Y-42420000D01*
X46365852Y-42420000D01*
X46340998Y-42417552D01*
X46316144Y-42420000D01*
X46241805Y-42427322D01*
X46146423Y-42456255D01*
X46058519Y-42503241D01*
X45981471Y-42566473D01*
X45965626Y-42585780D01*
X45607229Y-42944178D01*
X45585614Y-42835515D01*
X45496588Y-42620587D01*
X45367342Y-42427157D01*
X45202843Y-42262658D01*
X45009413Y-42133412D01*
X44794485Y-42044386D01*
X44566318Y-41999000D01*
X44333682Y-41999000D01*
X44105515Y-42044386D01*
X43890587Y-42133412D01*
X43697157Y-42262658D01*
X43532658Y-42427157D01*
X43403412Y-42620587D01*
X43314386Y-42835515D01*
X43271125Y-43052998D01*
X43179916Y-43052998D01*
X43301904Y-42830961D01*
X43261246Y-42696913D01*
X43141037Y-42442580D01*
X42973519Y-42216586D01*
X42765131Y-42027615D01*
X42523881Y-41882930D01*
X42259040Y-41788091D01*
X42037000Y-41909376D01*
X42037000Y-43053000D01*
X42057000Y-43053000D01*
X42057000Y-43307000D01*
X42037000Y-43307000D01*
X42037000Y-43327000D01*
X41783000Y-43327000D01*
X41783000Y-43307000D01*
X40640085Y-43307000D01*
X40518096Y-43529039D01*
X40558754Y-43663087D01*
X40678963Y-43917420D01*
X40846481Y-44143414D01*
X41054869Y-44332385D01*
X41296119Y-44477070D01*
X41560960Y-44571909D01*
X41604019Y-44548389D01*
X40705409Y-45447000D01*
X40563078Y-45447000D01*
X40412191Y-45477013D01*
X40270058Y-45535887D01*
X40142141Y-45621358D01*
X40033358Y-45730141D01*
X39947887Y-45858058D01*
X39889013Y-46000191D01*
X39859000Y-46151078D01*
X39859000Y-46304922D01*
X39889013Y-46455809D01*
X39947887Y-46597942D01*
X40033358Y-46725859D01*
X40142141Y-46834642D01*
X40270058Y-46920113D01*
X40412191Y-46978987D01*
X40563078Y-47009000D01*
X40615410Y-47009000D01*
X39829783Y-47794627D01*
X39829777Y-47794632D01*
X39767898Y-47856511D01*
X39714485Y-47834387D01*
X39486318Y-47789001D01*
X39253682Y-47789001D01*
X39025515Y-47834387D01*
X38810587Y-47923413D01*
X38617157Y-48052659D01*
X38452658Y-48217158D01*
X38323412Y-48410588D01*
X38234386Y-48625516D01*
X38189000Y-48853683D01*
X38189000Y-49086319D01*
X38234386Y-49314486D01*
X38323412Y-49529414D01*
X38452658Y-49722844D01*
X38617157Y-49887343D01*
X38810587Y-50016589D01*
X38864001Y-50038714D01*
X38864001Y-50063685D01*
X37815784Y-51111903D01*
X37796472Y-51127752D01*
X37733240Y-51204800D01*
X37686254Y-51292705D01*
X37657321Y-51388087D01*
X37649999Y-51462426D01*
X37649999Y-51462433D01*
X37647552Y-51487279D01*
X37649999Y-51512125D01*
X37650000Y-55911143D01*
X37647552Y-55935999D01*
X37657321Y-56035191D01*
X37686254Y-56130573D01*
X37703869Y-56163527D01*
X37733241Y-56218478D01*
X37796473Y-56295526D01*
X37815780Y-56311371D01*
X38188392Y-56683983D01*
X38148805Y-56779555D01*
X38100000Y-57024916D01*
X38100000Y-57275084D01*
X38148805Y-57520445D01*
X38244541Y-57751571D01*
X38383527Y-57959578D01*
X38560422Y-58136473D01*
X38768429Y-58275459D01*
X38999555Y-58371195D01*
X39244916Y-58420000D01*
X38999555Y-58468805D01*
X38768429Y-58564541D01*
X38560422Y-58703527D01*
X38383527Y-58880422D01*
X38244541Y-59088429D01*
X38148805Y-59319555D01*
X38100000Y-59564916D01*
X38100000Y-59815084D01*
X38148805Y-60060445D01*
X38244541Y-60291571D01*
X38383527Y-60499578D01*
X38560422Y-60676473D01*
X38768429Y-60815459D01*
X38782288Y-60821200D01*
X38722641Y-60842184D01*
X38575727Y-60920711D01*
X38493374Y-61173769D01*
X39370000Y-62050395D01*
X40246626Y-61173769D01*
X40164273Y-60920711D01*
X39957192Y-60821415D01*
X39971571Y-60815459D01*
X40179578Y-60676473D01*
X40356473Y-60499578D01*
X40495459Y-60291571D01*
X40591195Y-60060445D01*
X40640000Y-59815084D01*
X40640000Y-59564916D01*
X40591195Y-59319555D01*
X40551608Y-59223984D01*
X42250222Y-57525370D01*
X42269527Y-57509527D01*
X42332759Y-57432479D01*
X42379745Y-57344575D01*
X42408678Y-57249193D01*
X42416000Y-57174854D01*
X42416000Y-57174847D01*
X42418447Y-57150001D01*
X42416000Y-57125155D01*
X42416000Y-50038713D01*
X42469413Y-50016589D01*
X42662843Y-49887343D01*
X42827342Y-49722844D01*
X42956588Y-49529414D01*
X43045614Y-49314486D01*
X43091000Y-49086319D01*
X43091000Y-48853683D01*
X43269000Y-48853683D01*
X43269000Y-49086319D01*
X43314386Y-49314486D01*
X43403412Y-49529414D01*
X43532658Y-49722844D01*
X43697157Y-49887343D01*
X43890587Y-50016589D01*
X44105515Y-50105615D01*
X44333682Y-50151001D01*
X44566318Y-50151001D01*
X44794485Y-50105615D01*
X45009413Y-50016589D01*
X45202843Y-49887343D01*
X45367342Y-49722844D01*
X45496588Y-49529414D01*
X45585614Y-49314486D01*
X45631000Y-49086319D01*
X45631000Y-48853683D01*
X45809000Y-48853683D01*
X45809000Y-49086319D01*
X45854386Y-49314486D01*
X45943412Y-49529414D01*
X46072658Y-49722844D01*
X46237157Y-49887343D01*
X46430587Y-50016589D01*
X46645515Y-50105615D01*
X46873682Y-50151001D01*
X47106318Y-50151001D01*
X47334485Y-50105615D01*
X47549413Y-50016589D01*
X47742843Y-49887343D01*
X47907342Y-49722844D01*
X48036588Y-49529414D01*
X48125614Y-49314486D01*
X48171000Y-49086319D01*
X48171000Y-48853683D01*
X48125614Y-48625516D01*
X48036588Y-48410588D01*
X47907342Y-48217158D01*
X47742843Y-48052659D01*
X47549413Y-47923413D01*
X47334485Y-47834387D01*
X47106318Y-47789001D01*
X46873682Y-47789001D01*
X46645515Y-47834387D01*
X46430587Y-47923413D01*
X46237157Y-48052659D01*
X46072658Y-48217158D01*
X45943412Y-48410588D01*
X45854386Y-48625516D01*
X45809000Y-48853683D01*
X45631000Y-48853683D01*
X45585614Y-48625516D01*
X45496588Y-48410588D01*
X45367342Y-48217158D01*
X45202843Y-48052659D01*
X45009413Y-47923413D01*
X44794485Y-47834387D01*
X44566318Y-47789001D01*
X44333682Y-47789001D01*
X44105515Y-47834387D01*
X43890587Y-47923413D01*
X43697157Y-48052659D01*
X43532658Y-48217158D01*
X43403412Y-48410588D01*
X43314386Y-48625516D01*
X43269000Y-48853683D01*
X43091000Y-48853683D01*
X43045614Y-48625516D01*
X42956588Y-48410588D01*
X42827342Y-48217158D01*
X42662843Y-48052659D01*
X42469413Y-47923413D01*
X42254485Y-47834387D01*
X42147222Y-47813051D01*
X42104574Y-47790255D01*
X42009192Y-47761322D01*
X41910000Y-47751552D01*
X41810807Y-47761322D01*
X41715425Y-47790255D01*
X41672777Y-47813051D01*
X41565515Y-47834387D01*
X41350587Y-47923413D01*
X41157157Y-48052659D01*
X40992658Y-48217158D01*
X40863412Y-48410588D01*
X40774386Y-48625516D01*
X40729000Y-48853683D01*
X40729000Y-49086319D01*
X40774386Y-49314486D01*
X40863412Y-49529414D01*
X40992658Y-49722844D01*
X41157157Y-49887343D01*
X41350587Y-50016589D01*
X41404000Y-50038713D01*
X41404001Y-56940407D01*
X39836016Y-58508392D01*
X39740445Y-58468805D01*
X39495084Y-58420000D01*
X39740445Y-58371195D01*
X39971571Y-58275459D01*
X40179578Y-58136473D01*
X40356473Y-57959578D01*
X40495459Y-57751571D01*
X40591195Y-57520445D01*
X40640000Y-57275084D01*
X40640000Y-57024916D01*
X40591195Y-56779555D01*
X40495459Y-56548429D01*
X40356473Y-56340422D01*
X40179578Y-56163527D01*
X39971571Y-56024541D01*
X39740445Y-55928805D01*
X39495084Y-55880000D01*
X39740445Y-55831195D01*
X39971571Y-55735459D01*
X40179578Y-55596473D01*
X40356473Y-55419578D01*
X40495459Y-55211571D01*
X40591195Y-54980445D01*
X40640000Y-54735084D01*
X40640000Y-54484916D01*
X40591195Y-54239555D01*
X40495459Y-54008429D01*
X40356473Y-53800422D01*
X40179578Y-53623527D01*
X39971571Y-53484541D01*
X39740445Y-53388805D01*
X39495084Y-53340000D01*
X39740445Y-53291195D01*
X39971571Y-53195459D01*
X40179578Y-53056473D01*
X40356473Y-52879578D01*
X40495459Y-52671571D01*
X40591195Y-52440445D01*
X40640000Y-52195084D01*
X40640000Y-51944916D01*
X40591195Y-51699555D01*
X40495459Y-51468429D01*
X40356473Y-51260422D01*
X40179578Y-51083527D01*
X39971571Y-50944541D01*
X39740445Y-50848805D01*
X39548287Y-50810583D01*
X39710220Y-50648650D01*
X39729527Y-50632805D01*
X39792759Y-50555757D01*
X39839745Y-50467853D01*
X39868678Y-50372471D01*
X39876000Y-50298132D01*
X39878448Y-50273278D01*
X39876000Y-50248424D01*
X39876000Y-50038713D01*
X39929413Y-50016589D01*
X40122843Y-49887343D01*
X40287342Y-49722844D01*
X40416588Y-49529414D01*
X40505614Y-49314486D01*
X40551000Y-49086319D01*
X40551000Y-48853683D01*
X40505614Y-48625516D01*
X40483490Y-48572103D01*
X40545369Y-48510224D01*
X40545374Y-48510218D01*
X43244593Y-45811000D01*
X45983227Y-45811000D01*
X45943412Y-45870588D01*
X45854386Y-46085516D01*
X45809000Y-46313683D01*
X45809000Y-46546319D01*
X45854386Y-46774486D01*
X45943412Y-46989414D01*
X46072658Y-47182844D01*
X46237157Y-47347343D01*
X46430587Y-47476589D01*
X46645515Y-47565615D01*
X46873682Y-47611001D01*
X47106318Y-47611001D01*
X47334485Y-47565615D01*
X47549413Y-47476589D01*
X47742843Y-47347343D01*
X47907342Y-47182844D01*
X48036588Y-46989414D01*
X48125614Y-46774486D01*
X48171000Y-46546319D01*
X48171000Y-46313683D01*
X48125614Y-46085516D01*
X48036588Y-45870588D01*
X47996773Y-45811000D01*
X48523227Y-45811000D01*
X48483412Y-45870588D01*
X48394386Y-46085516D01*
X48349000Y-46313683D01*
X48349000Y-46546319D01*
X48394386Y-46774486D01*
X48483412Y-46989414D01*
X48612658Y-47182844D01*
X48777157Y-47347343D01*
X48970587Y-47476589D01*
X49185515Y-47565615D01*
X49413682Y-47611001D01*
X49646318Y-47611001D01*
X49874485Y-47565615D01*
X50089413Y-47476589D01*
X50282843Y-47347343D01*
X50447342Y-47182844D01*
X50576588Y-46989414D01*
X50665614Y-46774486D01*
X50711000Y-46546319D01*
X50711000Y-46313683D01*
X50665614Y-46085516D01*
X50576588Y-45870588D01*
X50536773Y-45811000D01*
X51063227Y-45811000D01*
X51023412Y-45870588D01*
X50934386Y-46085516D01*
X50889000Y-46313683D01*
X50889000Y-46546319D01*
X50934386Y-46774486D01*
X51023412Y-46989414D01*
X51152658Y-47182844D01*
X51317157Y-47347343D01*
X51510587Y-47476589D01*
X51725515Y-47565615D01*
X51953682Y-47611001D01*
X52186318Y-47611001D01*
X52414485Y-47565615D01*
X52629413Y-47476589D01*
X52822843Y-47347343D01*
X52987342Y-47182844D01*
X53116588Y-46989414D01*
X53205614Y-46774486D01*
X53251000Y-46546319D01*
X53251000Y-46313683D01*
X53205614Y-46085516D01*
X53116588Y-45870588D01*
X52987342Y-45677158D01*
X52822843Y-45512659D01*
X52629413Y-45383413D01*
X52414485Y-45294387D01*
X52186318Y-45249001D01*
X52125220Y-45249001D01*
X53592503Y-43781718D01*
X53623283Y-43839303D01*
X53770866Y-44019134D01*
X53950697Y-44166717D01*
X54155864Y-44276381D01*
X54378484Y-44343912D01*
X54551984Y-44361000D01*
X54668016Y-44361000D01*
X54841516Y-44343912D01*
X54904000Y-44324958D01*
X54904000Y-47824345D01*
X54726318Y-47789001D01*
X54493682Y-47789001D01*
X54265515Y-47834387D01*
X54050587Y-47923413D01*
X53857157Y-48052659D01*
X53692658Y-48217158D01*
X53563412Y-48410588D01*
X53474386Y-48625516D01*
X53429000Y-48853683D01*
X53429000Y-49086319D01*
X53474386Y-49314486D01*
X53563412Y-49529414D01*
X53692658Y-49722844D01*
X53857157Y-49887343D01*
X54050587Y-50016589D01*
X54265515Y-50105615D01*
X54397535Y-50131876D01*
X52909413Y-51619999D01*
X52038846Y-51619999D01*
X52014000Y-51617552D01*
X51989154Y-51619999D01*
X51989147Y-51619999D01*
X51924695Y-51626347D01*
X51914807Y-51627321D01*
X51819426Y-51656254D01*
X51731522Y-51703240D01*
X51654474Y-51766472D01*
X51638625Y-51785784D01*
X51348783Y-52075626D01*
X51348777Y-52075631D01*
X51266016Y-52158392D01*
X51170445Y-52118805D01*
X50925084Y-52070000D01*
X50674916Y-52070000D01*
X50429555Y-52118805D01*
X50198429Y-52214541D01*
X49990422Y-52353527D01*
X49813527Y-52530422D01*
X49674541Y-52738429D01*
X49578805Y-52969555D01*
X49530000Y-53214916D01*
X49481195Y-52969555D01*
X49385459Y-52738429D01*
X49246473Y-52530422D01*
X49069578Y-52353527D01*
X48861571Y-52214541D01*
X48630445Y-52118805D01*
X48385084Y-52070000D01*
X48134916Y-52070000D01*
X47889555Y-52118805D01*
X47658429Y-52214541D01*
X47551999Y-52285655D01*
X47551999Y-51663593D01*
X49105371Y-50110222D01*
X49105375Y-50110217D01*
X49132102Y-50083490D01*
X49185515Y-50105615D01*
X49413682Y-50151001D01*
X49646318Y-50151001D01*
X49874485Y-50105615D01*
X50089413Y-50016589D01*
X50282843Y-49887343D01*
X50447342Y-49722844D01*
X50576588Y-49529414D01*
X50665614Y-49314486D01*
X50711000Y-49086319D01*
X50711000Y-48853683D01*
X50889000Y-48853683D01*
X50889000Y-49086319D01*
X50934386Y-49314486D01*
X51023412Y-49529414D01*
X51152658Y-49722844D01*
X51317157Y-49887343D01*
X51510587Y-50016589D01*
X51725515Y-50105615D01*
X51953682Y-50151001D01*
X52186318Y-50151001D01*
X52414485Y-50105615D01*
X52629413Y-50016589D01*
X52822843Y-49887343D01*
X52987342Y-49722844D01*
X53116588Y-49529414D01*
X53205614Y-49314486D01*
X53251000Y-49086319D01*
X53251000Y-48853683D01*
X53205614Y-48625516D01*
X53116588Y-48410588D01*
X52987342Y-48217158D01*
X52822843Y-48052659D01*
X52629413Y-47923413D01*
X52414485Y-47834387D01*
X52186318Y-47789001D01*
X51953682Y-47789001D01*
X51725515Y-47834387D01*
X51510587Y-47923413D01*
X51317157Y-48052659D01*
X51152658Y-48217158D01*
X51023412Y-48410588D01*
X50934386Y-48625516D01*
X50889000Y-48853683D01*
X50711000Y-48853683D01*
X50665614Y-48625516D01*
X50576588Y-48410588D01*
X50447342Y-48217158D01*
X50282843Y-48052659D01*
X50089413Y-47923413D01*
X49874485Y-47834387D01*
X49646318Y-47789001D01*
X49413682Y-47789001D01*
X49185515Y-47834387D01*
X48970587Y-47923413D01*
X48777157Y-48052659D01*
X48612658Y-48217158D01*
X48483412Y-48410588D01*
X48394386Y-48625516D01*
X48349000Y-48853683D01*
X48349000Y-49086319D01*
X48394386Y-49314486D01*
X48416511Y-49367899D01*
X48389784Y-49394626D01*
X48389779Y-49394630D01*
X46705779Y-51078630D01*
X46686473Y-51094475D01*
X46623241Y-51171523D01*
X46598126Y-51218510D01*
X46576254Y-51259428D01*
X46547321Y-51354810D01*
X46537552Y-51454002D01*
X46540000Y-51478858D01*
X46539999Y-58681131D01*
X40629417Y-64591713D01*
X40591195Y-64399555D01*
X40495459Y-64168429D01*
X40356473Y-63960422D01*
X40179578Y-63783527D01*
X39971571Y-63644541D01*
X39957712Y-63638800D01*
X40017359Y-63617816D01*
X40164273Y-63539289D01*
X40246626Y-63286231D01*
X39370000Y-62409605D01*
X38493374Y-63286231D01*
X38575727Y-63539289D01*
X38782808Y-63638585D01*
X38768429Y-63644541D01*
X38560422Y-63783527D01*
X38383527Y-63960422D01*
X38244541Y-64168429D01*
X38148805Y-64399555D01*
X38100000Y-64644916D01*
X38100000Y-64895084D01*
X38148805Y-65140445D01*
X38244541Y-65371571D01*
X38324973Y-65491946D01*
X38251424Y-65514256D01*
X38163520Y-65561242D01*
X38086472Y-65624474D01*
X38070628Y-65643780D01*
X35729781Y-67984628D01*
X35710474Y-68000473D01*
X35647242Y-68077521D01*
X35633266Y-68103669D01*
X35600255Y-68165426D01*
X35581530Y-68227157D01*
X35220000Y-68227157D01*
X35145311Y-68234513D01*
X35073492Y-68256299D01*
X35007304Y-68291678D01*
X34949289Y-68339289D01*
X34901678Y-68397304D01*
X34866299Y-68463492D01*
X34844513Y-68535311D01*
X34837157Y-68610000D01*
X34837157Y-70310000D01*
X34844513Y-70384689D01*
X34866299Y-70456508D01*
X34901678Y-70522696D01*
X34949289Y-70580711D01*
X35007304Y-70628322D01*
X35073492Y-70663701D01*
X35145311Y-70685487D01*
X35220000Y-70692843D01*
X36920000Y-70692843D01*
X36994689Y-70685487D01*
X37066508Y-70663701D01*
X37132696Y-70628322D01*
X37190711Y-70580711D01*
X37238322Y-70522696D01*
X37273701Y-70456508D01*
X37295487Y-70384689D01*
X37302843Y-70310000D01*
X37302843Y-68610000D01*
X37295487Y-68535311D01*
X37273701Y-68463492D01*
X37238322Y-68397304D01*
X37190711Y-68339289D01*
X37132696Y-68291678D01*
X37066508Y-68256299D01*
X36994689Y-68234513D01*
X36920000Y-68227157D01*
X36918434Y-68227157D01*
X38134594Y-67010997D01*
X38100000Y-67184916D01*
X38100000Y-67435084D01*
X38148805Y-67680445D01*
X38244541Y-67911571D01*
X38383527Y-68119578D01*
X38560422Y-68296473D01*
X38768429Y-68435459D01*
X38999555Y-68531195D01*
X39244916Y-68580000D01*
X39495084Y-68580000D01*
X39740445Y-68531195D01*
X39971571Y-68435459D01*
X40179578Y-68296473D01*
X40356473Y-68119578D01*
X40495459Y-67911571D01*
X40591195Y-67680445D01*
X40640000Y-67435084D01*
X40640000Y-67184916D01*
X40591195Y-66939555D01*
X40495459Y-66708429D01*
X40356473Y-66500422D01*
X40250365Y-66394314D01*
X40312248Y-66343528D01*
X40328097Y-66324216D01*
X47386219Y-59266095D01*
X47405526Y-59250250D01*
X47468758Y-59173202D01*
X47515744Y-59085298D01*
X47544677Y-58989916D01*
X47551999Y-58915577D01*
X47551999Y-58915569D01*
X47554446Y-58890723D01*
X47551999Y-58865877D01*
X47551999Y-56987391D01*
X58039000Y-56987391D01*
X58039000Y-57312609D01*
X58102447Y-57631579D01*
X58226903Y-57932042D01*
X58407585Y-58202451D01*
X58637549Y-58432415D01*
X58907958Y-58613097D01*
X59208421Y-58737553D01*
X59527391Y-58801000D01*
X59852609Y-58801000D01*
X60171579Y-58737553D01*
X60472042Y-58613097D01*
X60742451Y-58432415D01*
X60972415Y-58202451D01*
X61153097Y-57932042D01*
X61277553Y-57631579D01*
X61341000Y-57312609D01*
X61341000Y-56987391D01*
X61277553Y-56668421D01*
X61153097Y-56367958D01*
X60972415Y-56097549D01*
X60742451Y-55867585D01*
X60472042Y-55686903D01*
X60171579Y-55562447D01*
X59852609Y-55499000D01*
X59527391Y-55499000D01*
X59208421Y-55562447D01*
X58907958Y-55686903D01*
X58637549Y-55867585D01*
X58407585Y-56097549D01*
X58226903Y-56367958D01*
X58102447Y-56668421D01*
X58039000Y-56987391D01*
X47551999Y-56987391D01*
X47551999Y-54394345D01*
X47658429Y-54465459D01*
X47889555Y-54561195D01*
X48134916Y-54610000D01*
X48385084Y-54610000D01*
X48630445Y-54561195D01*
X48726016Y-54521608D01*
X48808777Y-54604369D01*
X48808783Y-54604374D01*
X49098625Y-54894216D01*
X49114474Y-54913528D01*
X49191522Y-54976760D01*
X49279426Y-55023746D01*
X49374807Y-55052679D01*
X49384695Y-55053653D01*
X49449147Y-55060001D01*
X49449154Y-55060001D01*
X49474000Y-55062448D01*
X49498846Y-55060001D01*
X56437875Y-55060001D01*
X56462721Y-55062448D01*
X56487567Y-55060001D01*
X56487575Y-55060001D01*
X56561914Y-55052679D01*
X56657296Y-55023746D01*
X56745200Y-54976760D01*
X56822248Y-54913528D01*
X56838097Y-54894216D01*
X58615221Y-53117093D01*
X58634528Y-53101248D01*
X58697760Y-53024200D01*
X58744746Y-52936296D01*
X58773679Y-52840914D01*
X58781001Y-52766575D01*
X58781001Y-52766567D01*
X58783448Y-52741721D01*
X58781001Y-52716875D01*
X58781001Y-49731187D01*
X58937157Y-49887343D01*
X59055000Y-49966083D01*
X59055000Y-50132562D01*
X59064188Y-50225852D01*
X59100498Y-50345550D01*
X59159463Y-50455864D01*
X59238815Y-50552556D01*
X59335506Y-50631908D01*
X59445820Y-50690873D01*
X59565518Y-50727183D01*
X59690000Y-50739443D01*
X59814481Y-50727183D01*
X59934179Y-50690873D01*
X60044493Y-50631908D01*
X60141185Y-50552556D01*
X60220537Y-50455865D01*
X60279502Y-50345551D01*
X60315812Y-50225853D01*
X60325000Y-50132563D01*
X60325000Y-49966083D01*
X60442843Y-49887343D01*
X60607342Y-49722844D01*
X60736588Y-49529414D01*
X60825614Y-49314486D01*
X60871000Y-49086319D01*
X60871000Y-48853683D01*
X60825614Y-48625516D01*
X60736588Y-48410588D01*
X60607342Y-48217158D01*
X60442843Y-48052659D01*
X60249413Y-47923413D01*
X60034485Y-47834387D01*
X59806318Y-47789001D01*
X59573682Y-47789001D01*
X59345515Y-47834387D01*
X59130587Y-47923413D01*
X58937157Y-48052659D01*
X58781001Y-48208815D01*
X58781001Y-40390026D01*
X58783448Y-40365180D01*
X58781001Y-40340334D01*
X58781001Y-40340327D01*
X58773679Y-40265988D01*
X58744746Y-40170606D01*
X58697760Y-40082702D01*
X58634528Y-40005654D01*
X58615221Y-39989809D01*
X53395180Y-34769769D01*
X53379336Y-34750463D01*
X53302288Y-34687231D01*
X53214384Y-34640245D01*
X53119002Y-34611312D01*
X53044663Y-34603990D01*
X53044656Y-34603990D01*
X53019810Y-34601543D01*
X52994963Y-34603990D01*
X52866196Y-34603990D01*
X52987342Y-34482844D01*
X53116588Y-34289414D01*
X53205614Y-34074486D01*
X53251000Y-33846319D01*
X53251000Y-33613683D01*
X53429000Y-33613683D01*
X53429000Y-33846319D01*
X53474386Y-34074486D01*
X53563412Y-34289414D01*
X53692658Y-34482844D01*
X53857157Y-34647343D01*
X54050587Y-34776589D01*
X54265515Y-34865615D01*
X54493682Y-34911001D01*
X54726318Y-34911001D01*
X54954485Y-34865615D01*
X55169413Y-34776589D01*
X55362843Y-34647343D01*
X55527342Y-34482844D01*
X55656588Y-34289414D01*
X55745614Y-34074486D01*
X55791000Y-33846319D01*
X55791000Y-33613683D01*
X55969000Y-33613683D01*
X55969000Y-33846319D01*
X56014386Y-34074486D01*
X56103412Y-34289414D01*
X56232658Y-34482844D01*
X56397157Y-34647343D01*
X56590587Y-34776589D01*
X56805515Y-34865615D01*
X57033682Y-34911001D01*
X57266318Y-34911001D01*
X57494485Y-34865615D01*
X57709413Y-34776589D01*
X57902843Y-34647343D01*
X58067342Y-34482844D01*
X58196588Y-34289414D01*
X58285614Y-34074486D01*
X58331000Y-33846319D01*
X58331000Y-33613683D01*
X58285614Y-33385516D01*
X58196588Y-33170588D01*
X58067342Y-32977158D01*
X57902843Y-32812659D01*
X57709413Y-32683413D01*
X57494485Y-32594387D01*
X57266318Y-32549001D01*
X57033682Y-32549001D01*
X56805515Y-32594387D01*
X56590587Y-32683413D01*
X56397157Y-32812659D01*
X56232658Y-32977158D01*
X56103412Y-33170588D01*
X56014386Y-33385516D01*
X55969000Y-33613683D01*
X55791000Y-33613683D01*
X55745614Y-33385516D01*
X55656588Y-33170588D01*
X55527342Y-32977158D01*
X55362843Y-32812659D01*
X55169413Y-32683413D01*
X54954485Y-32594387D01*
X54726318Y-32549001D01*
X54493682Y-32549001D01*
X54265515Y-32594387D01*
X54050587Y-32683413D01*
X53857157Y-32812659D01*
X53692658Y-32977158D01*
X53563412Y-33170588D01*
X53474386Y-33385516D01*
X53429000Y-33613683D01*
X53251000Y-33613683D01*
X53205614Y-33385516D01*
X53116588Y-33170588D01*
X52987342Y-32977158D01*
X52822843Y-32812659D01*
X52629413Y-32683413D01*
X52414485Y-32594387D01*
X52186318Y-32549001D01*
X51953682Y-32549001D01*
X51725515Y-32594387D01*
X51510587Y-32683413D01*
X51317157Y-32812659D01*
X51152658Y-32977158D01*
X51023412Y-33170588D01*
X50934386Y-33385516D01*
X50889000Y-33613683D01*
X50889000Y-33846319D01*
X50934386Y-34074486D01*
X51023412Y-34289414D01*
X51152658Y-34482844D01*
X51273806Y-34603992D01*
X51119583Y-34603992D01*
X50643490Y-34127899D01*
X50665614Y-34074486D01*
X50711000Y-33846319D01*
X50711000Y-33613683D01*
X50665614Y-33385516D01*
X50576588Y-33170588D01*
X50447342Y-32977158D01*
X50282843Y-32812659D01*
X50089413Y-32683413D01*
X49874485Y-32594387D01*
X49646318Y-32549001D01*
X49413682Y-32549001D01*
X49185515Y-32594387D01*
X48970587Y-32683413D01*
X48777157Y-32812659D01*
X48612658Y-32977158D01*
X48483412Y-33170588D01*
X48394386Y-33385516D01*
X48349000Y-33613683D01*
X48349000Y-33846319D01*
X48394386Y-34074486D01*
X48483412Y-34289414D01*
X48612658Y-34482844D01*
X48777157Y-34647343D01*
X48970587Y-34776589D01*
X49185515Y-34865615D01*
X49413682Y-34911001D01*
X49646318Y-34911001D01*
X49874485Y-34865615D01*
X49927898Y-34843491D01*
X50138407Y-35054000D01*
X49029591Y-35054000D01*
X48103490Y-34127899D01*
X48125614Y-34074486D01*
X48171000Y-33846319D01*
X48171000Y-33613683D01*
X48125614Y-33385516D01*
X48036588Y-33170588D01*
X47907342Y-32977158D01*
X47742843Y-32812659D01*
X47549413Y-32683413D01*
X47334485Y-32594387D01*
X47106318Y-32549001D01*
X47053668Y-32549001D01*
X47051500Y-32526986D01*
X47051500Y-32417510D01*
X47207227Y-32353005D01*
X47436035Y-32200120D01*
X47630620Y-32005535D01*
X47783505Y-31776727D01*
X47848010Y-31621000D01*
X47957494Y-31621000D01*
X47982340Y-31623447D01*
X48007186Y-31621000D01*
X48007194Y-31621000D01*
X48081533Y-31613678D01*
X48176915Y-31584745D01*
X48264819Y-31537759D01*
X48341867Y-31474527D01*
X48357716Y-31455215D01*
X48989035Y-30823896D01*
X48958500Y-30977408D01*
X48958500Y-31252592D01*
X49012186Y-31522490D01*
X49117495Y-31776727D01*
X49270380Y-32005535D01*
X49464965Y-32200120D01*
X49693773Y-32353005D01*
X49948010Y-32458314D01*
X50217908Y-32512000D01*
X50493092Y-32512000D01*
X50762990Y-32458314D01*
X51017227Y-32353005D01*
X51246035Y-32200120D01*
X51440620Y-32005535D01*
X51593505Y-31776727D01*
X51658010Y-31621000D01*
X52862990Y-31621000D01*
X52927495Y-31776727D01*
X53080380Y-32005535D01*
X53274965Y-32200120D01*
X53503773Y-32353005D01*
X53758010Y-32458314D01*
X54027908Y-32512000D01*
X54303092Y-32512000D01*
X54572990Y-32458314D01*
X54827227Y-32353005D01*
X55056035Y-32200120D01*
X55250620Y-32005535D01*
X55403505Y-31776727D01*
X55508814Y-31522490D01*
X55562500Y-31252592D01*
X55562500Y-30977408D01*
X55508814Y-30707510D01*
X55403505Y-30453273D01*
X55287727Y-30279999D01*
X56424908Y-30279999D01*
X56696691Y-30551782D01*
X56632186Y-30707510D01*
X56578500Y-30977408D01*
X56578500Y-31252592D01*
X56632186Y-31522490D01*
X56737495Y-31776727D01*
X56890380Y-32005535D01*
X57084965Y-32200120D01*
X57313773Y-32353005D01*
X57568010Y-32458314D01*
X57837908Y-32512000D01*
X58113092Y-32512000D01*
X58382990Y-32458314D01*
X58637227Y-32353005D01*
X58866035Y-32200120D01*
X59060620Y-32005535D01*
X59213505Y-31776727D01*
X59318814Y-31522490D01*
X59372500Y-31252592D01*
X59372500Y-30977408D01*
X59318814Y-30707510D01*
X59213505Y-30453273D01*
X59060620Y-30224465D01*
X58866035Y-30029880D01*
X58637227Y-29876995D01*
X58382990Y-29771686D01*
X58113092Y-29718000D01*
X57837908Y-29718000D01*
X57568010Y-29771686D01*
X57412282Y-29836191D01*
X57009875Y-29433784D01*
X56994026Y-29414472D01*
X56916978Y-29351240D01*
X56829074Y-29304254D01*
X56733692Y-29275321D01*
X56659353Y-29267999D01*
X56659345Y-29267999D01*
X56634499Y-29265552D01*
X56609653Y-29267999D01*
X49348195Y-29267999D01*
X49323341Y-29265551D01*
X49298487Y-29267999D01*
X49224148Y-29275321D01*
X49128766Y-29304254D01*
X49040862Y-29351240D01*
X48963814Y-29414472D01*
X48947969Y-29433779D01*
X47825966Y-30555783D01*
X47783505Y-30453273D01*
X47630620Y-30224465D01*
X47436035Y-30029880D01*
X47207227Y-29876995D01*
X46952990Y-29771686D01*
X46683092Y-29718000D01*
X46407908Y-29718000D01*
X46138010Y-29771686D01*
X45883773Y-29876995D01*
X45654965Y-30029880D01*
X45460380Y-30224465D01*
X45307495Y-30453273D01*
X45202186Y-30707510D01*
X45148500Y-30977408D01*
X45148500Y-31252592D01*
X45202186Y-31522490D01*
X45307495Y-31776727D01*
X45460380Y-32005535D01*
X45654965Y-32200120D01*
X45883773Y-32353005D01*
X45986282Y-32395466D01*
X45382262Y-32999487D01*
X45367342Y-32977158D01*
X45202843Y-32812659D01*
X45009413Y-32683413D01*
X44797722Y-32595728D01*
X44826910Y-32541121D01*
X44850125Y-32464590D01*
X44857964Y-32385000D01*
X44856000Y-32365059D01*
X44856000Y-28451823D01*
X49388282Y-28451823D01*
X49485978Y-28717860D01*
X49778321Y-28860348D01*
X50092844Y-28943064D01*
X50417462Y-28962831D01*
X50739698Y-28918888D01*
X51047170Y-28812924D01*
X51225022Y-28717860D01*
X51322718Y-28451823D01*
X50355500Y-27484605D01*
X49388282Y-28451823D01*
X44856000Y-28451823D01*
X44856000Y-27366962D01*
X48697669Y-27366962D01*
X48741612Y-27689198D01*
X48847576Y-27996670D01*
X48942640Y-28174522D01*
X49208677Y-28272218D01*
X50175895Y-27305000D01*
X50535105Y-27305000D01*
X51502323Y-28272218D01*
X51768360Y-28174522D01*
X51910848Y-27882179D01*
X51993564Y-27567656D01*
X52013331Y-27243038D01*
X51969388Y-26920802D01*
X51863424Y-26613330D01*
X51768360Y-26435478D01*
X51502323Y-26337782D01*
X50535105Y-27305000D01*
X50175895Y-27305000D01*
X49208677Y-26337782D01*
X48942640Y-26435478D01*
X48800152Y-26727821D01*
X48717436Y-27042344D01*
X48697669Y-27366962D01*
X44856000Y-27366962D01*
X44856000Y-25806000D01*
X49647134Y-25806000D01*
X49485978Y-25892140D01*
X49485978Y-25892140D01*
G37*
X49485978Y-25892140D02*
X49388282Y-26158177D01*
X50355500Y-27125395D01*
X51322718Y-26158177D01*
X51225022Y-25892140D01*
X51048288Y-25806000D01*
X59919001Y-25806000D01*
X59919000Y-32365059D01*
X59917036Y-32385000D01*
X59924875Y-32464590D01*
X59948090Y-32541121D01*
X59951317Y-32547158D01*
X58890000Y-32547158D01*
X58815311Y-32554514D01*
X58743492Y-32576300D01*
X58677304Y-32611679D01*
X58619289Y-32659290D01*
X58571678Y-32717305D01*
X58536299Y-32783493D01*
X58514513Y-32855312D01*
X58507157Y-32930001D01*
X58507157Y-34530001D01*
X58514513Y-34604690D01*
X58536299Y-34676509D01*
X58571678Y-34742697D01*
X58619289Y-34800712D01*
X58677304Y-34848323D01*
X58743492Y-34883702D01*
X58815311Y-34905488D01*
X58890000Y-34912844D01*
X60490000Y-34912844D01*
X60564689Y-34905488D01*
X60636508Y-34883702D01*
X60702696Y-34848323D01*
X60760711Y-34800712D01*
X60808322Y-34742697D01*
X60843701Y-34676509D01*
X60865487Y-34604690D01*
X60872843Y-34530001D01*
X60872843Y-32930001D01*
X60865487Y-32855312D01*
X60845978Y-32791000D01*
X61824000Y-32791000D01*
X61824001Y-65385136D01*
X61781449Y-65819115D01*
X61661181Y-66217464D01*
X61465831Y-66584862D01*
X61202845Y-66907315D01*
X60882226Y-67172554D01*
X60516204Y-67370461D01*
X60118708Y-67493506D01*
X59685863Y-67539000D01*
X41294941Y-67539000D01*
X41275000Y-67537036D01*
X41255060Y-67539000D01*
X41255059Y-67539000D01*
X41195410Y-67544875D01*
X41118879Y-67568090D01*
X41048347Y-67605790D01*
X40986526Y-67656526D01*
X40935790Y-67718347D01*
X40898090Y-67788879D01*
X40874875Y-67865410D01*
X40867036Y-67945000D01*
X40869001Y-67964951D01*
X40869000Y-73254000D01*
X27959854Y-73254000D01*
X27525885Y-73211449D01*
X27127536Y-73091181D01*
X26760138Y-72895831D01*
X26437685Y-72632845D01*
X26172446Y-72312226D01*
X25974539Y-71946204D01*
X25851494Y-71548708D01*
X25806000Y-71115863D01*
X25806000Y-69816891D01*
X27008519Y-69816891D01*
X27105843Y-70091252D01*
X27254822Y-70341355D01*
X27449731Y-70557588D01*
X27683080Y-70731641D01*
X27945901Y-70856825D01*
X28093110Y-70901476D01*
X28323000Y-70780155D01*
X28323000Y-69587000D01*
X27129186Y-69587000D01*
X27008519Y-69816891D01*
X25806000Y-69816891D01*
X25806000Y-69103109D01*
X27008519Y-69103109D01*
X27129186Y-69333000D01*
X28323000Y-69333000D01*
X28323000Y-68139845D01*
X28577000Y-68139845D01*
X28577000Y-69333000D01*
X28597000Y-69333000D01*
X28597000Y-69587000D01*
X28577000Y-69587000D01*
X28577000Y-70780155D01*
X28806890Y-70901476D01*
X28954099Y-70856825D01*
X29216920Y-70731641D01*
X29450269Y-70557588D01*
X29645178Y-70341355D01*
X29794157Y-70091252D01*
X29848983Y-69936695D01*
X29961509Y-70147216D01*
X30115340Y-70334660D01*
X30302784Y-70488491D01*
X30516637Y-70602798D01*
X30748682Y-70673188D01*
X30929528Y-70691000D01*
X31050472Y-70691000D01*
X31231318Y-70673188D01*
X31463363Y-70602798D01*
X31677216Y-70488491D01*
X31864660Y-70334660D01*
X32018491Y-70147216D01*
X32132798Y-69933363D01*
X32203188Y-69701318D01*
X32226956Y-69460000D01*
X32293044Y-69460000D01*
X32316812Y-69701318D01*
X32387202Y-69933363D01*
X32501509Y-70147216D01*
X32655340Y-70334660D01*
X32842784Y-70488491D01*
X33056637Y-70602798D01*
X33288682Y-70673188D01*
X33469528Y-70691000D01*
X33590472Y-70691000D01*
X33771318Y-70673188D01*
X34003363Y-70602798D01*
X34217216Y-70488491D01*
X34404660Y-70334660D01*
X34558491Y-70147216D01*
X34672798Y-69933363D01*
X34743188Y-69701318D01*
X34766956Y-69460000D01*
X34743188Y-69218682D01*
X34672798Y-68986637D01*
X34558491Y-68772784D01*
X34404660Y-68585340D01*
X34217216Y-68431509D01*
X34003363Y-68317202D01*
X33771318Y-68246812D01*
X33590472Y-68229000D01*
X33469528Y-68229000D01*
X33288682Y-68246812D01*
X33056637Y-68317202D01*
X32842784Y-68431509D01*
X32655340Y-68585340D01*
X32501509Y-68772784D01*
X32387202Y-68986637D01*
X32316812Y-69218682D01*
X32293044Y-69460000D01*
X32226956Y-69460000D01*
X32203188Y-69218682D01*
X32132798Y-68986637D01*
X32018491Y-68772784D01*
X31864660Y-68585340D01*
X31677216Y-68431509D01*
X31463363Y-68317202D01*
X31231318Y-68246812D01*
X31050472Y-68229000D01*
X30929528Y-68229000D01*
X30748682Y-68246812D01*
X30516637Y-68317202D01*
X30302784Y-68431509D01*
X30115340Y-68585340D01*
X29961509Y-68772784D01*
X29848983Y-68983305D01*
X29794157Y-68828748D01*
X29645178Y-68578645D01*
X29450269Y-68362412D01*
X29216920Y-68188359D01*
X28954099Y-68063175D01*
X28806890Y-68018524D01*
X28577000Y-68139845D01*
X28323000Y-68139845D01*
X28093110Y-68018524D01*
X27945901Y-68063175D01*
X27683080Y-68188359D01*
X27449731Y-68362412D01*
X27254822Y-68578645D01*
X27105843Y-68828748D01*
X27008519Y-69103109D01*
X25806000Y-69103109D01*
X25806000Y-62296988D01*
X37840092Y-62296988D01*
X37882557Y-62594171D01*
X37982184Y-62877359D01*
X38060711Y-63024273D01*
X38313769Y-63106626D01*
X39190395Y-62230000D01*
X39549605Y-62230000D01*
X40426231Y-63106626D01*
X40679289Y-63024273D01*
X40809086Y-62753582D01*
X40883580Y-62462770D01*
X40899908Y-62163012D01*
X40857443Y-61865829D01*
X40757816Y-61582641D01*
X40679289Y-61435727D01*
X40426231Y-61353374D01*
X39549605Y-62230000D01*
X39190395Y-62230000D01*
X38313769Y-61353374D01*
X38060711Y-61435727D01*
X37930914Y-61706418D01*
X37856420Y-61997230D01*
X37840092Y-62296988D01*
X25806000Y-62296988D01*
X25806000Y-53177391D01*
X26289000Y-53177391D01*
X26289000Y-53502609D01*
X26352447Y-53821579D01*
X26476903Y-54122042D01*
X26657585Y-54392451D01*
X26887549Y-54622415D01*
X27157958Y-54803097D01*
X27458421Y-54927553D01*
X27777391Y-54991000D01*
X28102609Y-54991000D01*
X28421579Y-54927553D01*
X28722042Y-54803097D01*
X28992451Y-54622415D01*
X29222415Y-54392451D01*
X29403097Y-54122042D01*
X29527553Y-53821579D01*
X29591000Y-53502609D01*
X29591000Y-53177391D01*
X29527553Y-52858421D01*
X29403097Y-52557958D01*
X29222415Y-52287549D01*
X28992451Y-52057585D01*
X28722042Y-51876903D01*
X28421579Y-51752447D01*
X28102609Y-51689000D01*
X27777391Y-51689000D01*
X27458421Y-51752447D01*
X27157958Y-51876903D01*
X26887549Y-52057585D01*
X26657585Y-52287549D01*
X26476903Y-52557958D01*
X26352447Y-52858421D01*
X26289000Y-53177391D01*
X25806000Y-53177391D01*
X25806000Y-49776186D01*
X25917157Y-49887343D01*
X26110587Y-50016589D01*
X26325515Y-50105615D01*
X26553682Y-50151001D01*
X26786318Y-50151001D01*
X27014485Y-50105615D01*
X27229413Y-50016589D01*
X27422843Y-49887343D01*
X27587342Y-49722844D01*
X27716588Y-49529414D01*
X27805614Y-49314486D01*
X27851000Y-49086319D01*
X27851000Y-48853683D01*
X28029000Y-48853683D01*
X28029000Y-49086319D01*
X28074386Y-49314486D01*
X28163412Y-49529414D01*
X28292658Y-49722844D01*
X28457157Y-49887343D01*
X28650587Y-50016589D01*
X28865515Y-50105615D01*
X29093682Y-50151001D01*
X29326318Y-50151001D01*
X29554485Y-50105615D01*
X29769413Y-50016589D01*
X29962843Y-49887343D01*
X30127342Y-49722844D01*
X30256588Y-49529414D01*
X30345614Y-49314486D01*
X30391000Y-49086319D01*
X30391000Y-48853683D01*
X30569000Y-48853683D01*
X30569000Y-49086319D01*
X30614386Y-49314486D01*
X30703412Y-49529414D01*
X30832658Y-49722844D01*
X30997157Y-49887343D01*
X31190587Y-50016589D01*
X31405515Y-50105615D01*
X31633682Y-50151001D01*
X31866318Y-50151001D01*
X32094485Y-50105615D01*
X32309413Y-50016589D01*
X32502843Y-49887343D01*
X32667342Y-49722844D01*
X32796588Y-49529414D01*
X32885614Y-49314486D01*
X32931000Y-49086319D01*
X32931000Y-48853683D01*
X32885614Y-48625516D01*
X32796588Y-48410588D01*
X32667342Y-48217158D01*
X32502843Y-48052659D01*
X32309413Y-47923413D01*
X32094485Y-47834387D01*
X31866318Y-47789001D01*
X31633682Y-47789001D01*
X31405515Y-47834387D01*
X31190587Y-47923413D01*
X30997157Y-48052659D01*
X30832658Y-48217158D01*
X30703412Y-48410588D01*
X30614386Y-48625516D01*
X30569000Y-48853683D01*
X30391000Y-48853683D01*
X30345614Y-48625516D01*
X30256588Y-48410588D01*
X30127342Y-48217158D01*
X29962843Y-48052659D01*
X29769413Y-47923413D01*
X29554485Y-47834387D01*
X29326318Y-47789001D01*
X29093682Y-47789001D01*
X28865515Y-47834387D01*
X28650587Y-47923413D01*
X28457157Y-48052659D01*
X28292658Y-48217158D01*
X28163412Y-48410588D01*
X28074386Y-48625516D01*
X28029000Y-48853683D01*
X27851000Y-48853683D01*
X27805614Y-48625516D01*
X27716588Y-48410588D01*
X27587342Y-48217158D01*
X27422843Y-48052659D01*
X27229413Y-47923413D01*
X27014485Y-47834387D01*
X26786318Y-47789001D01*
X26553682Y-47789001D01*
X26325515Y-47834387D01*
X26110587Y-47923413D01*
X25917157Y-48052659D01*
X25806000Y-48163816D01*
X25806000Y-47236186D01*
X25917157Y-47347343D01*
X26110587Y-47476589D01*
X26325515Y-47565615D01*
X26553682Y-47611001D01*
X26786318Y-47611001D01*
X27014485Y-47565615D01*
X27229413Y-47476589D01*
X27422843Y-47347343D01*
X27587342Y-47182844D01*
X27716588Y-46989414D01*
X27805614Y-46774486D01*
X27851000Y-46546319D01*
X27851000Y-46313683D01*
X27805614Y-46085516D01*
X27716588Y-45870588D01*
X27587342Y-45677158D01*
X27422843Y-45512659D01*
X27229413Y-45383413D01*
X27014485Y-45294387D01*
X26786318Y-45249001D01*
X26553682Y-45249001D01*
X26325515Y-45294387D01*
X26110587Y-45383413D01*
X25917157Y-45512659D01*
X25806000Y-45623816D01*
X25806000Y-44696186D01*
X25917157Y-44807343D01*
X26110587Y-44936589D01*
X26325515Y-45025615D01*
X26553682Y-45071001D01*
X26786318Y-45071001D01*
X27014485Y-45025615D01*
X27229413Y-44936589D01*
X27422843Y-44807343D01*
X27587342Y-44642844D01*
X27716588Y-44449414D01*
X27805614Y-44234486D01*
X27851000Y-44006319D01*
X27851000Y-43773683D01*
X27805614Y-43545516D01*
X27716588Y-43330588D01*
X27587342Y-43137158D01*
X27422843Y-42972659D01*
X27229413Y-42843413D01*
X27014485Y-42754387D01*
X26786318Y-42709001D01*
X26553682Y-42709001D01*
X26325515Y-42754387D01*
X26110587Y-42843413D01*
X25917157Y-42972659D01*
X25806000Y-43083816D01*
X25806000Y-42156186D01*
X25917157Y-42267343D01*
X26110587Y-42396589D01*
X26325515Y-42485615D01*
X26553682Y-42531001D01*
X26786318Y-42531001D01*
X27014485Y-42485615D01*
X27229413Y-42396589D01*
X27422843Y-42267343D01*
X27587342Y-42102844D01*
X27716588Y-41909414D01*
X27805614Y-41694486D01*
X27851000Y-41466319D01*
X27851000Y-41233683D01*
X27805614Y-41005516D01*
X27716588Y-40790588D01*
X27587342Y-40597158D01*
X27422843Y-40432659D01*
X27229413Y-40303413D01*
X27014485Y-40214387D01*
X26786318Y-40169001D01*
X26553682Y-40169001D01*
X26325515Y-40214387D01*
X26110587Y-40303413D01*
X25917157Y-40432659D01*
X25806000Y-40543816D01*
X25806000Y-39616186D01*
X25917157Y-39727343D01*
X26110587Y-39856589D01*
X26325515Y-39945615D01*
X26553682Y-39991001D01*
X26786318Y-39991001D01*
X27014485Y-39945615D01*
X27229413Y-39856589D01*
X27289001Y-39816774D01*
X27289001Y-39835155D01*
X27286554Y-39860001D01*
X27289001Y-39884847D01*
X27289001Y-39884854D01*
X27296323Y-39959193D01*
X27325256Y-40054575D01*
X27372242Y-40142480D01*
X27435474Y-40219528D01*
X27454786Y-40235377D01*
X30582228Y-43362820D01*
X30614386Y-43524485D01*
X30703412Y-43739413D01*
X30832658Y-43932843D01*
X30997157Y-44097342D01*
X31190587Y-44226588D01*
X31405515Y-44315614D01*
X31633682Y-44361000D01*
X31866318Y-44361000D01*
X32094485Y-44315614D01*
X32309413Y-44226588D01*
X32502843Y-44097342D01*
X32667342Y-43932843D01*
X32796588Y-43739413D01*
X32885614Y-43524485D01*
X32931000Y-43296318D01*
X32931000Y-43063682D01*
X32885614Y-42835515D01*
X32796588Y-42620587D01*
X32667342Y-42427157D01*
X32502843Y-42262658D01*
X32309413Y-42133412D01*
X32094485Y-42044386D01*
X31866318Y-41999000D01*
X31633682Y-41999000D01*
X31405515Y-42044386D01*
X31190587Y-42133412D01*
X30997157Y-42262658D01*
X30955203Y-42304612D01*
X28301001Y-39650410D01*
X28301001Y-34491187D01*
X28457157Y-34647343D01*
X28650587Y-34776589D01*
X28865515Y-34865615D01*
X29093682Y-34911001D01*
X29326318Y-34911001D01*
X29554485Y-34865615D01*
X29769413Y-34776589D01*
X29829001Y-34736773D01*
X29829001Y-36798785D01*
X29826554Y-36823631D01*
X29829001Y-36848477D01*
X29829001Y-36848484D01*
X29836323Y-36922823D01*
X29865256Y-37018205D01*
X29912242Y-37106110D01*
X29975474Y-37183158D01*
X29994786Y-37199007D01*
X31147788Y-38352010D01*
X30997157Y-38452658D01*
X30832658Y-38617157D01*
X30703412Y-38810587D01*
X30614386Y-39025515D01*
X30569000Y-39253682D01*
X30569000Y-39486318D01*
X30614386Y-39714485D01*
X30703412Y-39929413D01*
X30832658Y-40122843D01*
X30997157Y-40287342D01*
X31190587Y-40416588D01*
X31405515Y-40505614D01*
X31633682Y-40551000D01*
X31866318Y-40551000D01*
X32094485Y-40505614D01*
X32309413Y-40416588D01*
X32502843Y-40287342D01*
X32667342Y-40122843D01*
X32796588Y-39929413D01*
X32885614Y-39714485D01*
X32931000Y-39486318D01*
X32931000Y-39253682D01*
X32885614Y-39025515D01*
X32796588Y-38810587D01*
X32667342Y-38617157D01*
X32502843Y-38452658D01*
X32309413Y-38323412D01*
X32256000Y-38301288D01*
X32256000Y-38263484D01*
X32258448Y-38238630D01*
X32248678Y-38139437D01*
X32219745Y-38044055D01*
X32184486Y-37978091D01*
X32172759Y-37956151D01*
X32109527Y-37879103D01*
X32090220Y-37863258D01*
X30841001Y-36614040D01*
X30841001Y-34491187D01*
X30997157Y-34647343D01*
X31190587Y-34776589D01*
X31405515Y-34865615D01*
X31633682Y-34911001D01*
X31866318Y-34911001D01*
X32094485Y-34865615D01*
X32309413Y-34776589D01*
X32502843Y-34647343D01*
X32667342Y-34482844D01*
X32796588Y-34289414D01*
X32885614Y-34074486D01*
X32931000Y-33846319D01*
X32931000Y-33613683D01*
X32885614Y-33385516D01*
X32863490Y-33332103D01*
X34584000Y-31611593D01*
X34584000Y-32584345D01*
X34406318Y-32549001D01*
X34173682Y-32549001D01*
X33945515Y-32594387D01*
X33730587Y-32683413D01*
X33537157Y-32812659D01*
X33372658Y-32977158D01*
X33243412Y-33170588D01*
X33154386Y-33385516D01*
X33109000Y-33613683D01*
X33109000Y-33846319D01*
X33154386Y-34074486D01*
X33243412Y-34289414D01*
X33372658Y-34482844D01*
X33537157Y-34647343D01*
X33730587Y-34776589D01*
X33945515Y-34865615D01*
X34173682Y-34911001D01*
X34406318Y-34911001D01*
X34634485Y-34865615D01*
X34849413Y-34776589D01*
X35042843Y-34647343D01*
X35207342Y-34482844D01*
X35336588Y-34289414D01*
X35425614Y-34074486D01*
X35471000Y-33846319D01*
X35471000Y-33613683D01*
X35425614Y-33385516D01*
X35403490Y-33332103D01*
X35430219Y-33305374D01*
X35449526Y-33289529D01*
X35512758Y-33212481D01*
X35559744Y-33124577D01*
X35588677Y-33029195D01*
X35595999Y-32954856D01*
X35595999Y-32954849D01*
X35598446Y-32930003D01*
X35595999Y-32905157D01*
X35595999Y-32791000D01*
X36109572Y-32791000D01*
X36077157Y-32812659D01*
X35912658Y-32977158D01*
X35783412Y-33170588D01*
X35694386Y-33385516D01*
X35649000Y-33613683D01*
X35649000Y-33846319D01*
X35694386Y-34074486D01*
X35783412Y-34289414D01*
X35912658Y-34482844D01*
X36077157Y-34647343D01*
X36270587Y-34776589D01*
X36485515Y-34865615D01*
X36713682Y-34911001D01*
X36946318Y-34911001D01*
X37174485Y-34865615D01*
X37389413Y-34776589D01*
X37582843Y-34647343D01*
X37747342Y-34482844D01*
X37876588Y-34289414D01*
X37965614Y-34074486D01*
X38011000Y-33846319D01*
X38011000Y-33613683D01*
X37965614Y-33385516D01*
X37876588Y-33170588D01*
X37747342Y-32977158D01*
X37582843Y-32812659D01*
X37550428Y-32791000D01*
X38649572Y-32791000D01*
X38617157Y-32812659D01*
X38452658Y-32977158D01*
X38323412Y-33170588D01*
X38234386Y-33385516D01*
X38189000Y-33613683D01*
X38189000Y-33846319D01*
X38234386Y-34074486D01*
X38323412Y-34289414D01*
X38452658Y-34482844D01*
X38617157Y-34647343D01*
X38810587Y-34776589D01*
X39025515Y-34865615D01*
X39253682Y-34911001D01*
X39486318Y-34911001D01*
X39714485Y-34865615D01*
X39929413Y-34776589D01*
X40122843Y-34647343D01*
X40287342Y-34482844D01*
X40416588Y-34289414D01*
X40505614Y-34074486D01*
X40551000Y-33846319D01*
X40551000Y-33613683D01*
X40505614Y-33385516D01*
X40416588Y-33170588D01*
X40287342Y-32977158D01*
X40122843Y-32812659D01*
X40090428Y-32791000D01*
X41189572Y-32791000D01*
X41157157Y-32812659D01*
X40992658Y-32977158D01*
X40863412Y-33170588D01*
X40774386Y-33385516D01*
X40729000Y-33613683D01*
X40729000Y-33846319D01*
X40774386Y-34074486D01*
X40863412Y-34289414D01*
X40992658Y-34482844D01*
X41157157Y-34647343D01*
X41350587Y-34776589D01*
X41514798Y-34844608D01*
X33949785Y-42409622D01*
X33930473Y-42425471D01*
X33867241Y-42502519D01*
X33820255Y-42590424D01*
X33791322Y-42685806D01*
X33784000Y-42760145D01*
X33784000Y-42760152D01*
X33781553Y-42784998D01*
X33784000Y-42809844D01*
X33784001Y-47813768D01*
X33784000Y-47813778D01*
X33784000Y-47901289D01*
X33730587Y-47923413D01*
X33537157Y-48052659D01*
X33372658Y-48217158D01*
X33243412Y-48410588D01*
X33154386Y-48625516D01*
X33109000Y-48853683D01*
X33109000Y-49086319D01*
X33154386Y-49314486D01*
X33243412Y-49529414D01*
X33372658Y-49722844D01*
X33537157Y-49887343D01*
X33730587Y-50016589D01*
X33945515Y-50105615D01*
X34173682Y-50151001D01*
X34406318Y-50151001D01*
X34634485Y-50105615D01*
X34849413Y-50016589D01*
X35042843Y-49887343D01*
X35207342Y-49722844D01*
X35336588Y-49529414D01*
X35425614Y-49314486D01*
X35471000Y-49086319D01*
X35471000Y-48853683D01*
X35649000Y-48853683D01*
X35649000Y-49086319D01*
X35694386Y-49314486D01*
X35783412Y-49529414D01*
X35912658Y-49722844D01*
X36077157Y-49887343D01*
X36270587Y-50016589D01*
X36485515Y-50105615D01*
X36713682Y-50151001D01*
X36946318Y-50151001D01*
X37174485Y-50105615D01*
X37389413Y-50016589D01*
X37582843Y-49887343D01*
X37747342Y-49722844D01*
X37876588Y-49529414D01*
X37965614Y-49314486D01*
X38011000Y-49086319D01*
X38011000Y-48853683D01*
X37965614Y-48625516D01*
X37876588Y-48410588D01*
X37747342Y-48217158D01*
X37582843Y-48052659D01*
X37389413Y-47923413D01*
X37174485Y-47834387D01*
X36946318Y-47789001D01*
X36713682Y-47789001D01*
X36485515Y-47834387D01*
X36270587Y-47923413D01*
X36077157Y-48052659D01*
X35912658Y-48217158D01*
X35783412Y-48410588D01*
X35694386Y-48625516D01*
X35649000Y-48853683D01*
X35471000Y-48853683D01*
X35425614Y-48625516D01*
X35336588Y-48410588D01*
X35207342Y-48217158D01*
X35042843Y-48052659D01*
X34849413Y-47923413D01*
X34796000Y-47901289D01*
X34796000Y-42994589D01*
X34959628Y-42830961D01*
X40518096Y-42830961D01*
X40640085Y-43053000D01*
X41783000Y-43053000D01*
X41783000Y-41909376D01*
X41560960Y-41788091D01*
X41296119Y-41882930D01*
X41054869Y-42027615D01*
X40846481Y-42216586D01*
X40678963Y-42442580D01*
X40558754Y-42696913D01*
X40518096Y-42830961D01*
X34959628Y-42830961D01*
X38071550Y-39719039D01*
X40518096Y-39719039D01*
X40558754Y-39853087D01*
X40678963Y-40107420D01*
X40846481Y-40333414D01*
X41054869Y-40522385D01*
X41296119Y-40667070D01*
X41560960Y-40761909D01*
X41783000Y-40640624D01*
X41783000Y-39497000D01*
X40640085Y-39497000D01*
X40518096Y-39719039D01*
X38071550Y-39719039D01*
X38769628Y-39020961D01*
X40518096Y-39020961D01*
X40640085Y-39243000D01*
X41783000Y-39243000D01*
X41783000Y-38099376D01*
X42037000Y-38099376D01*
X42037000Y-39243000D01*
X42057000Y-39243000D01*
X42057000Y-39497000D01*
X42037000Y-39497000D01*
X42037000Y-40640624D01*
X42259040Y-40761909D01*
X42523881Y-40667070D01*
X42765131Y-40522385D01*
X42973519Y-40333414D01*
X43141037Y-40107420D01*
X43261246Y-39853087D01*
X43301904Y-39719039D01*
X43179916Y-39497002D01*
X43271125Y-39497002D01*
X43314386Y-39714485D01*
X43403412Y-39929413D01*
X43532658Y-40122843D01*
X43697157Y-40287342D01*
X43890587Y-40416588D01*
X44105515Y-40505614D01*
X44333682Y-40551000D01*
X44566318Y-40551000D01*
X44794485Y-40505614D01*
X45009413Y-40416588D01*
X45202843Y-40287342D01*
X45367342Y-40122843D01*
X45496588Y-39929413D01*
X45585614Y-39714485D01*
X45631000Y-39486318D01*
X45631000Y-39253682D01*
X45585614Y-39025515D01*
X45496588Y-38810587D01*
X45367342Y-38617157D01*
X45202843Y-38452658D01*
X45009413Y-38323412D01*
X44794485Y-38234386D01*
X44566318Y-38189000D01*
X44333682Y-38189000D01*
X44105515Y-38234386D01*
X43890587Y-38323412D01*
X43697157Y-38452658D01*
X43532658Y-38617157D01*
X43403412Y-38810587D01*
X43314386Y-39025515D01*
X43271125Y-39242998D01*
X43179916Y-39242998D01*
X43301904Y-39020961D01*
X43261246Y-38886913D01*
X43141037Y-38632580D01*
X42973519Y-38406586D01*
X42765131Y-38217615D01*
X42523881Y-38072930D01*
X42259040Y-37978091D01*
X42037000Y-38099376D01*
X41783000Y-38099376D01*
X41560960Y-37978091D01*
X41296119Y-38072930D01*
X41054869Y-38217615D01*
X40846481Y-38406586D01*
X40678963Y-38632580D01*
X40558754Y-38886913D01*
X40518096Y-39020961D01*
X38769628Y-39020961D01*
X42214591Y-35575999D01*
X44750158Y-35575999D01*
X44775004Y-35578446D01*
X44799850Y-35575999D01*
X44799858Y-35575999D01*
X44874197Y-35568677D01*
X44969579Y-35539744D01*
X45057483Y-35492758D01*
X45134531Y-35429526D01*
X45150380Y-35410214D01*
X45915221Y-34645374D01*
X45934528Y-34629529D01*
X45997760Y-34552481D01*
X46044746Y-34464577D01*
X46049650Y-34448410D01*
X46072658Y-34482844D01*
X46237157Y-34647343D01*
X46430587Y-34776589D01*
X46645515Y-34865615D01*
X46873682Y-34911001D01*
X47106318Y-34911001D01*
X47334485Y-34865615D01*
X47387898Y-34843491D01*
X48233407Y-35689000D01*
X42520146Y-35689000D01*
X42445807Y-35696322D01*
X42350425Y-35725255D01*
X42262521Y-35772241D01*
X42185473Y-35835473D01*
X42122241Y-35912521D01*
X42075255Y-36000425D01*
X42046322Y-36095807D01*
X42036552Y-36195000D01*
X42046322Y-36294193D01*
X42075255Y-36389575D01*
X42122241Y-36477479D01*
X42185473Y-36554527D01*
X42262521Y-36617759D01*
X42350425Y-36664745D01*
X42445807Y-36693678D01*
X42520146Y-36701000D01*
X52622409Y-36701000D01*
X54185912Y-38264504D01*
X54155864Y-38273619D01*
X53950697Y-38383283D01*
X53770866Y-38530866D01*
X53623283Y-38710697D01*
X53513619Y-38915864D01*
X53446088Y-39138484D01*
X53423286Y-39370000D01*
X53446088Y-39601516D01*
X53513619Y-39824136D01*
X53623283Y-40029303D01*
X53770866Y-40209134D01*
X53950697Y-40356717D01*
X54155864Y-40466381D01*
X54378484Y-40533912D01*
X54551984Y-40551000D01*
X54668016Y-40551000D01*
X54841516Y-40533912D01*
X54903999Y-40514958D01*
X54903999Y-42035042D01*
X54841516Y-42016088D01*
X54668016Y-41999000D01*
X54551984Y-41999000D01*
X54378484Y-42016088D01*
X54155864Y-42083619D01*
X53950697Y-42193283D01*
X53770866Y-42340866D01*
X53623283Y-42520697D01*
X53541341Y-42674000D01*
X53503484Y-42674000D01*
X53478630Y-42671552D01*
X53453776Y-42674000D01*
X53379437Y-42681322D01*
X53284055Y-42710255D01*
X53196151Y-42757241D01*
X53119103Y-42820473D01*
X53103258Y-42839780D01*
X51144039Y-44799000D01*
X45183589Y-44799000D01*
X46550590Y-43432000D01*
X46645499Y-43432000D01*
X46746141Y-43532642D01*
X46874058Y-43618113D01*
X47016191Y-43676987D01*
X47167078Y-43707000D01*
X47320922Y-43707000D01*
X47471809Y-43676987D01*
X47613942Y-43618113D01*
X47741859Y-43532642D01*
X47850642Y-43423859D01*
X47936113Y-43295942D01*
X47994987Y-43153809D01*
X48025000Y-43002922D01*
X48025000Y-42849078D01*
X47994987Y-42698191D01*
X47936113Y-42556058D01*
X47850642Y-42428141D01*
X47741859Y-42319358D01*
X47613942Y-42233887D01*
X47471809Y-42175013D01*
X47320922Y-42145000D01*
X47167078Y-42145000D01*
X47016191Y-42175013D01*
X46874058Y-42233887D01*
X46746141Y-42319358D01*
X46645499Y-42420000D01*
X46365852Y-42420000D01*
X46340998Y-42417552D01*
X46316144Y-42420000D01*
X46241805Y-42427322D01*
X46146423Y-42456255D01*
X46058519Y-42503241D01*
X45981471Y-42566473D01*
X45965626Y-42585780D01*
X45607229Y-42944178D01*
X45585614Y-42835515D01*
X45496588Y-42620587D01*
X45367342Y-42427157D01*
X45202843Y-42262658D01*
X45009413Y-42133412D01*
X44794485Y-42044386D01*
X44566318Y-41999000D01*
X44333682Y-41999000D01*
X44105515Y-42044386D01*
X43890587Y-42133412D01*
X43697157Y-42262658D01*
X43532658Y-42427157D01*
X43403412Y-42620587D01*
X43314386Y-42835515D01*
X43271125Y-43052998D01*
X43179916Y-43052998D01*
X43301904Y-42830961D01*
X43261246Y-42696913D01*
X43141037Y-42442580D01*
X42973519Y-42216586D01*
X42765131Y-42027615D01*
X42523881Y-41882930D01*
X42259040Y-41788091D01*
X42037000Y-41909376D01*
X42037000Y-43053000D01*
X42057000Y-43053000D01*
X42057000Y-43307000D01*
X42037000Y-43307000D01*
X42037000Y-43327000D01*
X41783000Y-43327000D01*
X41783000Y-43307000D01*
X40640085Y-43307000D01*
X40518096Y-43529039D01*
X40558754Y-43663087D01*
X40678963Y-43917420D01*
X40846481Y-44143414D01*
X41054869Y-44332385D01*
X41296119Y-44477070D01*
X41560960Y-44571909D01*
X41604019Y-44548389D01*
X40705409Y-45447000D01*
X40563078Y-45447000D01*
X40412191Y-45477013D01*
X40270058Y-45535887D01*
X40142141Y-45621358D01*
X40033358Y-45730141D01*
X39947887Y-45858058D01*
X39889013Y-46000191D01*
X39859000Y-46151078D01*
X39859000Y-46304922D01*
X39889013Y-46455809D01*
X39947887Y-46597942D01*
X40033358Y-46725859D01*
X40142141Y-46834642D01*
X40270058Y-46920113D01*
X40412191Y-46978987D01*
X40563078Y-47009000D01*
X40615410Y-47009000D01*
X39829783Y-47794627D01*
X39829777Y-47794632D01*
X39767898Y-47856511D01*
X39714485Y-47834387D01*
X39486318Y-47789001D01*
X39253682Y-47789001D01*
X39025515Y-47834387D01*
X38810587Y-47923413D01*
X38617157Y-48052659D01*
X38452658Y-48217158D01*
X38323412Y-48410588D01*
X38234386Y-48625516D01*
X38189000Y-48853683D01*
X38189000Y-49086319D01*
X38234386Y-49314486D01*
X38323412Y-49529414D01*
X38452658Y-49722844D01*
X38617157Y-49887343D01*
X38810587Y-50016589D01*
X38864001Y-50038714D01*
X38864001Y-50063685D01*
X37815784Y-51111903D01*
X37796472Y-51127752D01*
X37733240Y-51204800D01*
X37686254Y-51292705D01*
X37657321Y-51388087D01*
X37649999Y-51462426D01*
X37649999Y-51462433D01*
X37647552Y-51487279D01*
X37649999Y-51512125D01*
X37650000Y-55911143D01*
X37647552Y-55935999D01*
X37657321Y-56035191D01*
X37686254Y-56130573D01*
X37703869Y-56163527D01*
X37733241Y-56218478D01*
X37796473Y-56295526D01*
X37815780Y-56311371D01*
X38188392Y-56683983D01*
X38148805Y-56779555D01*
X38100000Y-57024916D01*
X38100000Y-57275084D01*
X38148805Y-57520445D01*
X38244541Y-57751571D01*
X38383527Y-57959578D01*
X38560422Y-58136473D01*
X38768429Y-58275459D01*
X38999555Y-58371195D01*
X39244916Y-58420000D01*
X38999555Y-58468805D01*
X38768429Y-58564541D01*
X38560422Y-58703527D01*
X38383527Y-58880422D01*
X38244541Y-59088429D01*
X38148805Y-59319555D01*
X38100000Y-59564916D01*
X38100000Y-59815084D01*
X38148805Y-60060445D01*
X38244541Y-60291571D01*
X38383527Y-60499578D01*
X38560422Y-60676473D01*
X38768429Y-60815459D01*
X38782288Y-60821200D01*
X38722641Y-60842184D01*
X38575727Y-60920711D01*
X38493374Y-61173769D01*
X39370000Y-62050395D01*
X40246626Y-61173769D01*
X40164273Y-60920711D01*
X39957192Y-60821415D01*
X39971571Y-60815459D01*
X40179578Y-60676473D01*
X40356473Y-60499578D01*
X40495459Y-60291571D01*
X40591195Y-60060445D01*
X40640000Y-59815084D01*
X40640000Y-59564916D01*
X40591195Y-59319555D01*
X40551608Y-59223984D01*
X42250222Y-57525370D01*
X42269527Y-57509527D01*
X42332759Y-57432479D01*
X42379745Y-57344575D01*
X42408678Y-57249193D01*
X42416000Y-57174854D01*
X42416000Y-57174847D01*
X42418447Y-57150001D01*
X42416000Y-57125155D01*
X42416000Y-50038713D01*
X42469413Y-50016589D01*
X42662843Y-49887343D01*
X42827342Y-49722844D01*
X42956588Y-49529414D01*
X43045614Y-49314486D01*
X43091000Y-49086319D01*
X43091000Y-48853683D01*
X43269000Y-48853683D01*
X43269000Y-49086319D01*
X43314386Y-49314486D01*
X43403412Y-49529414D01*
X43532658Y-49722844D01*
X43697157Y-49887343D01*
X43890587Y-50016589D01*
X44105515Y-50105615D01*
X44333682Y-50151001D01*
X44566318Y-50151001D01*
X44794485Y-50105615D01*
X45009413Y-50016589D01*
X45202843Y-49887343D01*
X45367342Y-49722844D01*
X45496588Y-49529414D01*
X45585614Y-49314486D01*
X45631000Y-49086319D01*
X45631000Y-48853683D01*
X45809000Y-48853683D01*
X45809000Y-49086319D01*
X45854386Y-49314486D01*
X45943412Y-49529414D01*
X46072658Y-49722844D01*
X46237157Y-49887343D01*
X46430587Y-50016589D01*
X46645515Y-50105615D01*
X46873682Y-50151001D01*
X47106318Y-50151001D01*
X47334485Y-50105615D01*
X47549413Y-50016589D01*
X47742843Y-49887343D01*
X47907342Y-49722844D01*
X48036588Y-49529414D01*
X48125614Y-49314486D01*
X48171000Y-49086319D01*
X48171000Y-48853683D01*
X48125614Y-48625516D01*
X48036588Y-48410588D01*
X47907342Y-48217158D01*
X47742843Y-48052659D01*
X47549413Y-47923413D01*
X47334485Y-47834387D01*
X47106318Y-47789001D01*
X46873682Y-47789001D01*
X46645515Y-47834387D01*
X46430587Y-47923413D01*
X46237157Y-48052659D01*
X46072658Y-48217158D01*
X45943412Y-48410588D01*
X45854386Y-48625516D01*
X45809000Y-48853683D01*
X45631000Y-48853683D01*
X45585614Y-48625516D01*
X45496588Y-48410588D01*
X45367342Y-48217158D01*
X45202843Y-48052659D01*
X45009413Y-47923413D01*
X44794485Y-47834387D01*
X44566318Y-47789001D01*
X44333682Y-47789001D01*
X44105515Y-47834387D01*
X43890587Y-47923413D01*
X43697157Y-48052659D01*
X43532658Y-48217158D01*
X43403412Y-48410588D01*
X43314386Y-48625516D01*
X43269000Y-48853683D01*
X43091000Y-48853683D01*
X43045614Y-48625516D01*
X42956588Y-48410588D01*
X42827342Y-48217158D01*
X42662843Y-48052659D01*
X42469413Y-47923413D01*
X42254485Y-47834387D01*
X42147222Y-47813051D01*
X42104574Y-47790255D01*
X42009192Y-47761322D01*
X41910000Y-47751552D01*
X41810807Y-47761322D01*
X41715425Y-47790255D01*
X41672777Y-47813051D01*
X41565515Y-47834387D01*
X41350587Y-47923413D01*
X41157157Y-48052659D01*
X40992658Y-48217158D01*
X40863412Y-48410588D01*
X40774386Y-48625516D01*
X40729000Y-48853683D01*
X40729000Y-49086319D01*
X40774386Y-49314486D01*
X40863412Y-49529414D01*
X40992658Y-49722844D01*
X41157157Y-49887343D01*
X41350587Y-50016589D01*
X41404000Y-50038713D01*
X41404001Y-56940407D01*
X39836016Y-58508392D01*
X39740445Y-58468805D01*
X39495084Y-58420000D01*
X39740445Y-58371195D01*
X39971571Y-58275459D01*
X40179578Y-58136473D01*
X40356473Y-57959578D01*
X40495459Y-57751571D01*
X40591195Y-57520445D01*
X40640000Y-57275084D01*
X40640000Y-57024916D01*
X40591195Y-56779555D01*
X40495459Y-56548429D01*
X40356473Y-56340422D01*
X40179578Y-56163527D01*
X39971571Y-56024541D01*
X39740445Y-55928805D01*
X39495084Y-55880000D01*
X39740445Y-55831195D01*
X39971571Y-55735459D01*
X40179578Y-55596473D01*
X40356473Y-55419578D01*
X40495459Y-55211571D01*
X40591195Y-54980445D01*
X40640000Y-54735084D01*
X40640000Y-54484916D01*
X40591195Y-54239555D01*
X40495459Y-54008429D01*
X40356473Y-53800422D01*
X40179578Y-53623527D01*
X39971571Y-53484541D01*
X39740445Y-53388805D01*
X39495084Y-53340000D01*
X39740445Y-53291195D01*
X39971571Y-53195459D01*
X40179578Y-53056473D01*
X40356473Y-52879578D01*
X40495459Y-52671571D01*
X40591195Y-52440445D01*
X40640000Y-52195084D01*
X40640000Y-51944916D01*
X40591195Y-51699555D01*
X40495459Y-51468429D01*
X40356473Y-51260422D01*
X40179578Y-51083527D01*
X39971571Y-50944541D01*
X39740445Y-50848805D01*
X39548287Y-50810583D01*
X39710220Y-50648650D01*
X39729527Y-50632805D01*
X39792759Y-50555757D01*
X39839745Y-50467853D01*
X39868678Y-50372471D01*
X39876000Y-50298132D01*
X39878448Y-50273278D01*
X39876000Y-50248424D01*
X39876000Y-50038713D01*
X39929413Y-50016589D01*
X40122843Y-49887343D01*
X40287342Y-49722844D01*
X40416588Y-49529414D01*
X40505614Y-49314486D01*
X40551000Y-49086319D01*
X40551000Y-48853683D01*
X40505614Y-48625516D01*
X40483490Y-48572103D01*
X40545369Y-48510224D01*
X40545374Y-48510218D01*
X43244593Y-45811000D01*
X45983227Y-45811000D01*
X45943412Y-45870588D01*
X45854386Y-46085516D01*
X45809000Y-46313683D01*
X45809000Y-46546319D01*
X45854386Y-46774486D01*
X45943412Y-46989414D01*
X46072658Y-47182844D01*
X46237157Y-47347343D01*
X46430587Y-47476589D01*
X46645515Y-47565615D01*
X46873682Y-47611001D01*
X47106318Y-47611001D01*
X47334485Y-47565615D01*
X47549413Y-47476589D01*
X47742843Y-47347343D01*
X47907342Y-47182844D01*
X48036588Y-46989414D01*
X48125614Y-46774486D01*
X48171000Y-46546319D01*
X48171000Y-46313683D01*
X48125614Y-46085516D01*
X48036588Y-45870588D01*
X47996773Y-45811000D01*
X48523227Y-45811000D01*
X48483412Y-45870588D01*
X48394386Y-46085516D01*
X48349000Y-46313683D01*
X48349000Y-46546319D01*
X48394386Y-46774486D01*
X48483412Y-46989414D01*
X48612658Y-47182844D01*
X48777157Y-47347343D01*
X48970587Y-47476589D01*
X49185515Y-47565615D01*
X49413682Y-47611001D01*
X49646318Y-47611001D01*
X49874485Y-47565615D01*
X50089413Y-47476589D01*
X50282843Y-47347343D01*
X50447342Y-47182844D01*
X50576588Y-46989414D01*
X50665614Y-46774486D01*
X50711000Y-46546319D01*
X50711000Y-46313683D01*
X50665614Y-46085516D01*
X50576588Y-45870588D01*
X50536773Y-45811000D01*
X51063227Y-45811000D01*
X51023412Y-45870588D01*
X50934386Y-46085516D01*
X50889000Y-46313683D01*
X50889000Y-46546319D01*
X50934386Y-46774486D01*
X51023412Y-46989414D01*
X51152658Y-47182844D01*
X51317157Y-47347343D01*
X51510587Y-47476589D01*
X51725515Y-47565615D01*
X51953682Y-47611001D01*
X52186318Y-47611001D01*
X52414485Y-47565615D01*
X52629413Y-47476589D01*
X52822843Y-47347343D01*
X52987342Y-47182844D01*
X53116588Y-46989414D01*
X53205614Y-46774486D01*
X53251000Y-46546319D01*
X53251000Y-46313683D01*
X53205614Y-46085516D01*
X53116588Y-45870588D01*
X52987342Y-45677158D01*
X52822843Y-45512659D01*
X52629413Y-45383413D01*
X52414485Y-45294387D01*
X52186318Y-45249001D01*
X52125220Y-45249001D01*
X53592503Y-43781718D01*
X53623283Y-43839303D01*
X53770866Y-44019134D01*
X53950697Y-44166717D01*
X54155864Y-44276381D01*
X54378484Y-44343912D01*
X54551984Y-44361000D01*
X54668016Y-44361000D01*
X54841516Y-44343912D01*
X54904000Y-44324958D01*
X54904000Y-47824345D01*
X54726318Y-47789001D01*
X54493682Y-47789001D01*
X54265515Y-47834387D01*
X54050587Y-47923413D01*
X53857157Y-48052659D01*
X53692658Y-48217158D01*
X53563412Y-48410588D01*
X53474386Y-48625516D01*
X53429000Y-48853683D01*
X53429000Y-49086319D01*
X53474386Y-49314486D01*
X53563412Y-49529414D01*
X53692658Y-49722844D01*
X53857157Y-49887343D01*
X54050587Y-50016589D01*
X54265515Y-50105615D01*
X54397535Y-50131876D01*
X52909413Y-51619999D01*
X52038846Y-51619999D01*
X52014000Y-51617552D01*
X51989154Y-51619999D01*
X51989147Y-51619999D01*
X51924695Y-51626347D01*
X51914807Y-51627321D01*
X51819426Y-51656254D01*
X51731522Y-51703240D01*
X51654474Y-51766472D01*
X51638625Y-51785784D01*
X51348783Y-52075626D01*
X51348777Y-52075631D01*
X51266016Y-52158392D01*
X51170445Y-52118805D01*
X50925084Y-52070000D01*
X50674916Y-52070000D01*
X50429555Y-52118805D01*
X50198429Y-52214541D01*
X49990422Y-52353527D01*
X49813527Y-52530422D01*
X49674541Y-52738429D01*
X49578805Y-52969555D01*
X49530000Y-53214916D01*
X49481195Y-52969555D01*
X49385459Y-52738429D01*
X49246473Y-52530422D01*
X49069578Y-52353527D01*
X48861571Y-52214541D01*
X48630445Y-52118805D01*
X48385084Y-52070000D01*
X48134916Y-52070000D01*
X47889555Y-52118805D01*
X47658429Y-52214541D01*
X47551999Y-52285655D01*
X47551999Y-51663593D01*
X49105371Y-50110222D01*
X49105375Y-50110217D01*
X49132102Y-50083490D01*
X49185515Y-50105615D01*
X49413682Y-50151001D01*
X49646318Y-50151001D01*
X49874485Y-50105615D01*
X50089413Y-50016589D01*
X50282843Y-49887343D01*
X50447342Y-49722844D01*
X50576588Y-49529414D01*
X50665614Y-49314486D01*
X50711000Y-49086319D01*
X50711000Y-48853683D01*
X50889000Y-48853683D01*
X50889000Y-49086319D01*
X50934386Y-49314486D01*
X51023412Y-49529414D01*
X51152658Y-49722844D01*
X51317157Y-49887343D01*
X51510587Y-50016589D01*
X51725515Y-50105615D01*
X51953682Y-50151001D01*
X52186318Y-50151001D01*
X52414485Y-50105615D01*
X52629413Y-50016589D01*
X52822843Y-49887343D01*
X52987342Y-49722844D01*
X53116588Y-49529414D01*
X53205614Y-49314486D01*
X53251000Y-49086319D01*
X53251000Y-48853683D01*
X53205614Y-48625516D01*
X53116588Y-48410588D01*
X52987342Y-48217158D01*
X52822843Y-48052659D01*
X52629413Y-47923413D01*
X52414485Y-47834387D01*
X52186318Y-47789001D01*
X51953682Y-47789001D01*
X51725515Y-47834387D01*
X51510587Y-47923413D01*
X51317157Y-48052659D01*
X51152658Y-48217158D01*
X51023412Y-48410588D01*
X50934386Y-48625516D01*
X50889000Y-48853683D01*
X50711000Y-48853683D01*
X50665614Y-48625516D01*
X50576588Y-48410588D01*
X50447342Y-48217158D01*
X50282843Y-48052659D01*
X50089413Y-47923413D01*
X49874485Y-47834387D01*
X49646318Y-47789001D01*
X49413682Y-47789001D01*
X49185515Y-47834387D01*
X48970587Y-47923413D01*
X48777157Y-48052659D01*
X48612658Y-48217158D01*
X48483412Y-48410588D01*
X48394386Y-48625516D01*
X48349000Y-48853683D01*
X48349000Y-49086319D01*
X48394386Y-49314486D01*
X48416511Y-49367899D01*
X48389784Y-49394626D01*
X48389779Y-49394630D01*
X46705779Y-51078630D01*
X46686473Y-51094475D01*
X46623241Y-51171523D01*
X46598126Y-51218510D01*
X46576254Y-51259428D01*
X46547321Y-51354810D01*
X46537552Y-51454002D01*
X46540000Y-51478858D01*
X46539999Y-58681131D01*
X40629417Y-64591713D01*
X40591195Y-64399555D01*
X40495459Y-64168429D01*
X40356473Y-63960422D01*
X40179578Y-63783527D01*
X39971571Y-63644541D01*
X39957712Y-63638800D01*
X40017359Y-63617816D01*
X40164273Y-63539289D01*
X40246626Y-63286231D01*
X39370000Y-62409605D01*
X38493374Y-63286231D01*
X38575727Y-63539289D01*
X38782808Y-63638585D01*
X38768429Y-63644541D01*
X38560422Y-63783527D01*
X38383527Y-63960422D01*
X38244541Y-64168429D01*
X38148805Y-64399555D01*
X38100000Y-64644916D01*
X38100000Y-64895084D01*
X38148805Y-65140445D01*
X38244541Y-65371571D01*
X38324973Y-65491946D01*
X38251424Y-65514256D01*
X38163520Y-65561242D01*
X38086472Y-65624474D01*
X38070628Y-65643780D01*
X35729781Y-67984628D01*
X35710474Y-68000473D01*
X35647242Y-68077521D01*
X35633266Y-68103669D01*
X35600255Y-68165426D01*
X35581530Y-68227157D01*
X35220000Y-68227157D01*
X35145311Y-68234513D01*
X35073492Y-68256299D01*
X35007304Y-68291678D01*
X34949289Y-68339289D01*
X34901678Y-68397304D01*
X34866299Y-68463492D01*
X34844513Y-68535311D01*
X34837157Y-68610000D01*
X34837157Y-70310000D01*
X34844513Y-70384689D01*
X34866299Y-70456508D01*
X34901678Y-70522696D01*
X34949289Y-70580711D01*
X35007304Y-70628322D01*
X35073492Y-70663701D01*
X35145311Y-70685487D01*
X35220000Y-70692843D01*
X36920000Y-70692843D01*
X36994689Y-70685487D01*
X37066508Y-70663701D01*
X37132696Y-70628322D01*
X37190711Y-70580711D01*
X37238322Y-70522696D01*
X37273701Y-70456508D01*
X37295487Y-70384689D01*
X37302843Y-70310000D01*
X37302843Y-68610000D01*
X37295487Y-68535311D01*
X37273701Y-68463492D01*
X37238322Y-68397304D01*
X37190711Y-68339289D01*
X37132696Y-68291678D01*
X37066508Y-68256299D01*
X36994689Y-68234513D01*
X36920000Y-68227157D01*
X36918434Y-68227157D01*
X38134594Y-67010997D01*
X38100000Y-67184916D01*
X38100000Y-67435084D01*
X38148805Y-67680445D01*
X38244541Y-67911571D01*
X38383527Y-68119578D01*
X38560422Y-68296473D01*
X38768429Y-68435459D01*
X38999555Y-68531195D01*
X39244916Y-68580000D01*
X39495084Y-68580000D01*
X39740445Y-68531195D01*
X39971571Y-68435459D01*
X40179578Y-68296473D01*
X40356473Y-68119578D01*
X40495459Y-67911571D01*
X40591195Y-67680445D01*
X40640000Y-67435084D01*
X40640000Y-67184916D01*
X40591195Y-66939555D01*
X40495459Y-66708429D01*
X40356473Y-66500422D01*
X40250365Y-66394314D01*
X40312248Y-66343528D01*
X40328097Y-66324216D01*
X47386219Y-59266095D01*
X47405526Y-59250250D01*
X47468758Y-59173202D01*
X47515744Y-59085298D01*
X47544677Y-58989916D01*
X47551999Y-58915577D01*
X47551999Y-58915569D01*
X47554446Y-58890723D01*
X47551999Y-58865877D01*
X47551999Y-56987391D01*
X58039000Y-56987391D01*
X58039000Y-57312609D01*
X58102447Y-57631579D01*
X58226903Y-57932042D01*
X58407585Y-58202451D01*
X58637549Y-58432415D01*
X58907958Y-58613097D01*
X59208421Y-58737553D01*
X59527391Y-58801000D01*
X59852609Y-58801000D01*
X60171579Y-58737553D01*
X60472042Y-58613097D01*
X60742451Y-58432415D01*
X60972415Y-58202451D01*
X61153097Y-57932042D01*
X61277553Y-57631579D01*
X61341000Y-57312609D01*
X61341000Y-56987391D01*
X61277553Y-56668421D01*
X61153097Y-56367958D01*
X60972415Y-56097549D01*
X60742451Y-55867585D01*
X60472042Y-55686903D01*
X60171579Y-55562447D01*
X59852609Y-55499000D01*
X59527391Y-55499000D01*
X59208421Y-55562447D01*
X58907958Y-55686903D01*
X58637549Y-55867585D01*
X58407585Y-56097549D01*
X58226903Y-56367958D01*
X58102447Y-56668421D01*
X58039000Y-56987391D01*
X47551999Y-56987391D01*
X47551999Y-54394345D01*
X47658429Y-54465459D01*
X47889555Y-54561195D01*
X48134916Y-54610000D01*
X48385084Y-54610000D01*
X48630445Y-54561195D01*
X48726016Y-54521608D01*
X48808777Y-54604369D01*
X48808783Y-54604374D01*
X49098625Y-54894216D01*
X49114474Y-54913528D01*
X49191522Y-54976760D01*
X49279426Y-55023746D01*
X49374807Y-55052679D01*
X49384695Y-55053653D01*
X49449147Y-55060001D01*
X49449154Y-55060001D01*
X49474000Y-55062448D01*
X49498846Y-55060001D01*
X56437875Y-55060001D01*
X56462721Y-55062448D01*
X56487567Y-55060001D01*
X56487575Y-55060001D01*
X56561914Y-55052679D01*
X56657296Y-55023746D01*
X56745200Y-54976760D01*
X56822248Y-54913528D01*
X56838097Y-54894216D01*
X58615221Y-53117093D01*
X58634528Y-53101248D01*
X58697760Y-53024200D01*
X58744746Y-52936296D01*
X58773679Y-52840914D01*
X58781001Y-52766575D01*
X58781001Y-52766567D01*
X58783448Y-52741721D01*
X58781001Y-52716875D01*
X58781001Y-49731187D01*
X58937157Y-49887343D01*
X59055000Y-49966083D01*
X59055000Y-50132562D01*
X59064188Y-50225852D01*
X59100498Y-50345550D01*
X59159463Y-50455864D01*
X59238815Y-50552556D01*
X59335506Y-50631908D01*
X59445820Y-50690873D01*
X59565518Y-50727183D01*
X59690000Y-50739443D01*
X59814481Y-50727183D01*
X59934179Y-50690873D01*
X60044493Y-50631908D01*
X60141185Y-50552556D01*
X60220537Y-50455865D01*
X60279502Y-50345551D01*
X60315812Y-50225853D01*
X60325000Y-50132563D01*
X60325000Y-49966083D01*
X60442843Y-49887343D01*
X60607342Y-49722844D01*
X60736588Y-49529414D01*
X60825614Y-49314486D01*
X60871000Y-49086319D01*
X60871000Y-48853683D01*
X60825614Y-48625516D01*
X60736588Y-48410588D01*
X60607342Y-48217158D01*
X60442843Y-48052659D01*
X60249413Y-47923413D01*
X60034485Y-47834387D01*
X59806318Y-47789001D01*
X59573682Y-47789001D01*
X59345515Y-47834387D01*
X59130587Y-47923413D01*
X58937157Y-48052659D01*
X58781001Y-48208815D01*
X58781001Y-40390026D01*
X58783448Y-40365180D01*
X58781001Y-40340334D01*
X58781001Y-40340327D01*
X58773679Y-40265988D01*
X58744746Y-40170606D01*
X58697760Y-40082702D01*
X58634528Y-40005654D01*
X58615221Y-39989809D01*
X53395180Y-34769769D01*
X53379336Y-34750463D01*
X53302288Y-34687231D01*
X53214384Y-34640245D01*
X53119002Y-34611312D01*
X53044663Y-34603990D01*
X53044656Y-34603990D01*
X53019810Y-34601543D01*
X52994963Y-34603990D01*
X52866196Y-34603990D01*
X52987342Y-34482844D01*
X53116588Y-34289414D01*
X53205614Y-34074486D01*
X53251000Y-33846319D01*
X53251000Y-33613683D01*
X53429000Y-33613683D01*
X53429000Y-33846319D01*
X53474386Y-34074486D01*
X53563412Y-34289414D01*
X53692658Y-34482844D01*
X53857157Y-34647343D01*
X54050587Y-34776589D01*
X54265515Y-34865615D01*
X54493682Y-34911001D01*
X54726318Y-34911001D01*
X54954485Y-34865615D01*
X55169413Y-34776589D01*
X55362843Y-34647343D01*
X55527342Y-34482844D01*
X55656588Y-34289414D01*
X55745614Y-34074486D01*
X55791000Y-33846319D01*
X55791000Y-33613683D01*
X55969000Y-33613683D01*
X55969000Y-33846319D01*
X56014386Y-34074486D01*
X56103412Y-34289414D01*
X56232658Y-34482844D01*
X56397157Y-34647343D01*
X56590587Y-34776589D01*
X56805515Y-34865615D01*
X57033682Y-34911001D01*
X57266318Y-34911001D01*
X57494485Y-34865615D01*
X57709413Y-34776589D01*
X57902843Y-34647343D01*
X58067342Y-34482844D01*
X58196588Y-34289414D01*
X58285614Y-34074486D01*
X58331000Y-33846319D01*
X58331000Y-33613683D01*
X58285614Y-33385516D01*
X58196588Y-33170588D01*
X58067342Y-32977158D01*
X57902843Y-32812659D01*
X57709413Y-32683413D01*
X57494485Y-32594387D01*
X57266318Y-32549001D01*
X57033682Y-32549001D01*
X56805515Y-32594387D01*
X56590587Y-32683413D01*
X56397157Y-32812659D01*
X56232658Y-32977158D01*
X56103412Y-33170588D01*
X56014386Y-33385516D01*
X55969000Y-33613683D01*
X55791000Y-33613683D01*
X55745614Y-33385516D01*
X55656588Y-33170588D01*
X55527342Y-32977158D01*
X55362843Y-32812659D01*
X55169413Y-32683413D01*
X54954485Y-32594387D01*
X54726318Y-32549001D01*
X54493682Y-32549001D01*
X54265515Y-32594387D01*
X54050587Y-32683413D01*
X53857157Y-32812659D01*
X53692658Y-32977158D01*
X53563412Y-33170588D01*
X53474386Y-33385516D01*
X53429000Y-33613683D01*
X53251000Y-33613683D01*
X53205614Y-33385516D01*
X53116588Y-33170588D01*
X52987342Y-32977158D01*
X52822843Y-32812659D01*
X52629413Y-32683413D01*
X52414485Y-32594387D01*
X52186318Y-32549001D01*
X51953682Y-32549001D01*
X51725515Y-32594387D01*
X51510587Y-32683413D01*
X51317157Y-32812659D01*
X51152658Y-32977158D01*
X51023412Y-33170588D01*
X50934386Y-33385516D01*
X50889000Y-33613683D01*
X50889000Y-33846319D01*
X50934386Y-34074486D01*
X51023412Y-34289414D01*
X51152658Y-34482844D01*
X51273806Y-34603992D01*
X51119583Y-34603992D01*
X50643490Y-34127899D01*
X50665614Y-34074486D01*
X50711000Y-33846319D01*
X50711000Y-33613683D01*
X50665614Y-33385516D01*
X50576588Y-33170588D01*
X50447342Y-32977158D01*
X50282843Y-32812659D01*
X50089413Y-32683413D01*
X49874485Y-32594387D01*
X49646318Y-32549001D01*
X49413682Y-32549001D01*
X49185515Y-32594387D01*
X48970587Y-32683413D01*
X48777157Y-32812659D01*
X48612658Y-32977158D01*
X48483412Y-33170588D01*
X48394386Y-33385516D01*
X48349000Y-33613683D01*
X48349000Y-33846319D01*
X48394386Y-34074486D01*
X48483412Y-34289414D01*
X48612658Y-34482844D01*
X48777157Y-34647343D01*
X48970587Y-34776589D01*
X49185515Y-34865615D01*
X49413682Y-34911001D01*
X49646318Y-34911001D01*
X49874485Y-34865615D01*
X49927898Y-34843491D01*
X50138407Y-35054000D01*
X49029591Y-35054000D01*
X48103490Y-34127899D01*
X48125614Y-34074486D01*
X48171000Y-33846319D01*
X48171000Y-33613683D01*
X48125614Y-33385516D01*
X48036588Y-33170588D01*
X47907342Y-32977158D01*
X47742843Y-32812659D01*
X47549413Y-32683413D01*
X47334485Y-32594387D01*
X47106318Y-32549001D01*
X47053668Y-32549001D01*
X47051500Y-32526986D01*
X47051500Y-32417510D01*
X47207227Y-32353005D01*
X47436035Y-32200120D01*
X47630620Y-32005535D01*
X47783505Y-31776727D01*
X47848010Y-31621000D01*
X47957494Y-31621000D01*
X47982340Y-31623447D01*
X48007186Y-31621000D01*
X48007194Y-31621000D01*
X48081533Y-31613678D01*
X48176915Y-31584745D01*
X48264819Y-31537759D01*
X48341867Y-31474527D01*
X48357716Y-31455215D01*
X48989035Y-30823896D01*
X48958500Y-30977408D01*
X48958500Y-31252592D01*
X49012186Y-31522490D01*
X49117495Y-31776727D01*
X49270380Y-32005535D01*
X49464965Y-32200120D01*
X49693773Y-32353005D01*
X49948010Y-32458314D01*
X50217908Y-32512000D01*
X50493092Y-32512000D01*
X50762990Y-32458314D01*
X51017227Y-32353005D01*
X51246035Y-32200120D01*
X51440620Y-32005535D01*
X51593505Y-31776727D01*
X51658010Y-31621000D01*
X52862990Y-31621000D01*
X52927495Y-31776727D01*
X53080380Y-32005535D01*
X53274965Y-32200120D01*
X53503773Y-32353005D01*
X53758010Y-32458314D01*
X54027908Y-32512000D01*
X54303092Y-32512000D01*
X54572990Y-32458314D01*
X54827227Y-32353005D01*
X55056035Y-32200120D01*
X55250620Y-32005535D01*
X55403505Y-31776727D01*
X55508814Y-31522490D01*
X55562500Y-31252592D01*
X55562500Y-30977408D01*
X55508814Y-30707510D01*
X55403505Y-30453273D01*
X55287727Y-30279999D01*
X56424908Y-30279999D01*
X56696691Y-30551782D01*
X56632186Y-30707510D01*
X56578500Y-30977408D01*
X56578500Y-31252592D01*
X56632186Y-31522490D01*
X56737495Y-31776727D01*
X56890380Y-32005535D01*
X57084965Y-32200120D01*
X57313773Y-32353005D01*
X57568010Y-32458314D01*
X57837908Y-32512000D01*
X58113092Y-32512000D01*
X58382990Y-32458314D01*
X58637227Y-32353005D01*
X58866035Y-32200120D01*
X59060620Y-32005535D01*
X59213505Y-31776727D01*
X59318814Y-31522490D01*
X59372500Y-31252592D01*
X59372500Y-30977408D01*
X59318814Y-30707510D01*
X59213505Y-30453273D01*
X59060620Y-30224465D01*
X58866035Y-30029880D01*
X58637227Y-29876995D01*
X58382990Y-29771686D01*
X58113092Y-29718000D01*
X57837908Y-29718000D01*
X57568010Y-29771686D01*
X57412282Y-29836191D01*
X57009875Y-29433784D01*
X56994026Y-29414472D01*
X56916978Y-29351240D01*
X56829074Y-29304254D01*
X56733692Y-29275321D01*
X56659353Y-29267999D01*
X56659345Y-29267999D01*
X56634499Y-29265552D01*
X56609653Y-29267999D01*
X49348195Y-29267999D01*
X49323341Y-29265551D01*
X49298487Y-29267999D01*
X49224148Y-29275321D01*
X49128766Y-29304254D01*
X49040862Y-29351240D01*
X48963814Y-29414472D01*
X48947969Y-29433779D01*
X47825966Y-30555783D01*
X47783505Y-30453273D01*
X47630620Y-30224465D01*
X47436035Y-30029880D01*
X47207227Y-29876995D01*
X46952990Y-29771686D01*
X46683092Y-29718000D01*
X46407908Y-29718000D01*
X46138010Y-29771686D01*
X45883773Y-29876995D01*
X45654965Y-30029880D01*
X45460380Y-30224465D01*
X45307495Y-30453273D01*
X45202186Y-30707510D01*
X45148500Y-30977408D01*
X45148500Y-31252592D01*
X45202186Y-31522490D01*
X45307495Y-31776727D01*
X45460380Y-32005535D01*
X45654965Y-32200120D01*
X45883773Y-32353005D01*
X45986282Y-32395466D01*
X45382262Y-32999487D01*
X45367342Y-32977158D01*
X45202843Y-32812659D01*
X45009413Y-32683413D01*
X44797722Y-32595728D01*
X44826910Y-32541121D01*
X44850125Y-32464590D01*
X44857964Y-32385000D01*
X44856000Y-32365059D01*
X44856000Y-28451823D01*
X49388282Y-28451823D01*
X49485978Y-28717860D01*
X49778321Y-28860348D01*
X50092844Y-28943064D01*
X50417462Y-28962831D01*
X50739698Y-28918888D01*
X51047170Y-28812924D01*
X51225022Y-28717860D01*
X51322718Y-28451823D01*
X50355500Y-27484605D01*
X49388282Y-28451823D01*
X44856000Y-28451823D01*
X44856000Y-27366962D01*
X48697669Y-27366962D01*
X48741612Y-27689198D01*
X48847576Y-27996670D01*
X48942640Y-28174522D01*
X49208677Y-28272218D01*
X50175895Y-27305000D01*
X50535105Y-27305000D01*
X51502323Y-28272218D01*
X51768360Y-28174522D01*
X51910848Y-27882179D01*
X51993564Y-27567656D01*
X52013331Y-27243038D01*
X51969388Y-26920802D01*
X51863424Y-26613330D01*
X51768360Y-26435478D01*
X51502323Y-26337782D01*
X50535105Y-27305000D01*
X50175895Y-27305000D01*
X49208677Y-26337782D01*
X48942640Y-26435478D01*
X48800152Y-26727821D01*
X48717436Y-27042344D01*
X48697669Y-27366962D01*
X44856000Y-27366962D01*
X44856000Y-25806000D01*
X49647134Y-25806000D01*
X49485978Y-25892140D01*
G36*
X57343748Y-48955859D02*
G01*
X57329605Y-48970001D01*
X57343748Y-48984144D01*
X57164143Y-49163749D01*
X57150000Y-49149606D01*
X56336903Y-49962703D01*
X56408486Y-50206672D01*
X56663996Y-50327572D01*
X56938184Y-50396301D01*
X57220512Y-50410218D01*
X57500130Y-50368788D01*
X57766292Y-50273604D01*
X57769002Y-50272156D01*
X57769002Y-52532128D01*
X57356476Y-52944655D01*
X57267816Y-52692641D01*
X57189289Y-52545727D01*
X56936231Y-52463374D01*
X56059605Y-53340000D01*
X56073748Y-53354143D01*
X55894143Y-53533748D01*
X55880000Y-53519605D01*
X55865858Y-53533748D01*
X55686253Y-53354143D01*
X55700395Y-53340000D01*
X54823769Y-52463374D01*
X54570711Y-52545727D01*
X54471415Y-52752808D01*
X54465459Y-52738429D01*
X54326473Y-52530422D01*
X54149578Y-52353527D01*
X54045178Y-52283769D01*
X55003374Y-52283769D01*
X55880000Y-53160395D01*
X56756626Y-52283769D01*
X56674273Y-52030711D01*
X56403582Y-51900914D01*
X56112770Y-51826420D01*
X55813012Y-51810092D01*
X55515829Y-51852557D01*
X55232641Y-51952184D01*
X55085727Y-52030711D01*
X55003374Y-52283769D01*
X54045178Y-52283769D01*
X53941571Y-52214541D01*
X53803319Y-52157275D01*
X56200228Y-49760367D01*
X56219535Y-49744522D01*
X56282767Y-49667474D01*
X56294072Y-49646324D01*
X56970395Y-48970001D01*
X56956253Y-48955859D01*
X57135858Y-48776254D01*
X57150000Y-48790396D01*
X57164143Y-48776254D01*
X57343748Y-48955859D01*
X57343748Y-48955859D01*
G37*
X57343748Y-48955859D02*
X57329605Y-48970001D01*
X57343748Y-48984144D01*
X57164143Y-49163749D01*
X57150000Y-49149606D01*
X56336903Y-49962703D01*
X56408486Y-50206672D01*
X56663996Y-50327572D01*
X56938184Y-50396301D01*
X57220512Y-50410218D01*
X57500130Y-50368788D01*
X57766292Y-50273604D01*
X57769002Y-50272156D01*
X57769002Y-52532128D01*
X57356476Y-52944655D01*
X57267816Y-52692641D01*
X57189289Y-52545727D01*
X56936231Y-52463374D01*
X56059605Y-53340000D01*
X56073748Y-53354143D01*
X55894143Y-53533748D01*
X55880000Y-53519605D01*
X55865858Y-53533748D01*
X55686253Y-53354143D01*
X55700395Y-53340000D01*
X54823769Y-52463374D01*
X54570711Y-52545727D01*
X54471415Y-52752808D01*
X54465459Y-52738429D01*
X54326473Y-52530422D01*
X54149578Y-52353527D01*
X54045178Y-52283769D01*
X55003374Y-52283769D01*
X55880000Y-53160395D01*
X56756626Y-52283769D01*
X56674273Y-52030711D01*
X56403582Y-51900914D01*
X56112770Y-51826420D01*
X55813012Y-51810092D01*
X55515829Y-51852557D01*
X55232641Y-51952184D01*
X55085727Y-52030711D01*
X55003374Y-52283769D01*
X54045178Y-52283769D01*
X53941571Y-52214541D01*
X53803319Y-52157275D01*
X56200228Y-49760367D01*
X56219535Y-49744522D01*
X56282767Y-49667474D01*
X56294072Y-49646324D01*
X56970395Y-48970001D01*
X56956253Y-48955859D01*
X57135858Y-48776254D01*
X57150000Y-48790396D01*
X57164143Y-48776254D01*
X57343748Y-48955859D01*
M02*
